<svg width="24" height="24" viewBox="32 332 24 24" fill="none" xmlns="http://www.w3.org/2000/svg">
<path d="M0 16C0 7.16343 7.16344 0 16 0H359C367.837 0 375 7.16344 375 16V640H0V16Z" fill="#242424"/>
<path d="M137.155 27.04C137.155 28.24 136.925 29.245 136.465 30.055C136.015 30.865 135.36 31.475 134.5 31.885C133.65 32.295 132.62 32.5 131.41 32.5H128.395V21.79H131.725C132.835 21.79 133.795 21.99 134.605 22.39C135.415 22.79 136.04 23.38 136.48 24.16C136.93 24.93 137.155 25.89 137.155 27.04ZM135.145 27.1C135.145 26.25 135.015 25.55 134.755 25C134.495 24.45 134.11 24.045 133.6 23.785C133.09 23.515 132.465 23.38 131.725 23.38H130.315V30.895H131.47C132.71 30.895 133.63 30.58 134.23 29.95C134.84 29.31 135.145 28.36 135.145 27.1ZM142.53 24.22C143.26 24.22 143.885 24.37 144.405 24.67C144.935 24.96 145.345 25.38 145.635 25.93C145.925 26.47 146.07 27.13 146.07 27.91V28.87H140.7C140.72 29.61 140.925 30.185 141.315 30.595C141.705 30.995 142.245 31.195 142.935 31.195C143.465 31.195 143.935 31.145 144.345 31.045C144.765 30.935 145.195 30.78 145.635 30.58V32.095C145.235 32.285 144.82 32.425 144.39 32.515C143.96 32.605 143.445 32.65 142.845 32.65C142.055 32.65 141.35 32.5 140.73 32.2C140.12 31.89 139.64 31.425 139.29 30.805C138.95 30.185 138.78 29.415 138.78 28.495C138.78 27.565 138.935 26.785 139.245 26.155C139.565 25.515 140.005 25.035 140.565 24.715C141.125 24.385 141.78 24.22 142.53 24.22ZM142.53 25.615C142.03 25.615 141.62 25.78 141.3 26.11C140.99 26.43 140.805 26.91 140.745 27.55H144.24C144.24 27.17 144.175 26.835 144.045 26.545C143.925 26.255 143.74 26.03 143.49 25.87C143.24 25.7 142.92 25.615 142.53 25.615ZM152.251 24.22C153.201 24.22 153.966 24.575 154.546 25.285C155.126 25.985 155.416 27.03 155.416 28.42C155.416 29.34 155.281 30.115 155.011 30.745C154.741 31.375 154.366 31.85 153.886 32.17C153.406 32.49 152.846 32.65 152.206 32.65C151.816 32.65 151.471 32.6 151.171 32.5C150.871 32.39 150.616 32.255 150.406 32.095C150.196 31.925 150.016 31.745 149.866 31.555H149.746C149.786 31.735 149.816 31.94 149.836 32.17C149.856 32.39 149.866 32.6 149.866 32.8V36.1H147.976V24.37H149.506L149.776 25.45H149.866C150.016 25.22 150.196 25.015 150.406 24.835C150.626 24.645 150.886 24.495 151.186 24.385C151.496 24.275 151.851 24.22 152.251 24.22ZM151.711 25.75C151.271 25.75 150.916 25.84 150.646 26.02C150.376 26.19 150.181 26.455 150.061 26.815C149.941 27.175 149.876 27.625 149.866 28.165V28.405C149.866 28.985 149.921 29.475 150.031 29.875C150.151 30.275 150.346 30.58 150.616 30.79C150.896 31 151.271 31.105 151.741 31.105C152.141 31.105 152.466 30.995 152.716 30.775C152.976 30.555 153.166 30.245 153.286 29.845C153.416 29.435 153.481 28.95 153.481 28.39C153.481 27.55 153.336 26.9 153.046 26.44C152.766 25.98 152.321 25.75 151.711 25.75ZM164.625 28.42C164.625 29.1 164.535 29.7 164.355 30.22C164.175 30.74 163.915 31.185 163.575 31.555C163.245 31.915 162.835 32.19 162.345 32.38C161.865 32.56 161.33 32.65 160.74 32.65C160.18 32.65 159.665 32.56 159.195 32.38C158.725 32.19 158.315 31.915 157.965 31.555C157.625 31.185 157.36 30.74 157.17 30.22C156.98 29.7 156.885 29.1 156.885 28.42C156.885 27.52 157.04 26.76 157.35 26.14C157.66 25.51 158.105 25.035 158.685 24.715C159.275 24.385 159.97 24.22 160.77 24.22C161.53 24.22 162.195 24.385 162.765 24.715C163.345 25.035 163.8 25.51 164.13 26.14C164.46 26.76 164.625 27.52 164.625 28.42ZM158.82 28.42C158.82 28.99 158.885 29.48 159.015 29.89C159.155 30.29 159.365 30.595 159.645 30.805C159.935 31.015 160.305 31.12 160.755 31.12C161.215 31.12 161.585 31.015 161.865 30.805C162.155 30.595 162.365 30.29 162.495 29.89C162.625 29.48 162.69 28.99 162.69 28.42C162.69 27.84 162.62 27.355 162.48 26.965C162.35 26.565 162.14 26.265 161.85 26.065C161.57 25.855 161.205 25.75 160.755 25.75C160.075 25.75 159.58 25.98 159.27 26.44C158.97 26.9 158.82 27.56 158.82 28.42ZM172.114 30.145C172.114 30.685 171.984 31.145 171.724 31.525C171.464 31.895 171.079 32.175 170.569 32.365C170.069 32.555 169.454 32.65 168.724 32.65C168.154 32.65 167.664 32.61 167.254 32.53C166.844 32.45 166.454 32.325 166.084 32.155V30.55C166.484 30.74 166.929 30.9 167.419 31.03C167.909 31.16 168.364 31.225 168.784 31.225C169.304 31.225 169.679 31.145 169.909 30.985C170.139 30.825 170.254 30.61 170.254 30.34C170.254 30.18 170.209 30.035 170.119 29.905C170.029 29.775 169.854 29.64 169.594 29.5C169.334 29.35 168.939 29.165 168.409 28.945C167.889 28.735 167.454 28.525 167.104 28.315C166.764 28.105 166.504 27.855 166.324 27.565C166.154 27.265 166.069 26.89 166.069 26.44C166.069 25.71 166.359 25.16 166.939 24.79C167.519 24.41 168.284 24.22 169.234 24.22C169.734 24.22 170.204 24.27 170.644 24.37C171.094 24.46 171.544 24.61 171.994 24.82L171.394 26.215C171.144 26.105 170.894 26.01 170.644 25.93C170.404 25.84 170.159 25.77 169.909 25.72C169.669 25.67 169.424 25.645 169.174 25.645C168.764 25.645 168.454 25.71 168.244 25.84C168.034 25.96 167.929 26.13 167.929 26.35C167.929 26.52 167.979 26.67 168.079 26.8C168.189 26.92 168.374 27.045 168.634 27.175C168.904 27.295 169.284 27.455 169.774 27.655C170.264 27.845 170.679 28.045 171.019 28.255C171.369 28.455 171.639 28.705 171.829 29.005C172.019 29.305 172.114 29.685 172.114 30.145ZM175.823 24.37V32.5H173.933V24.37H175.823ZM174.878 21.235C175.158 21.235 175.403 21.31 175.613 21.46C175.823 21.6 175.928 21.855 175.928 22.225C175.928 22.585 175.823 22.845 175.613 23.005C175.403 23.155 175.158 23.23 174.878 23.23C174.588 23.23 174.338 23.155 174.128 23.005C173.928 22.845 173.828 22.585 173.828 22.225C173.828 21.855 173.928 21.6 174.128 21.46C174.338 21.31 174.588 21.235 174.878 21.235ZM181.389 31.135C181.629 31.135 181.859 31.115 182.079 31.075C182.299 31.025 182.504 30.97 182.694 30.91V32.32C182.494 32.41 182.234 32.485 181.914 32.545C181.594 32.615 181.259 32.65 180.909 32.65C180.449 32.65 180.029 32.575 179.649 32.425C179.279 32.265 178.979 31.995 178.749 31.615C178.529 31.235 178.419 30.705 178.419 30.025V25.795H177.324V24.97L178.524 24.31L179.124 22.585H180.309V24.37H182.619V25.795H180.309V30.01C180.309 30.39 180.409 30.675 180.609 30.865C180.809 31.045 181.069 31.135 181.389 31.135ZM192.97 23.26C192.48 23.26 192.045 23.35 191.665 23.53C191.285 23.71 190.96 23.97 190.69 24.31C190.43 24.65 190.23 25.06 190.09 25.54C189.96 26.02 189.895 26.56 189.895 27.16C189.895 27.97 190.005 28.665 190.225 29.245C190.445 29.815 190.78 30.255 191.23 30.565C191.69 30.875 192.265 31.03 192.955 31.03C193.415 31.03 193.855 30.985 194.275 30.895C194.705 30.795 195.155 30.665 195.625 30.505V32.14C195.185 32.32 194.74 32.45 194.29 32.53C193.85 32.61 193.34 32.65 192.76 32.65C191.66 32.65 190.75 32.425 190.03 31.975C189.31 31.515 188.775 30.875 188.425 30.055C188.075 29.225 187.9 28.255 187.9 27.145C187.9 26.335 188.01 25.595 188.23 24.925C188.46 24.255 188.785 23.675 189.205 23.185C189.635 22.695 190.165 22.315 190.795 22.045C191.425 21.775 192.15 21.64 192.97 21.64C193.51 21.64 194.04 21.705 194.56 21.835C195.09 21.955 195.585 22.125 196.045 22.345L195.385 23.92C195.005 23.75 194.61 23.6 194.2 23.47C193.8 23.33 193.39 23.26 192.97 23.26ZM199.641 23.815C199.641 24.135 199.626 24.45 199.596 24.76C199.576 25.06 199.556 25.285 199.536 25.435H199.656C199.826 25.155 200.036 24.93 200.286 24.76C200.536 24.58 200.811 24.445 201.111 24.355C201.421 24.265 201.741 24.22 202.071 24.22C202.681 24.22 203.206 24.325 203.646 24.535C204.086 24.745 204.421 25.07 204.651 25.51C204.891 25.94 205.011 26.505 205.011 27.205V32.5H203.121V27.58C203.121 26.96 203.001 26.5 202.761 26.2C202.521 25.9 202.141 25.75 201.621 25.75C201.121 25.75 200.726 25.86 200.436 26.08C200.146 26.29 199.941 26.605 199.821 27.025C199.701 27.435 199.641 27.94 199.641 28.54V32.5H197.751V21.1H199.641V23.815ZM210.615 24.22C211.665 24.22 212.46 24.45 213 24.91C213.55 25.36 213.825 26.07 213.825 27.04V32.5H212.49L212.115 31.375H212.055C211.825 31.665 211.585 31.91 211.335 32.11C211.095 32.3 210.815 32.435 210.495 32.515C210.185 32.605 209.805 32.65 209.355 32.65C208.875 32.65 208.44 32.56 208.05 32.38C207.67 32.2 207.37 31.925 207.15 31.555C206.93 31.175 206.82 30.7 206.82 30.13C206.82 29.29 207.125 28.66 207.735 28.24C208.355 27.81 209.29 27.575 210.54 27.535L211.95 27.49V27.085C211.95 26.565 211.825 26.195 211.575 25.975C211.325 25.755 210.975 25.645 210.525 25.645C210.115 25.645 209.72 25.705 209.34 25.825C208.96 25.945 208.59 26.085 208.23 26.245L207.63 24.925C208.03 24.715 208.485 24.545 208.995 24.415C209.515 24.285 210.055 24.22 210.615 24.22ZM210.96 28.69C210.13 28.72 209.555 28.865 209.235 29.125C208.915 29.375 208.755 29.715 208.755 30.145C208.755 30.525 208.87 30.8 209.1 30.97C209.33 31.14 209.625 31.225 209.985 31.225C210.535 31.225 211 31.07 211.38 30.76C211.76 30.44 211.95 29.97 211.95 29.35V28.66L210.96 28.69ZM220.544 24.22C221.454 24.22 222.164 24.455 222.674 24.925C223.194 25.395 223.454 26.155 223.454 27.205V32.5H221.564V27.58C221.564 26.97 221.444 26.515 221.204 26.215C220.964 25.905 220.584 25.75 220.064 25.75C219.304 25.75 218.784 25.99 218.504 26.47C218.224 26.94 218.084 27.625 218.084 28.525V32.5H216.194V24.37H217.649L217.919 25.435H218.024C218.204 25.155 218.424 24.925 218.684 24.745C218.944 24.565 219.234 24.435 219.554 24.355C219.874 24.265 220.204 24.22 220.544 24.22ZM230.168 24.22C231.078 24.22 231.788 24.455 232.298 24.925C232.818 25.395 233.078 26.155 233.078 27.205V32.5H231.188V27.58C231.188 26.97 231.068 26.515 230.828 26.215C230.588 25.905 230.208 25.75 229.688 25.75C228.928 25.75 228.408 25.99 228.128 26.47C227.848 26.94 227.708 27.625 227.708 28.525V32.5H225.818V24.37H227.273L227.543 25.435H227.648C227.828 25.155 228.048 24.925 228.308 24.745C228.568 24.565 228.858 24.435 229.178 24.355C229.498 24.265 229.828 24.22 230.168 24.22ZM238.712 24.22C239.442 24.22 240.067 24.37 240.587 24.67C241.117 24.96 241.527 25.38 241.817 25.93C242.107 26.47 242.252 27.13 242.252 27.91V28.87H236.882C236.902 29.61 237.107 30.185 237.497 30.595C237.887 30.995 238.427 31.195 239.117 31.195C239.647 31.195 240.117 31.145 240.527 31.045C240.947 30.935 241.377 30.78 241.817 30.58V32.095C241.417 32.285 241.002 32.425 240.572 32.515C240.142 32.605 239.627 32.65 239.027 32.65C238.237 32.65 237.532 32.5 236.912 32.2C236.302 31.89 235.822 31.425 235.472 30.805C235.132 30.185 234.962 29.415 234.962 28.495C234.962 27.565 235.117 26.785 235.427 26.155C235.747 25.515 236.187 25.035 236.747 24.715C237.307 24.385 237.962 24.22 238.712 24.22ZM238.712 25.615C238.212 25.615 237.802 25.78 237.482 26.11C237.172 26.43 236.987 26.91 236.927 27.55H240.422C240.422 27.17 240.357 26.835 240.227 26.545C240.107 26.255 239.922 26.03 239.672 25.87C239.422 25.7 239.102 25.615 238.712 25.615ZM246.047 32.5H244.157V21.1H246.047V32.5Z" fill="white"/>
<path d="M354 21L340 35M340 21L354 35" stroke="white" stroke-width="1.5" stroke-linecap="round" stroke-linejoin="round"/>
<path d="M16 62C16 58.6863 18.6863 56 22 56H353C356.314 56 359 58.6863 359 62V78C359 81.3137 356.314 84 353 84H22C18.6863 84 16 81.3137 16 78V62Z" fill="#0A0A0A"/>
<path d="M36 73L34.04 67.15H34C34.0067 67.2833 34.0167 67.4733 34.03 67.72C34.0433 67.96 34.0533 68.2233 34.06 68.51C34.0733 68.79 34.08 69.0533 34.08 69.3V73H32.93V65.86H34.71L36.59 71.47H36.63L38.59 65.86H40.37V73H39.15V69.24C39.15 69.0133 39.1533 68.7667 39.16 68.5C39.1733 68.2267 39.1833 67.97 39.19 67.73C39.2033 67.4833 39.2133 67.2933 39.22 67.16H39.18L37.14 73H36ZM46.9371 70.28C46.9371 70.7333 46.8771 71.1333 46.7571 71.48C46.6371 71.8267 46.4638 72.1233 46.2371 72.37C46.0171 72.61 45.7438 72.7933 45.4171 72.92C45.0971 73.04 44.7404 73.1 44.3471 73.1C43.9738 73.1 43.6304 73.04 43.3171 72.92C43.0038 72.7933 42.7304 72.61 42.4971 72.37C42.2704 72.1233 42.0938 71.8267 41.9671 71.48C41.8404 71.1333 41.7771 70.7333 41.7771 70.28C41.7771 69.68 41.8804 69.1733 42.0871 68.76C42.2938 68.34 42.5904 68.0233 42.9771 67.81C43.3704 67.59 43.8338 67.48 44.3671 67.48C44.8738 67.48 45.3171 67.59 45.6971 67.81C46.0838 68.0233 46.3871 68.34 46.6071 68.76C46.8271 69.1733 46.9371 69.68 46.9371 70.28ZM43.0671 70.28C43.0671 70.66 43.1104 70.9867 43.1971 71.26C43.2904 71.5267 43.4304 71.73 43.6171 71.87C43.8104 72.01 44.0571 72.08 44.3571 72.08C44.6638 72.08 44.9104 72.01 45.0971 71.87C45.2904 71.73 45.4304 71.5267 45.5171 71.26C45.6038 70.9867 45.6471 70.66 45.6471 70.28C45.6471 69.8933 45.6004 69.57 45.5071 69.31C45.4204 69.0433 45.2804 68.8433 45.0871 68.71C44.9004 68.57 44.6571 68.5 44.3571 68.5C43.9038 68.5 43.5738 68.6533 43.3671 68.96C43.1671 69.2667 43.0671 69.7067 43.0671 70.28ZM49.4997 67.2C49.4997 67.4133 49.493 67.62 49.4797 67.82C49.4664 68.02 49.453 68.1767 49.4397 68.29H49.4997C49.6464 68.0633 49.8464 67.8733 50.0997 67.72C50.353 67.56 50.683 67.48 51.0897 67.48C51.723 67.48 52.233 67.7167 52.6197 68.19C53.0064 68.6633 53.1997 69.36 53.1997 70.28C53.1997 70.9 53.1097 71.42 52.9297 71.84C52.7564 72.26 52.5064 72.5767 52.1797 72.79C51.8597 72.9967 51.4864 73.1 51.0597 73.1C50.653 73.1 50.3264 73.0267 50.0797 72.88C49.8397 72.7333 49.6464 72.5633 49.4997 72.37H49.4097L49.1797 73H48.2397V65.4H49.4997V67.2ZM50.7297 68.5C50.423 68.5 50.1797 68.56 49.9997 68.68C49.8264 68.8 49.6997 68.9833 49.6197 69.23C49.5397 69.4767 49.4997 69.79 49.4997 70.17V70.28C49.4997 70.86 49.5864 71.3033 49.7597 71.61C49.9397 71.9167 50.2697 72.07 50.7497 72.07C51.123 72.07 51.4097 71.9167 51.6097 71.61C51.8097 71.2967 51.9097 70.85 51.9097 70.27C51.9097 69.6833 51.8064 69.2433 51.5997 68.95C51.3997 68.65 51.1097 68.5 50.7297 68.5ZM55.7595 67.58V73H54.4995V67.58H55.7595ZM55.1295 65.49C55.3161 65.49 55.4795 65.54 55.6195 65.64C55.7595 65.7333 55.8295 65.9033 55.8295 66.15C55.8295 66.39 55.7595 66.5633 55.6195 66.67C55.4795 66.77 55.3161 66.82 55.1295 66.82C54.9361 66.82 54.7695 66.77 54.6295 66.67C54.4961 66.5633 54.4295 66.39 54.4295 66.15C54.4295 65.9033 54.4961 65.7333 54.6295 65.64C54.7695 65.54 54.9361 65.49 55.1295 65.49ZM58.6305 73H57.3705V65.4H58.6305V73ZM62.4216 67.48C62.9083 67.48 63.325 67.58 63.6716 67.78C64.025 67.9733 64.2983 68.2533 64.4916 68.62C64.685 68.98 64.7816 69.42 64.7816 69.94V70.58H61.2016C61.215 71.0733 61.3516 71.4567 61.6116 71.73C61.8716 71.9967 62.2316 72.13 62.6916 72.13C63.045 72.13 63.3583 72.0967 63.6316 72.03C63.9116 71.9567 64.1983 71.8533 64.4916 71.72V72.73C64.225 72.8567 63.9483 72.95 63.6616 73.01C63.375 73.07 63.0316 73.1 62.6316 73.1C62.105 73.1 61.635 73 61.2216 72.8C60.815 72.5933 60.495 72.2833 60.2616 71.87C60.035 71.4567 59.9216 70.9433 59.9216 70.33C59.9216 69.71 60.025 69.19 60.2316 68.77C60.445 68.3433 60.7383 68.0233 61.1116 67.81C61.485 67.59 61.9216 67.48 62.4216 67.48ZM62.4216 68.41C62.0883 68.41 61.815 68.52 61.6016 68.74C61.395 68.9533 61.2716 69.2733 61.2316 69.7H63.5616C63.5616 69.4467 63.5183 69.2233 63.4316 69.03C63.3516 68.8367 63.2283 68.6867 63.0616 68.58C62.895 68.4667 62.6816 68.41 62.4216 68.41ZM70.9198 65.86C71.5398 65.86 72.0598 65.92 72.4798 66.04C72.8998 66.1533 73.2132 66.34 73.4198 66.6C73.6332 66.86 73.7398 67.21 73.7398 67.65C73.7398 67.9233 73.6932 68.17 73.5998 68.39C73.5065 68.61 73.3698 68.79 73.1898 68.93C73.0165 69.07 72.7998 69.1633 72.5398 69.21V69.26C72.8065 69.3067 73.0432 69.3933 73.2498 69.52C73.4632 69.64 73.6298 69.8167 73.7498 70.05C73.8765 70.2767 73.9398 70.5767 73.9398 70.95C73.9398 71.3833 73.8365 71.7533 73.6298 72.06C73.4232 72.3667 73.1265 72.6 72.7398 72.76C72.3598 72.92 71.9065 73 71.3798 73H68.7698V65.86H70.9198ZM71.0898 68.77C71.5965 68.77 71.9432 68.69 72.1298 68.53C72.3232 68.37 72.4198 68.1333 72.4198 67.82C72.4198 67.5 72.3065 67.27 72.0798 67.13C71.8532 66.99 71.4898 66.92 70.9898 66.92H70.0498V68.77H71.0898ZM70.0498 69.8V71.93H71.2098C71.7298 71.93 72.0898 71.83 72.2898 71.63C72.4965 71.43 72.5998 71.1633 72.5998 70.83C72.5998 70.6167 72.5565 70.4333 72.4698 70.28C72.3832 70.1267 72.2332 70.01 72.0198 69.93C71.8065 69.8433 71.5165 69.8 71.1498 69.8H70.0498ZM77.4505 67.48C78.1505 67.48 78.6805 67.6333 79.0405 67.94C79.4071 68.24 79.5905 68.7133 79.5905 69.36V73H78.7005L78.4505 72.25H78.4105C78.2571 72.4433 78.0971 72.6067 77.9305 72.74C77.7705 72.8667 77.5838 72.9567 77.3705 73.01C77.1638 73.07 76.9105 73.1 76.6105 73.1C76.2905 73.1 76.0005 73.04 75.7405 72.92C75.4871 72.8 75.2871 72.6167 75.1405 72.37C74.9938 72.1167 74.9205 71.8 74.9205 71.42C74.9205 70.86 75.1238 70.44 75.5305 70.16C75.9438 69.8733 76.5671 69.7167 77.4005 69.69L78.3405 69.66V69.39C78.3405 69.0433 78.2571 68.7967 78.0905 68.65C77.9238 68.5033 77.6905 68.43 77.3905 68.43C77.1171 68.43 76.8538 68.47 76.6005 68.55C76.3471 68.63 76.1005 68.7233 75.8605 68.83L75.4605 67.95C75.7271 67.81 76.0305 67.6967 76.3705 67.61C76.7171 67.5233 77.0771 67.48 77.4505 67.48ZM77.6805 70.46C77.1271 70.48 76.7438 70.5767 76.5305 70.75C76.3171 70.9167 76.2105 71.1433 76.2105 71.43C76.2105 71.6833 76.2871 71.8667 76.4405 71.98C76.5938 72.0933 76.7905 72.15 77.0305 72.15C77.3971 72.15 77.7071 72.0467 77.9605 71.84C78.2138 71.6267 78.3405 71.3133 78.3405 70.9V70.44L77.6805 70.46ZM84.0694 67.48C84.676 67.48 85.1494 67.6367 85.4894 67.95C85.836 68.2633 86.0094 68.77 86.0094 69.47V73H84.7494V69.72C84.7494 69.3133 84.6694 69.01 84.5094 68.81C84.3494 68.6033 84.096 68.5 83.7494 68.5C83.2427 68.5 82.896 68.66 82.7094 68.98C82.5227 69.2933 82.4294 69.75 82.4294 70.35V73H81.1694V67.58H82.1394L82.3194 68.29H82.3894C82.5094 68.1033 82.656 67.95 82.8294 67.83C83.0027 67.71 83.196 67.6233 83.4094 67.57C83.6227 67.51 83.8427 67.48 84.0694 67.48ZM88.8354 69.01C88.8354 69.1833 88.8287 69.3667 88.8154 69.56C88.8021 69.7467 88.7887 69.93 88.7754 70.11H88.8054C88.8587 70.03 88.9221 69.9433 88.9954 69.85C89.0687 69.75 89.1421 69.6533 89.2154 69.56C89.2954 69.46 89.3721 69.37 89.4454 69.29L91.0454 67.58H92.4754L90.3054 69.92L92.6154 73H91.1454L89.4654 70.68L88.8354 71.2V73H87.5854V65.4H88.8354V69.01ZM94.7243 67.58V73H93.4643V67.58H94.7243ZM94.0943 65.49C94.281 65.49 94.4443 65.54 94.5843 65.64C94.7243 65.7333 94.7943 65.9033 94.7943 66.15C94.7943 66.39 94.7243 66.5633 94.5843 66.67C94.4443 66.77 94.281 66.82 94.0943 66.82C93.901 66.82 93.7343 66.77 93.5943 66.67C93.461 66.5633 93.3943 66.39 93.3943 66.15C93.3943 65.9033 93.461 65.7333 93.5943 65.64C93.7343 65.54 93.901 65.49 94.0943 65.49ZM99.2354 67.48C99.8421 67.48 100.315 67.6367 100.655 67.95C101.002 68.2633 101.175 68.77 101.175 69.47V73H99.9154V69.72C99.9154 69.3133 99.8354 69.01 99.6754 68.81C99.5154 68.6033 99.2621 68.5 98.9154 68.5C98.4087 68.5 98.0621 68.66 97.8754 68.98C97.6887 69.2933 97.5954 69.75 97.5954 70.35V73H96.3354V67.58H97.3054L97.4854 68.29H97.5554C97.6754 68.1033 97.8221 67.95 97.9954 67.83C98.1687 67.71 98.3621 67.6233 98.5754 67.57C98.7887 67.51 99.0087 67.48 99.2354 67.48ZM104.571 67.48C104.911 67.48 105.218 67.5467 105.491 67.68C105.765 67.8133 105.995 68.0133 106.181 68.28H106.231L106.351 67.58H107.401V73.04C107.401 73.5533 107.305 73.9833 107.111 74.33C106.918 74.6833 106.628 74.95 106.241 75.13C105.855 75.31 105.371 75.4 104.791 75.4C104.405 75.4 104.048 75.3733 103.721 75.32C103.395 75.2733 103.085 75.19 102.791 75.07V74.03C102.998 74.1167 103.211 74.19 103.431 74.25C103.658 74.3167 103.891 74.3667 104.131 74.4C104.371 74.4333 104.618 74.45 104.871 74.45C105.285 74.45 105.598 74.3333 105.811 74.1C106.031 73.8667 106.141 73.5333 106.141 73.1V72.96C106.141 72.86 106.145 72.7433 106.151 72.61C106.165 72.4767 106.175 72.37 106.181 72.29H106.141C105.955 72.57 105.728 72.7767 105.461 72.91C105.195 73.0367 104.888 73.1 104.541 73.1C103.881 73.1 103.365 72.8533 102.991 72.36C102.618 71.8667 102.431 71.18 102.431 70.3C102.431 69.7067 102.515 69.2 102.681 68.78C102.855 68.36 103.101 68.04 103.421 67.82C103.741 67.5933 104.125 67.48 104.571 67.48ZM104.901 68.51C104.648 68.51 104.431 68.58 104.251 68.72C104.078 68.8533 103.945 69.0533 103.851 69.32C103.765 69.5867 103.721 69.92 103.721 70.32C103.721 70.9067 103.821 71.35 104.021 71.65C104.221 71.95 104.521 72.1 104.921 72.1C105.148 72.1 105.341 72.0733 105.501 72.02C105.661 71.96 105.791 71.8667 105.891 71.74C105.998 71.6067 106.078 71.44 106.131 71.24C106.185 71.0333 106.211 70.7867 106.211 70.5V70.31C106.211 69.8767 106.165 69.53 106.071 69.27C105.978 69.0033 105.835 68.81 105.641 68.69C105.455 68.57 105.208 68.51 104.901 68.51Z" fill="white"/>
<path d="M347 100C353.627 100 359 105.373 359 112V144C359 150.627 353.627 156 347 156H28C21.3726 156 16 150.627 16 144V112C16 105.373 21.3726 100 28 100H347Z" fill="#1A1A1A"/>
<path d="M347 100C353.627 100 359 105.373 359 112V144C359 150.627 353.627 156 347 156H28C21.3726 156 16 150.627 16 144V112C16 105.373 21.3726 100 28 100H347Z" stroke="#383838"/>
<path d="M44 140C50.6274 140 56 134.627 56 128C56 121.373 50.6274 116 44 116C37.3726 116 32 121.373 32 128C32 134.627 37.3726 140 44 140Z" fill="#6D1F80"/>
<path d="M44 122L39.644 125.946L38 132.381L41.111 133.847H43.587V131.272C43.587 131.272 39.238 133.567 40.372 128.426C41.021 126.507 42.2977 124.862 43.996 123.758C45.6953 124.861 46.9735 126.504 47.624 128.422C48.76 133.563 44.411 131.268 44.411 131.268V133.843H46.887L49.998 132.377L48.354 125.942L44 122Z" fill="#F9B200"/>
<path d="M78.604 129.465C78.604 130.011 78.4697 130.483 78.201 130.882C77.9323 131.281 77.5423 131.588 77.031 131.805C76.5283 132.022 75.926 132.13 75.224 132.13C74.886 132.13 74.561 132.108 74.249 132.065C73.9457 132.03 73.6553 131.974 73.378 131.896C73.1093 131.818 72.858 131.723 72.624 131.61V130.05C73.014 130.223 73.443 130.384 73.911 130.531C74.379 130.67 74.8557 130.739 75.341 130.739C75.7137 130.739 76.017 130.691 76.251 130.596C76.4937 130.492 76.6713 130.353 76.784 130.18C76.8967 129.998 76.953 129.79 76.953 129.556C76.953 129.296 76.8793 129.075 76.732 128.893C76.5847 128.711 76.368 128.542 76.082 128.386C75.796 128.23 75.4407 128.065 75.016 127.892C74.73 127.771 74.4483 127.636 74.171 127.489C73.9023 127.333 73.6597 127.147 73.443 126.93C73.2263 126.713 73.053 126.458 72.923 126.163C72.793 125.868 72.728 125.522 72.728 125.123C72.728 124.594 72.8537 124.139 73.105 123.758C73.365 123.377 73.7247 123.086 74.184 122.887C74.652 122.688 75.1937 122.588 75.809 122.588C76.303 122.588 76.7667 122.64 77.2 122.744C77.6333 122.848 78.0623 122.995 78.487 123.186L77.954 124.525C77.5727 124.36 77.2043 124.23 76.849 124.135C76.4937 124.04 76.1297 123.992 75.757 123.992C75.4623 123.992 75.211 124.04 75.003 124.135C74.795 124.222 74.639 124.347 74.535 124.512C74.431 124.677 74.379 124.867 74.379 125.084C74.379 125.335 74.444 125.548 74.574 125.721C74.704 125.894 74.9033 126.059 75.172 126.215C75.4493 126.362 75.8047 126.531 76.238 126.722C76.7407 126.939 77.1653 127.164 77.512 127.398C77.8587 127.632 78.1273 127.914 78.318 128.243C78.5087 128.572 78.604 128.98 78.604 129.465ZM81.8385 124.954V132H80.2005V124.954H81.8385ZM81.0195 122.237C81.2621 122.237 81.4745 122.302 81.6565 122.432C81.8385 122.553 81.9295 122.774 81.9295 123.095C81.9295 123.407 81.8385 123.632 81.6565 123.771C81.4745 123.901 81.2621 123.966 81.0195 123.966C80.7681 123.966 80.5515 123.901 80.3695 123.771C80.1961 123.632 80.1095 123.407 80.1095 123.095C80.1095 122.774 80.1961 122.553 80.3695 122.432C80.5515 122.302 80.7681 122.237 81.0195 122.237ZM86.7409 124.824C87.6509 124.824 88.3399 125.023 88.8079 125.422C89.2845 125.812 89.5229 126.427 89.5229 127.268V132H88.3659L88.0409 131.025H87.9889C87.7895 131.276 87.5815 131.489 87.3649 131.662C87.1569 131.827 86.9142 131.944 86.6369 132.013C86.3682 132.091 86.0389 132.13 85.6489 132.13C85.2329 132.13 84.8559 132.052 84.5179 131.896C84.1885 131.74 83.9285 131.502 83.7379 131.181C83.5472 130.852 83.4519 130.44 83.4519 129.946C83.4519 129.218 83.7162 128.672 84.2449 128.308C84.7822 127.935 85.5925 127.732 86.6759 127.697L87.8979 127.658V127.307C87.8979 126.856 87.7895 126.536 87.5729 126.345C87.3562 126.154 87.0529 126.059 86.6629 126.059C86.3075 126.059 85.9652 126.111 85.6359 126.215C85.3065 126.319 84.9859 126.44 84.6739 126.579L84.1539 125.435C84.5005 125.253 84.8949 125.106 85.3369 124.993C85.7875 124.88 86.2555 124.824 86.7409 124.824ZM87.0399 128.698C86.3205 128.724 85.8222 128.85 85.5449 129.075C85.2675 129.292 85.1289 129.586 85.1289 129.959C85.1289 130.288 85.2285 130.527 85.4279 130.674C85.6272 130.821 85.8829 130.895 86.1949 130.895C86.6715 130.895 87.0745 130.761 87.4039 130.492C87.7332 130.215 87.8979 129.807 87.8979 129.27V128.672L87.0399 128.698ZM99.6485 124.824C100.446 124.824 101.044 125.028 101.442 125.435C101.85 125.842 102.053 126.501 102.053 127.411V132H100.415V127.723C100.415 127.203 100.316 126.813 100.116 126.553C99.9258 126.284 99.6268 126.15 99.2195 126.15C98.6475 126.15 98.2401 126.336 97.9975 126.709C97.7548 127.082 97.6335 127.623 97.6335 128.334V132H95.9955V127.723C95.9955 127.376 95.9521 127.086 95.8655 126.852C95.7788 126.618 95.6445 126.445 95.4625 126.332C95.2891 126.211 95.0638 126.15 94.7865 126.15C94.3965 126.15 94.0845 126.245 93.8505 126.436C93.6165 126.618 93.4518 126.887 93.3565 127.242C93.2611 127.597 93.2135 128.035 93.2135 128.555V132H91.5755V124.954H92.8365L93.0705 125.877H93.1615C93.3088 125.634 93.4865 125.435 93.6945 125.279C93.9111 125.123 94.1495 125.01 94.4095 124.941C94.6781 124.863 94.9468 124.824 95.2155 124.824C95.7441 124.824 96.1905 124.915 96.5545 125.097C96.9185 125.27 97.1915 125.543 97.3735 125.916H97.5035C97.7201 125.535 98.0235 125.257 98.4135 125.084C98.8121 124.911 99.2238 124.824 99.6485 124.824ZM111.591 123.992C111.166 123.992 110.789 124.07 110.46 124.226C110.13 124.382 109.849 124.607 109.615 124.902C109.389 125.197 109.216 125.552 109.095 125.968C108.982 126.384 108.926 126.852 108.926 127.372C108.926 128.074 109.021 128.676 109.212 129.179C109.402 129.673 109.693 130.054 110.083 130.323C110.481 130.592 110.98 130.726 111.578 130.726C111.976 130.726 112.358 130.687 112.722 130.609C113.094 130.522 113.484 130.41 113.892 130.271V131.688C113.51 131.844 113.125 131.957 112.735 132.026C112.353 132.095 111.911 132.13 111.409 132.13C110.455 132.13 109.667 131.935 109.043 131.545C108.419 131.146 107.955 130.592 107.652 129.881C107.348 129.162 107.197 128.321 107.197 127.359C107.197 126.657 107.292 126.016 107.483 125.435C107.682 124.854 107.964 124.352 108.328 123.927C108.7 123.502 109.16 123.173 109.706 122.939C110.252 122.705 110.88 122.588 111.591 122.588C112.059 122.588 112.518 122.644 112.969 122.757C113.428 122.861 113.857 123.008 114.256 123.199L113.684 124.564C113.354 124.417 113.012 124.287 112.657 124.174C112.31 124.053 111.955 123.992 111.591 123.992ZM122.027 128.464C122.027 129.053 121.949 129.573 121.793 130.024C121.637 130.475 121.411 130.86 121.117 131.181C120.831 131.493 120.475 131.731 120.051 131.896C119.635 132.052 119.167 132.13 118.647 132.13C118.17 132.13 117.728 132.052 117.321 131.896C116.913 131.731 116.558 131.493 116.255 131.181C115.96 130.86 115.73 130.475 115.566 130.024C115.401 129.573 115.319 129.053 115.319 128.464C115.319 127.684 115.453 127.025 115.722 126.488C115.99 125.942 116.376 125.53 116.879 125.253C117.39 124.967 117.992 124.824 118.686 124.824C119.344 124.824 119.921 124.967 120.415 125.253C120.917 125.53 121.312 125.942 121.598 126.488C121.884 127.025 122.027 127.684 122.027 128.464ZM116.996 128.464C116.996 128.958 117.052 129.383 117.165 129.738C117.286 130.085 117.468 130.349 117.711 130.531C117.962 130.713 118.283 130.804 118.673 130.804C119.071 130.804 119.392 130.713 119.635 130.531C119.886 130.349 120.068 130.085 120.181 129.738C120.293 129.383 120.35 128.958 120.35 128.464C120.35 127.961 120.289 127.541 120.168 127.203C120.055 126.856 119.873 126.596 119.622 126.423C119.379 126.241 119.058 126.15 118.66 126.15C118.079 126.15 117.654 126.349 117.386 126.748C117.126 127.147 116.996 127.719 116.996 128.464ZM131.793 124.824C132.59 124.824 133.188 125.028 133.587 125.435C133.994 125.842 134.198 126.501 134.198 127.411V132H132.56V127.723C132.56 127.203 132.46 126.813 132.261 126.553C132.07 126.284 131.771 126.15 131.364 126.15C130.792 126.15 130.385 126.336 130.142 126.709C129.899 127.082 129.778 127.623 129.778 128.334V132H128.14V127.723C128.14 127.376 128.097 127.086 128.01 126.852C127.923 126.618 127.789 126.445 127.607 126.332C127.434 126.211 127.208 126.15 126.931 126.15C126.541 126.15 126.229 126.245 125.995 126.436C125.761 126.618 125.596 126.887 125.501 127.242C125.406 127.597 125.358 128.035 125.358 128.555V132H123.72V124.954H124.981L125.215 125.877H125.306C125.453 125.634 125.631 125.435 125.839 125.279C126.056 125.123 126.294 125.01 126.554 124.941C126.823 124.863 127.091 124.824 127.36 124.824C127.889 124.824 128.335 124.915 128.699 125.097C129.063 125.27 129.336 125.543 129.518 125.916H129.648C129.865 125.535 130.168 125.257 130.558 125.084C130.957 124.911 131.368 124.824 131.793 124.824ZM144.323 124.824C145.121 124.824 145.719 125.028 146.117 125.435C146.525 125.842 146.728 126.501 146.728 127.411V132H145.09V127.723C145.09 127.203 144.991 126.813 144.791 126.553C144.601 126.284 144.302 126.15 143.894 126.15C143.322 126.15 142.915 126.336 142.672 126.709C142.43 127.082 142.308 127.623 142.308 128.334V132H140.67V127.723C140.67 127.376 140.627 127.086 140.54 126.852C140.454 126.618 140.319 126.445 140.137 126.332C139.964 126.211 139.739 126.15 139.461 126.15C139.071 126.15 138.759 126.245 138.525 126.436C138.291 126.618 138.127 126.887 138.031 127.242C137.936 127.597 137.888 128.035 137.888 128.555V132H136.25V124.954H137.511L137.745 125.877H137.836C137.984 125.634 138.161 125.435 138.369 125.279C138.586 125.123 138.824 125.01 139.084 124.941C139.353 124.863 139.622 124.824 139.89 124.824C140.419 124.824 140.865 124.915 141.229 125.097C141.593 125.27 141.866 125.543 142.048 125.916H142.178C142.395 125.535 142.698 125.257 143.088 125.084C143.487 124.911 143.899 124.824 144.323 124.824ZM151.615 124.824C152.247 124.824 152.789 124.954 153.24 125.214C153.699 125.465 154.054 125.829 154.306 126.306C154.557 126.774 154.683 127.346 154.683 128.022V128.854H150.029C150.046 129.495 150.224 129.994 150.562 130.349C150.9 130.696 151.368 130.869 151.966 130.869C152.425 130.869 152.832 130.826 153.188 130.739C153.552 130.644 153.924 130.509 154.306 130.336V131.649C153.959 131.814 153.599 131.935 153.227 132.013C152.854 132.091 152.408 132.13 151.888 132.13C151.203 132.13 150.592 132 150.055 131.74C149.526 131.471 149.11 131.068 148.807 130.531C148.512 129.994 148.365 129.326 148.365 128.529C148.365 127.723 148.499 127.047 148.768 126.501C149.045 125.946 149.426 125.53 149.912 125.253C150.397 124.967 150.965 124.824 151.615 124.824ZM151.615 126.033C151.181 126.033 150.826 126.176 150.549 126.462C150.28 126.739 150.12 127.155 150.068 127.71H153.097C153.097 127.381 153.04 127.09 152.928 126.839C152.824 126.588 152.663 126.393 152.447 126.254C152.23 126.107 151.953 126.033 151.615 126.033ZM160.026 124.824C160.13 124.824 160.252 124.828 160.39 124.837C160.529 124.846 160.646 124.863 160.741 124.889L160.598 126.41C160.52 126.393 160.416 126.38 160.286 126.371C160.165 126.354 160.057 126.345 159.961 126.345C159.701 126.345 159.45 126.388 159.207 126.475C158.973 126.553 158.761 126.674 158.57 126.839C158.388 126.995 158.241 127.199 158.128 127.45C158.024 127.701 157.972 128 157.972 128.347V132H156.334V124.954H157.595L157.829 126.176H157.907C158.046 125.925 158.219 125.699 158.427 125.5C158.635 125.292 158.874 125.127 159.142 125.006C159.42 124.885 159.714 124.824 160.026 124.824ZM164.64 132.13C163.973 132.13 163.392 132.004 162.898 131.753C162.413 131.493 162.036 131.099 161.767 130.57C161.507 130.033 161.377 129.348 161.377 128.516C161.377 127.649 161.52 126.947 161.806 126.41C162.101 125.864 162.504 125.465 163.015 125.214C163.527 124.954 164.112 124.824 164.77 124.824C165.212 124.824 165.607 124.867 165.953 124.954C166.3 125.041 166.595 125.145 166.837 125.266L166.356 126.553C166.088 126.449 165.819 126.362 165.55 126.293C165.282 126.215 165.022 126.176 164.77 126.176C164.38 126.176 164.055 126.263 163.795 126.436C163.544 126.609 163.358 126.869 163.236 127.216C163.115 127.554 163.054 127.983 163.054 128.503C163.054 129.006 163.115 129.426 163.236 129.764C163.366 130.102 163.557 130.358 163.808 130.531C164.06 130.696 164.372 130.778 164.744 130.778C165.143 130.778 165.494 130.73 165.797 130.635C166.101 130.54 166.387 130.41 166.655 130.245V131.662C166.387 131.827 166.096 131.944 165.784 132.013C165.481 132.091 165.1 132.13 164.64 132.13ZM169.944 124.954V132H168.306V124.954H169.944ZM169.125 122.237C169.368 122.237 169.58 122.302 169.762 122.432C169.944 122.553 170.035 122.774 170.035 123.095C170.035 123.407 169.944 123.632 169.762 123.771C169.58 123.901 169.368 123.966 169.125 123.966C168.874 123.966 168.657 123.901 168.475 123.771C168.302 123.632 168.215 123.407 168.215 123.095C168.215 122.774 168.302 122.553 168.475 122.432C168.657 122.302 168.874 122.237 169.125 122.237ZM174.846 124.824C175.756 124.824 176.445 125.023 176.913 125.422C177.39 125.812 177.628 126.427 177.628 127.268V132H176.471L176.146 131.025H176.094C175.895 131.276 175.687 131.489 175.47 131.662C175.262 131.827 175.02 131.944 174.742 132.013C174.474 132.091 174.144 132.13 173.754 132.13C173.338 132.13 172.961 132.052 172.623 131.896C172.294 131.74 172.034 131.502 171.843 131.181C171.653 130.852 171.557 130.44 171.557 129.946C171.557 129.218 171.822 128.672 172.35 128.308C172.888 127.935 173.698 127.732 174.781 127.697L176.003 127.658V127.307C176.003 126.856 175.895 126.536 175.678 126.345C175.462 126.154 175.158 126.059 174.768 126.059C174.413 126.059 174.071 126.111 173.741 126.215C173.412 126.319 173.091 126.44 172.779 126.579L172.259 125.435C172.606 125.253 173 125.106 173.442 124.993C173.893 124.88 174.361 124.824 174.846 124.824ZM175.145 128.698C174.426 128.724 173.928 128.85 173.65 129.075C173.373 129.292 173.234 129.586 173.234 129.959C173.234 130.288 173.334 130.527 173.533 130.674C173.733 130.821 173.988 130.895 174.3 130.895C174.777 130.895 175.18 130.761 175.509 130.492C175.839 130.215 176.003 129.807 176.003 129.27V128.672L175.145 128.698ZM181.319 132H179.681V122.12H181.319V132ZM189.741 122.718C190.946 122.718 191.856 122.891 192.471 123.238C193.095 123.585 193.407 124.187 193.407 125.045C193.407 125.4 193.347 125.721 193.225 126.007C193.104 126.293 192.926 126.527 192.692 126.709C192.467 126.891 192.185 127.012 191.847 127.073V127.138C192.194 127.199 192.502 127.311 192.77 127.476C193.048 127.632 193.264 127.862 193.42 128.165C193.585 128.46 193.667 128.85 193.667 129.335C193.667 129.898 193.533 130.379 193.264 130.778C192.996 131.177 192.61 131.48 192.107 131.688C191.613 131.896 191.024 132 190.339 132H186.946V122.718H189.741ZM189.962 126.501C190.621 126.501 191.072 126.397 191.314 126.189C191.566 125.981 191.691 125.673 191.691 125.266C191.691 124.85 191.544 124.551 191.249 124.369C190.955 124.187 190.482 124.096 189.832 124.096H188.61V126.501H189.962ZM188.61 127.84V130.609H190.118C190.794 130.609 191.262 130.479 191.522 130.219C191.791 129.959 191.925 129.612 191.925 129.179C191.925 128.902 191.869 128.663 191.756 128.464C191.644 128.265 191.449 128.113 191.171 128.009C190.894 127.896 190.517 127.84 190.04 127.84H188.61ZM198.231 124.824C199.141 124.824 199.83 125.023 200.298 125.422C200.775 125.812 201.013 126.427 201.013 127.268V132H199.856L199.531 131.025H199.479C199.28 131.276 199.072 131.489 198.855 131.662C198.647 131.827 198.404 131.944 198.127 132.013C197.858 132.091 197.529 132.13 197.139 132.13C196.723 132.13 196.346 132.052 196.008 131.896C195.679 131.74 195.419 131.502 195.228 131.181C195.037 130.852 194.942 130.44 194.942 129.946C194.942 129.218 195.206 128.672 195.735 128.308C196.272 127.935 197.083 127.732 198.166 127.697L199.388 127.658V127.307C199.388 126.856 199.28 126.536 199.063 126.345C198.846 126.154 198.543 126.059 198.153 126.059C197.798 126.059 197.455 126.111 197.126 126.215C196.797 126.319 196.476 126.44 196.164 126.579L195.644 125.435C195.991 125.253 196.385 125.106 196.827 124.993C197.278 124.88 197.746 124.824 198.231 124.824ZM198.53 128.698C197.811 128.724 197.312 128.85 197.035 129.075C196.758 129.292 196.619 129.586 196.619 129.959C196.619 130.288 196.719 130.527 196.918 130.674C197.117 130.821 197.373 130.895 197.685 130.895C198.162 130.895 198.565 130.761 198.894 130.492C199.223 130.215 199.388 129.807 199.388 129.27V128.672L198.53 128.698ZM206.836 124.824C207.624 124.824 208.24 125.028 208.682 125.435C209.132 125.842 209.358 126.501 209.358 127.411V132H207.72V127.736C207.72 127.207 207.616 126.813 207.408 126.553C207.2 126.284 206.87 126.15 206.42 126.15C205.761 126.15 205.31 126.358 205.068 126.774C204.825 127.181 204.704 127.775 204.704 128.555V132H203.066V124.954H204.327L204.561 125.877H204.652C204.808 125.634 204.998 125.435 205.224 125.279C205.449 125.123 205.7 125.01 205.978 124.941C206.255 124.863 206.541 124.824 206.836 124.824ZM213.032 126.813C213.032 127.038 213.023 127.277 213.006 127.528C212.988 127.771 212.971 128.009 212.954 128.243H212.993C213.062 128.139 213.144 128.026 213.24 127.905C213.335 127.775 213.43 127.649 213.526 127.528C213.63 127.398 213.729 127.281 213.825 127.177L215.905 124.954H217.764L214.943 127.996L217.946 132H216.035L213.851 128.984L213.032 129.66V132H211.407V122.12H213.032V126.813Z" fill="white"/>
<path d="M347 172C353.627 172 359 177.373 359 184V216C359 222.627 353.627 228 347 228H28C21.3726 228 16 222.627 16 216V184C16 177.373 21.3726 172 28 172H347Z" fill="#1A1A1A"/>
<path d="M347 172C353.627 172 359 177.373 359 184V216C359 222.627 353.627 228 347 228H28C21.3726 228 16 222.627 16 216V184C16 177.373 21.3726 172 28 172H347Z" stroke="#383838"/>
<path d="M44 212C50.6274 212 56 206.627 56 200C56 193.373 50.6274 188 44 188C37.3726 188 32 193.373 32 200C32 206.627 37.3726 212 44 212Z" fill="#0064FF"/>
<path d="M48.3924 200.42C48.2682 199.999 48.0901 199.595 47.8624 199.22C47.7784 199.086 47.6694 198.935 47.5714 198.776C46.4474 197.102 44.2294 194.202 44.0264 194.011C44.0192 194.005 44.0106 194.001 44.0014 194C43.9916 194.001 43.9822 194.005 43.9744 194.011C43.7744 194.198 41.5544 197.111 40.4294 198.774C40.3294 198.933 40.2234 199.084 40.1384 199.218C39.9115 199.594 39.7337 199.997 39.6094 200.418C39.4715 201.069 39.4651 201.741 39.5904 202.394C39.8032 203.007 40.2052 203.536 40.7384 203.906L41.5324 204.537C41.5324 204.537 43.7524 206.137 43.9584 206.237C43.9716 206.245 43.9868 206.25 44.0024 206.251C44.0174 206.25 44.0319 206.245 44.0444 206.237C44.2514 206.137 46.4694 204.537 46.4694 204.537L47.2634 203.906C47.7945 203.537 48.1947 203.008 48.4064 202.397C48.5324 201.744 48.5263 201.072 48.3884 200.421L48.3924 200.42ZM43.3064 204.595C43.2904 204.619 43.2544 204.611 43.2294 204.609C43.0994 204.518 42.7784 204.285 42.7784 204.285C42.2254 203.875 41.6684 203.497 41.1384 203.076C40.8135 202.719 40.596 202.278 40.5109 201.803C40.4258 201.328 40.4766 200.838 40.6574 200.391C40.6664 200.333 40.6934 200.246 40.7694 200.23C40.9984 200.568 41.4844 201.265 41.4844 201.265C41.9574 201.945 42.5324 202.558 43.0754 203.196C43.4484 203.539 43.2974 204.114 43.3074 204.596L43.3064 204.595ZM44.0074 202.822C43.9896 202.819 43.9733 202.811 43.9614 202.797C43.2614 201.964 42.4614 201.022 41.7614 200.185C41.6139 199.982 41.5209 199.745 41.4914 199.496C41.4585 199.259 41.5137 199.018 41.6464 198.819C41.6464 198.819 41.7634 198.65 41.7964 198.6C41.7964 198.6 43.2314 196.583 43.9864 195.627C43.9892 195.623 43.9927 195.62 43.9966 195.618C44.0006 195.616 44.0049 195.615 44.0094 195.614C44.0204 195.614 44.0294 195.627 44.0294 195.627C44.7844 196.583 46.2194 198.6 46.2194 198.6L46.3704 198.819C46.5028 199.018 46.5573 199.259 46.5234 199.496C46.4941 199.745 46.4015 199.982 46.2544 200.185C45.5544 201.022 44.7544 201.964 44.0544 202.797C44.0436 202.81 44.0288 202.819 44.0124 202.822H44.0074ZM46.8704 203.077C46.3404 203.498 45.7824 203.877 45.2294 204.286C45.2294 204.286 44.9084 204.519 44.7784 204.61C44.7524 204.61 44.7164 204.62 44.7014 204.596C44.7114 204.115 44.5604 203.54 44.9334 203.196C45.4764 202.558 46.0504 201.945 46.5234 201.265C46.5234 201.265 47.0094 200.565 47.2394 200.23C47.3144 200.245 47.3394 200.33 47.3514 200.391C47.5325 200.838 47.5834 201.328 47.4983 201.803C47.4132 202.278 47.1955 202.719 46.8704 203.076" fill="white"/>
<path d="M76.004 194.718C77.2087 194.718 78.1187 194.891 78.734 195.238C79.358 195.585 79.67 196.187 79.67 197.045C79.67 197.4 79.6093 197.721 79.488 198.007C79.3667 198.293 79.189 198.527 78.955 198.709C78.7297 198.891 78.448 199.012 78.11 199.073V199.138C78.4567 199.199 78.7643 199.311 79.033 199.476C79.3103 199.632 79.527 199.862 79.683 200.165C79.8477 200.46 79.93 200.85 79.93 201.335C79.93 201.898 79.7957 202.379 79.527 202.778C79.2583 203.177 78.8727 203.48 78.37 203.688C77.876 203.896 77.2867 204 76.602 204H73.209V194.718H76.004ZM76.225 198.501C76.8837 198.501 77.3343 198.397 77.577 198.189C77.8283 197.981 77.954 197.673 77.954 197.266C77.954 196.85 77.8067 196.551 77.512 196.369C77.2173 196.187 76.745 196.096 76.095 196.096H74.873V198.501H76.225ZM74.873 199.84V202.609H76.381C77.057 202.609 77.525 202.479 77.785 202.219C78.0537 201.959 78.188 201.612 78.188 201.179C78.188 200.902 78.1317 200.663 78.019 200.464C77.9063 200.265 77.7113 200.113 77.434 200.009C77.1567 199.896 76.7797 199.84 76.303 199.84H74.873ZM84.4938 196.824C85.4038 196.824 86.0928 197.023 86.5608 197.422C87.0375 197.812 87.2758 198.427 87.2758 199.268V204H86.1188L85.7938 203.025H85.7418C85.5425 203.276 85.3345 203.489 85.1178 203.662C84.9098 203.827 84.6671 203.944 84.3898 204.013C84.1211 204.091 83.7918 204.13 83.4018 204.13C82.9858 204.13 82.6088 204.052 82.2708 203.896C81.9415 203.74 81.6815 203.502 81.4908 203.181C81.3001 202.852 81.2048 202.44 81.2048 201.946C81.2048 201.218 81.4691 200.672 81.9978 200.308C82.5351 199.935 83.3455 199.732 84.4288 199.697L85.6508 199.658V199.307C85.6508 198.856 85.5425 198.536 85.3258 198.345C85.1091 198.154 84.8058 198.059 84.4158 198.059C84.0605 198.059 83.7181 198.111 83.3888 198.215C83.0595 198.319 82.7388 198.44 82.4268 198.579L81.9068 197.435C82.2535 197.253 82.6478 197.106 83.0898 196.993C83.5405 196.88 84.0085 196.824 84.4938 196.824ZM84.7928 200.698C84.0735 200.724 83.5751 200.85 83.2978 201.075C83.0205 201.292 82.8818 201.586 82.8818 201.959C82.8818 202.288 82.9815 202.527 83.1808 202.674C83.3801 202.821 83.6358 202.895 83.9478 202.895C84.4245 202.895 84.8275 202.761 85.1568 202.492C85.4861 202.215 85.6508 201.807 85.6508 201.27V200.672L84.7928 200.698ZM93.0984 196.824C93.8871 196.824 94.5024 197.028 94.9444 197.435C95.3951 197.842 95.6204 198.501 95.6204 199.411V204H93.9824V199.736C93.9824 199.207 93.8784 198.813 93.6704 198.553C93.4624 198.284 93.1331 198.15 92.6824 198.15C92.0237 198.15 91.5731 198.358 91.3304 198.774C91.0877 199.181 90.9664 199.775 90.9664 200.555V204H89.3284V196.954H90.5894L90.8234 197.877H90.9144C91.0704 197.634 91.2611 197.435 91.4864 197.279C91.7117 197.123 91.9631 197.01 92.2404 196.941C92.5177 196.863 92.8037 196.824 93.0984 196.824ZM100.035 196.824C100.477 196.824 100.876 196.911 101.231 197.084C101.587 197.257 101.886 197.517 102.128 197.864H102.193L102.349 196.954H103.714V204.052C103.714 204.719 103.589 205.278 103.337 205.729C103.086 206.188 102.709 206.535 102.206 206.769C101.704 207.003 101.075 207.12 100.321 207.12C99.8185 207.12 99.3549 207.085 98.9302 207.016C98.5055 206.955 98.1025 206.847 97.7212 206.691V205.339C98.1199 205.512 98.5445 205.647 98.9952 205.742C99.4545 205.837 99.9312 205.885 100.425 205.885C100.963 205.885 101.37 205.733 101.647 205.43C101.933 205.127 102.076 204.693 102.076 204.13V203.948C102.076 203.818 102.081 203.666 102.089 203.493C102.107 203.32 102.12 203.181 102.128 203.077H102.076C101.834 203.441 101.539 203.71 101.192 203.883C100.846 204.048 100.447 204.13 99.9962 204.13C99.1382 204.13 98.4665 203.809 97.9812 203.168C97.4959 202.527 97.2532 201.634 97.2532 200.49C97.2532 199.346 97.5002 198.449 97.9942 197.799C98.4882 197.149 99.1685 196.824 100.035 196.824ZM100.464 198.163C100.135 198.163 99.8532 198.254 99.6192 198.436C99.3939 198.609 99.2205 198.869 99.0992 199.216C98.9865 199.563 98.9302 199.996 98.9302 200.516C98.9302 201.279 99.0602 201.855 99.3202 202.245C99.5802 202.635 99.9702 202.83 100.49 202.83C100.785 202.83 101.036 202.795 101.244 202.726C101.452 202.648 101.621 202.527 101.751 202.362C101.89 202.189 101.994 201.972 102.063 201.712C102.133 201.443 102.167 201.123 102.167 200.75V200.503C102.167 199.94 102.107 199.489 101.985 199.151C101.864 198.804 101.678 198.553 101.426 198.397C101.184 198.241 100.863 198.163 100.464 198.163ZM107.432 198.813C107.432 199.038 107.423 199.277 107.406 199.528C107.389 199.771 107.371 200.009 107.354 200.243H107.393C107.462 200.139 107.545 200.026 107.64 199.905C107.735 199.775 107.831 199.649 107.926 199.528C108.03 199.398 108.13 199.281 108.225 199.177L110.305 196.954H112.164L109.343 199.996L112.346 204H110.435L108.251 200.984L107.432 201.66V204H105.807V194.12H107.432V198.813ZM119.741 200.464C119.741 201.053 119.663 201.573 119.507 202.024C119.351 202.475 119.126 202.86 118.831 203.181C118.545 203.493 118.19 203.731 117.765 203.896C117.349 204.052 116.881 204.13 116.361 204.13C115.885 204.13 115.443 204.052 115.035 203.896C114.628 203.731 114.273 203.493 113.969 203.181C113.675 202.86 113.445 202.475 113.28 202.024C113.116 201.573 113.033 201.053 113.033 200.464C113.033 199.684 113.168 199.025 113.436 198.488C113.705 197.942 114.091 197.53 114.593 197.253C115.105 196.967 115.707 196.824 116.4 196.824C117.059 196.824 117.635 196.967 118.129 197.253C118.632 197.53 119.026 197.942 119.312 198.488C119.598 199.025 119.741 199.684 119.741 200.464ZM114.71 200.464C114.71 200.958 114.767 201.383 114.879 201.738C115.001 202.085 115.183 202.349 115.425 202.531C115.677 202.713 115.997 202.804 116.387 202.804C116.786 202.804 117.107 202.713 117.349 202.531C117.601 202.349 117.783 202.085 117.895 201.738C118.008 201.383 118.064 200.958 118.064 200.464C118.064 199.961 118.004 199.541 117.882 199.203C117.77 198.856 117.588 198.596 117.336 198.423C117.094 198.241 116.773 198.15 116.374 198.15C115.794 198.15 115.369 198.349 115.1 198.748C114.84 199.147 114.71 199.719 114.71 200.464ZM123.06 198.813C123.06 199.038 123.051 199.277 123.034 199.528C123.017 199.771 122.999 200.009 122.982 200.243H123.021C123.09 200.139 123.173 200.026 123.268 199.905C123.363 199.775 123.459 199.649 123.554 199.528C123.658 199.398 123.758 199.281 123.853 199.177L125.933 196.954H127.792L124.971 199.996L127.974 204H126.063L123.879 200.984L123.06 201.66V204H121.435V194.12H123.06V198.813ZM135.405 194.718C136.61 194.718 137.52 194.891 138.135 195.238C138.759 195.585 139.071 196.187 139.071 197.045C139.071 197.4 139.011 197.721 138.889 198.007C138.768 198.293 138.59 198.527 138.356 198.709C138.131 198.891 137.849 199.012 137.511 199.073V199.138C137.858 199.199 138.166 199.311 138.434 199.476C138.712 199.632 138.928 199.862 139.084 200.165C139.249 200.46 139.331 200.85 139.331 201.335C139.331 201.898 139.197 202.379 138.928 202.778C138.66 203.177 138.274 203.48 137.771 203.688C137.277 203.896 136.688 204 136.003 204H132.61V194.718H135.405ZM135.626 198.501C136.285 198.501 136.736 198.397 136.978 198.189C137.23 197.981 137.355 197.673 137.355 197.266C137.355 196.85 137.208 196.551 136.913 196.369C136.619 196.187 136.146 196.096 135.496 196.096H134.274V198.501H135.626ZM134.274 199.84V202.609H135.782C136.458 202.609 136.926 202.479 137.186 202.219C137.455 201.959 137.589 201.612 137.589 201.179C137.589 200.902 137.533 200.663 137.42 200.464C137.308 200.265 137.113 200.113 136.835 200.009C136.558 199.896 136.181 199.84 135.704 199.84H134.274ZM143.895 196.824C144.805 196.824 145.494 197.023 145.962 197.422C146.439 197.812 146.677 198.427 146.677 199.268V204H145.52L145.195 203.025H145.143C144.944 203.276 144.736 203.489 144.519 203.662C144.311 203.827 144.069 203.944 143.791 204.013C143.523 204.091 143.193 204.13 142.803 204.13C142.387 204.13 142.01 204.052 141.672 203.896C141.343 203.74 141.083 203.502 140.892 203.181C140.702 202.852 140.606 202.44 140.606 201.946C140.606 201.218 140.871 200.672 141.399 200.308C141.937 199.935 142.747 199.732 143.83 199.697L145.052 199.658V199.307C145.052 198.856 144.944 198.536 144.727 198.345C144.511 198.154 144.207 198.059 143.817 198.059C143.462 198.059 143.12 198.111 142.79 198.215C142.461 198.319 142.14 198.44 141.828 198.579L141.308 197.435C141.655 197.253 142.049 197.106 142.491 196.993C142.942 196.88 143.41 196.824 143.895 196.824ZM144.194 200.698C143.475 200.724 142.977 200.85 142.699 201.075C142.422 201.292 142.283 201.586 142.283 201.959C142.283 202.288 142.383 202.527 142.582 202.674C142.782 202.821 143.037 202.895 143.349 202.895C143.826 202.895 144.229 202.761 144.558 202.492C144.888 202.215 145.052 201.807 145.052 201.27V200.672L144.194 200.698ZM152.5 196.824C153.288 196.824 153.904 197.028 154.346 197.435C154.796 197.842 155.022 198.501 155.022 199.411V204H153.384V199.736C153.384 199.207 153.28 198.813 153.072 198.553C152.864 198.284 152.534 198.15 152.084 198.15C151.425 198.15 150.974 198.358 150.732 198.774C150.489 199.181 150.368 199.775 150.368 200.555V204H148.73V196.954H149.991L150.225 197.877H150.316C150.472 197.634 150.662 197.435 150.888 197.279C151.113 197.123 151.364 197.01 151.642 196.941C151.919 196.863 152.205 196.824 152.5 196.824ZM158.696 198.813C158.696 199.038 158.687 199.277 158.67 199.528C158.652 199.771 158.635 200.009 158.618 200.243H158.657C158.726 200.139 158.808 200.026 158.904 199.905C158.999 199.775 159.094 199.649 159.19 199.528C159.294 199.398 159.393 199.281 159.489 199.177L161.569 196.954H163.428L160.607 199.996L163.61 204H161.699L159.515 200.984L158.696 201.66V204H157.071V194.12H158.696V198.813ZM172.237 204L169.689 196.395H169.637C169.646 196.568 169.659 196.815 169.676 197.136C169.693 197.448 169.706 197.79 169.715 198.163C169.732 198.527 169.741 198.869 169.741 199.19V204H168.246V194.718H170.56L173.004 202.011H173.056L175.604 194.718H177.918V204H176.332V199.112C176.332 198.817 176.336 198.497 176.345 198.15C176.362 197.795 176.375 197.461 176.384 197.149C176.401 196.828 176.414 196.581 176.423 196.408H176.371L173.719 204H172.237ZM186.455 200.464C186.455 201.053 186.377 201.573 186.221 202.024C186.065 202.475 185.84 202.86 185.545 203.181C185.259 203.493 184.904 203.731 184.479 203.896C184.063 204.052 183.595 204.13 183.075 204.13C182.599 204.13 182.157 204.052 181.749 203.896C181.342 203.731 180.987 203.493 180.683 203.181C180.389 202.86 180.159 202.475 179.994 202.024C179.83 201.573 179.747 201.053 179.747 200.464C179.747 199.684 179.882 199.025 180.15 198.488C180.419 197.942 180.805 197.53 181.307 197.253C181.819 196.967 182.421 196.824 183.114 196.824C183.773 196.824 184.349 196.967 184.843 197.253C185.346 197.53 185.74 197.942 186.026 198.488C186.312 199.025 186.455 199.684 186.455 200.464ZM181.424 200.464C181.424 200.958 181.481 201.383 181.593 201.738C181.715 202.085 181.897 202.349 182.139 202.531C182.391 202.713 182.711 202.804 183.101 202.804C183.5 202.804 183.821 202.713 184.063 202.531C184.315 202.349 184.497 202.085 184.609 201.738C184.722 201.383 184.778 200.958 184.778 200.464C184.778 199.961 184.718 199.541 184.596 199.203C184.484 198.856 184.302 198.596 184.05 198.423C183.808 198.241 183.487 198.15 183.088 198.15C182.508 198.15 182.083 198.349 181.814 198.748C181.554 199.147 181.424 199.719 181.424 200.464ZM189.787 196.46C189.787 196.737 189.778 197.006 189.761 197.266C189.743 197.526 189.726 197.73 189.709 197.877H189.787C189.977 197.582 190.237 197.335 190.567 197.136C190.896 196.928 191.325 196.824 191.854 196.824C192.677 196.824 193.34 197.132 193.843 197.747C194.345 198.362 194.597 199.268 194.597 200.464C194.597 201.27 194.48 201.946 194.246 202.492C194.02 203.038 193.695 203.45 193.271 203.727C192.855 203.996 192.369 204.13 191.815 204.13C191.286 204.13 190.861 204.035 190.541 203.844C190.229 203.653 189.977 203.432 189.787 203.181H189.67L189.371 204H188.149V194.12H189.787V196.46ZM191.386 198.15C190.987 198.15 190.671 198.228 190.437 198.384C190.211 198.54 190.047 198.778 189.943 199.099C189.839 199.42 189.787 199.827 189.787 200.321V200.464C189.787 201.218 189.899 201.794 190.125 202.193C190.359 202.592 190.788 202.791 191.412 202.791C191.897 202.791 192.27 202.592 192.53 202.193C192.79 201.786 192.92 201.205 192.92 200.451C192.92 199.688 192.785 199.116 192.517 198.735C192.257 198.345 191.88 198.15 191.386 198.15ZM197.924 196.954V204H196.286V196.954H197.924ZM197.105 194.237C197.348 194.237 197.56 194.302 197.742 194.432C197.924 194.553 198.015 194.774 198.015 195.095C198.015 195.407 197.924 195.632 197.742 195.771C197.56 195.901 197.348 195.966 197.105 195.966C196.854 195.966 196.637 195.901 196.455 195.771C196.282 195.632 196.195 195.407 196.195 195.095C196.195 194.774 196.282 194.553 196.455 194.432C196.637 194.302 196.854 194.237 197.105 194.237ZM201.657 204H200.019V194.12H201.657V204ZM206.585 196.824C207.218 196.824 207.76 196.954 208.21 197.214C208.67 197.465 209.025 197.829 209.276 198.306C209.528 198.774 209.653 199.346 209.653 200.022V200.854H204.999C205.017 201.495 205.194 201.994 205.532 202.349C205.87 202.696 206.338 202.869 206.936 202.869C207.396 202.869 207.803 202.826 208.158 202.739C208.522 202.644 208.895 202.509 209.276 202.336V203.649C208.93 203.814 208.57 203.935 208.197 204.013C207.825 204.091 207.378 204.13 206.858 204.13C206.174 204.13 205.563 204 205.025 203.74C204.497 203.471 204.081 203.068 203.777 202.531C203.483 201.994 203.335 201.326 203.335 200.529C203.335 199.723 203.47 199.047 203.738 198.501C204.016 197.946 204.397 197.53 204.882 197.253C205.368 196.967 205.935 196.824 206.585 196.824ZM206.585 198.033C206.152 198.033 205.797 198.176 205.519 198.462C205.251 198.739 205.09 199.155 205.038 199.71H208.067C208.067 199.381 208.011 199.09 207.898 198.839C207.794 198.588 207.634 198.393 207.417 198.254C207.201 198.107 206.923 198.033 206.585 198.033ZM217.633 194.718C218.838 194.718 219.748 194.891 220.363 195.238C220.987 195.585 221.299 196.187 221.299 197.045C221.299 197.4 221.238 197.721 221.117 198.007C220.996 198.293 220.818 198.527 220.584 198.709C220.359 198.891 220.077 199.012 219.739 199.073V199.138C220.086 199.199 220.393 199.311 220.662 199.476C220.939 199.632 221.156 199.862 221.312 200.165C221.477 200.46 221.559 200.85 221.559 201.335C221.559 201.898 221.425 202.379 221.156 202.778C220.887 203.177 220.502 203.48 219.999 203.688C219.505 203.896 218.916 204 218.231 204H214.838V194.718H217.633ZM217.854 198.501C218.513 198.501 218.963 198.397 219.206 198.189C219.457 197.981 219.583 197.673 219.583 197.266C219.583 196.85 219.436 196.551 219.141 196.369C218.846 196.187 218.374 196.096 217.724 196.096H216.502V198.501H217.854ZM216.502 199.84V202.609H218.01C218.686 202.609 219.154 202.479 219.414 202.219C219.683 201.959 219.817 201.612 219.817 201.179C219.817 200.902 219.761 200.663 219.648 200.464C219.535 200.265 219.34 200.113 219.063 200.009C218.786 199.896 218.409 199.84 217.932 199.84H216.502ZM226.123 196.824C227.033 196.824 227.722 197.023 228.19 197.422C228.666 197.812 228.905 198.427 228.905 199.268V204H227.748L227.423 203.025H227.371C227.171 203.276 226.963 203.489 226.747 203.662C226.539 203.827 226.296 203.944 226.019 204.013C225.75 204.091 225.421 204.13 225.031 204.13C224.615 204.13 224.238 204.052 223.9 203.896C223.57 203.74 223.31 203.502 223.12 203.181C222.929 202.852 222.834 202.44 222.834 201.946C222.834 201.218 223.098 200.672 223.627 200.308C224.164 199.935 224.974 199.732 226.058 199.697L227.28 199.658V199.307C227.28 198.856 227.171 198.536 226.955 198.345C226.738 198.154 226.435 198.059 226.045 198.059C225.689 198.059 225.347 198.111 225.018 198.215C224.688 198.319 224.368 198.44 224.056 198.579L223.536 197.435C223.882 197.253 224.277 197.106 224.719 196.993C225.169 196.88 225.637 196.824 226.123 196.824ZM226.422 200.698C225.702 200.724 225.204 200.85 224.927 201.075C224.649 201.292 224.511 201.586 224.511 201.959C224.511 202.288 224.61 202.527 224.81 202.674C225.009 202.821 225.265 202.895 225.577 202.895C226.053 202.895 226.456 202.761 226.786 202.492C227.115 202.215 227.28 201.807 227.28 201.27V200.672L226.422 200.698ZM234.727 196.824C235.516 196.824 236.131 197.028 236.573 197.435C237.024 197.842 237.249 198.501 237.249 199.411V204H235.611V199.736C235.611 199.207 235.507 198.813 235.299 198.553C235.091 198.284 234.762 198.15 234.311 198.15C233.653 198.15 233.202 198.358 232.959 198.774C232.717 199.181 232.595 199.775 232.595 200.555V204H230.957V196.954H232.218L232.452 197.877H232.543C232.699 197.634 232.89 197.435 233.115 197.279C233.341 197.123 233.592 197.01 233.869 196.941C234.147 196.863 234.433 196.824 234.727 196.824ZM240.923 198.813C240.923 199.038 240.914 199.277 240.897 199.528C240.88 199.771 240.862 200.009 240.845 200.243H240.884C240.953 200.139 241.036 200.026 241.131 199.905C241.226 199.775 241.322 199.649 241.417 199.528C241.521 199.398 241.621 199.281 241.716 199.177L243.796 196.954H245.655L242.834 199.996L245.837 204H243.926L241.742 200.984L240.923 201.66V204H239.298V194.12H240.923V198.813ZM248.579 196.954V204H246.941V196.954H248.579ZM247.76 194.237C248.002 194.237 248.215 194.302 248.397 194.432C248.579 194.553 248.67 194.774 248.67 195.095C248.67 195.407 248.579 195.632 248.397 195.771C248.215 195.901 248.002 195.966 247.76 195.966C247.508 195.966 247.292 195.901 247.11 195.771C246.936 195.632 246.85 195.407 246.85 195.095C246.85 194.774 246.936 194.553 247.11 194.432C247.292 194.302 247.508 194.237 247.76 194.237ZM254.443 196.824C255.232 196.824 255.847 197.028 256.289 197.435C256.74 197.842 256.965 198.501 256.965 199.411V204H255.327V199.736C255.327 199.207 255.223 198.813 255.015 198.553C254.807 198.284 254.478 198.15 254.027 198.15C253.368 198.15 252.918 198.358 252.675 198.774C252.432 199.181 252.311 199.775 252.311 200.555V204H250.673V196.954H251.934L252.168 197.877H252.259C252.415 197.634 252.606 197.435 252.831 197.279C253.056 197.123 253.308 197.01 253.585 196.941C253.862 196.863 254.148 196.824 254.443 196.824ZM261.38 196.824C261.822 196.824 262.221 196.911 262.576 197.084C262.931 197.257 263.23 197.517 263.473 197.864H263.538L263.694 196.954H265.059V204.052C265.059 204.719 264.933 205.278 264.682 205.729C264.431 206.188 264.054 206.535 263.551 206.769C263.048 207.003 262.42 207.12 261.666 207.12C261.163 207.12 260.7 207.085 260.275 207.016C259.85 206.955 259.447 206.847 259.066 206.691V205.339C259.465 205.512 259.889 205.647 260.34 205.742C260.799 205.837 261.276 205.885 261.77 205.885C262.307 205.885 262.715 205.733 262.992 205.43C263.278 205.127 263.421 204.693 263.421 204.13V203.948C263.421 203.818 263.425 203.666 263.434 203.493C263.451 203.32 263.464 203.181 263.473 203.077H263.421C263.178 203.441 262.884 203.71 262.537 203.883C262.19 204.048 261.792 204.13 261.341 204.13C260.483 204.13 259.811 203.809 259.326 203.168C258.841 202.527 258.598 201.634 258.598 200.49C258.598 199.346 258.845 198.449 259.339 197.799C259.833 197.149 260.513 196.824 261.38 196.824ZM261.809 198.163C261.48 198.163 261.198 198.254 260.964 198.436C260.739 198.609 260.565 198.869 260.444 199.216C260.331 199.563 260.275 199.996 260.275 200.516C260.275 201.279 260.405 201.855 260.665 202.245C260.925 202.635 261.315 202.83 261.835 202.83C262.13 202.83 262.381 202.795 262.589 202.726C262.797 202.648 262.966 202.527 263.096 202.362C263.235 202.189 263.339 201.972 263.408 201.712C263.477 201.443 263.512 201.123 263.512 200.75V200.503C263.512 199.94 263.451 199.489 263.33 199.151C263.209 198.804 263.022 198.553 262.771 198.397C262.528 198.241 262.208 198.163 261.809 198.163Z" fill="white"/>
<path d="M347 244C353.627 244 359 249.373 359 256V288C359 294.627 353.627 300 347 300H28C21.3726 300 16 294.627 16 288V256C16 249.373 21.3726 244 28 244H347Z" fill="#1A1A1A"/>
<path d="M347 244C353.627 244 359 249.373 359 256V288C359 294.627 353.627 300 347 300H28C21.3726 300 16 294.627 16 288V256C16 249.373 21.3726 244 28 244H347Z" stroke="#383838"/>
<path d="M44 284C50.6274 284 56 278.627 56 272C56 265.373 50.6274 260 44 260C37.3726 260 32 265.373 32 272C32 278.627 37.3726 284 44 284Z" fill="#6E605F"/>
<path d="M44.001 270.624C44.2747 273.077 45.2915 275.388 46.915 277.247C46.0234 277.742 45.0206 278.001 44.001 278.001C42.9814 278.001 41.9785 277.742 41.0869 277.247C42.711 275.388 43.7279 273.077 44.001 270.624ZM46.9678 270.842C47.1167 271.958 48.3483 273.457 49.6279 274.054L49.6406 274.049C49.3756 274.775 48.9757 275.444 48.4619 276.021C47.3236 275.338 46.4177 274.328 45.8623 273.122C46.4586 272.412 46.8398 271.547 46.9619 270.628L46.9678 270.842ZM41.0342 270.627C41.1564 271.546 41.5376 272.411 42.1338 273.121C41.5789 274.327 40.6729 275.338 39.5342 276.021C39.0222 275.443 38.6237 274.774 38.3594 274.049L38.3721 274.054C39.6508 273.457 40.8832 271.958 41.0322 270.842L41.0342 270.627ZM41.0312 266.785C41.0223 267.109 41.009 267.398 40.998 267.498C40.775 269.692 40.0202 271.907 38.0322 272.736C38.0162 272.545 38 272.199 38 271.999C38 270.94 38.2802 269.899 38.8125 268.983C39.3449 268.068 40.1107 267.309 41.0312 266.785ZM46.9697 266.785C47.89 267.309 48.6553 268.068 49.1875 268.983C49.7197 269.899 50.0001 270.94 50 271.999C50 272.199 49.9858 272.545 49.9678 272.736C47.9808 271.907 47.2249 269.691 47.0029 267.497L46.9844 267.226C46.9785 267.1 46.9732 266.947 46.9697 266.785ZM43.9824 266.002C43.9824 266.242 43.9601 266.691 43.9531 266.761C43.7972 268.287 43.4616 269.79 42.9541 271.236L42.7256 271.854C41.7859 271.253 41.2862 268.901 41.1162 267.501C41.1012 267.379 41.0735 267.093 41.0645 266.767C41.9565 266.269 42.9608 266.006 43.9824 266.002ZM44.0166 266.002C45.0377 266.004 46.042 266.265 46.9346 266.761C46.9246 267.087 46.8998 267.373 46.8838 267.495C46.7138 268.895 46.2131 271.247 45.2744 271.848L45.0469 271.236C44.539 269.79 44.203 268.287 44.0469 266.761C44.0398 266.691 44.0166 266.242 44.0166 266.002Z" fill="#FDC600"/>
<path d="M76.004 266.718C77.2087 266.718 78.1187 266.891 78.734 267.238C79.358 267.585 79.67 268.187 79.67 269.045C79.67 269.4 79.6093 269.721 79.488 270.007C79.3667 270.293 79.189 270.527 78.955 270.709C78.7297 270.891 78.448 271.012 78.11 271.073V271.138C78.4567 271.199 78.7643 271.311 79.033 271.476C79.3103 271.632 79.527 271.862 79.683 272.165C79.8477 272.46 79.93 272.85 79.93 273.335C79.93 273.898 79.7957 274.379 79.527 274.778C79.2583 275.177 78.8727 275.48 78.37 275.688C77.876 275.896 77.2867 276 76.602 276H73.209V266.718H76.004ZM76.225 270.501C76.8837 270.501 77.3343 270.397 77.577 270.189C77.8283 269.981 77.954 269.673 77.954 269.266C77.954 268.85 77.8067 268.551 77.512 268.369C77.2173 268.187 76.745 268.096 76.095 268.096H74.873V270.501H76.225ZM74.873 271.84V274.609H76.381C77.057 274.609 77.525 274.479 77.785 274.219C78.0537 273.959 78.188 273.612 78.188 273.179C78.188 272.902 78.1317 272.663 78.019 272.464C77.9063 272.265 77.7113 272.113 77.434 272.009C77.1567 271.896 76.7797 271.84 76.303 271.84H74.873ZM84.4938 268.824C85.4038 268.824 86.0928 269.023 86.5608 269.422C87.0375 269.812 87.2758 270.427 87.2758 271.268V276H86.1188L85.7938 275.025H85.7418C85.5425 275.276 85.3345 275.489 85.1178 275.662C84.9098 275.827 84.6671 275.944 84.3898 276.013C84.1211 276.091 83.7918 276.13 83.4018 276.13C82.9858 276.13 82.6088 276.052 82.2708 275.896C81.9415 275.74 81.6815 275.502 81.4908 275.181C81.3001 274.852 81.2048 274.44 81.2048 273.946C81.2048 273.218 81.4691 272.672 81.9978 272.308C82.5351 271.935 83.3455 271.732 84.4288 271.697L85.6508 271.658V271.307C85.6508 270.856 85.5425 270.536 85.3258 270.345C85.1091 270.154 84.8058 270.059 84.4158 270.059C84.0605 270.059 83.7181 270.111 83.3888 270.215C83.0595 270.319 82.7388 270.44 82.4268 270.579L81.9068 269.435C82.2535 269.253 82.6478 269.106 83.0898 268.993C83.5405 268.88 84.0085 268.824 84.4938 268.824ZM84.7928 272.698C84.0735 272.724 83.5751 272.85 83.2978 273.075C83.0205 273.292 82.8818 273.586 82.8818 273.959C82.8818 274.288 82.9815 274.527 83.1808 274.674C83.3801 274.821 83.6358 274.895 83.9478 274.895C84.4245 274.895 84.8275 274.761 85.1568 274.492C85.4861 274.215 85.6508 273.807 85.6508 273.27V272.672L84.7928 272.698ZM93.0984 268.824C93.8871 268.824 94.5024 269.028 94.9444 269.435C95.3951 269.842 95.6204 270.501 95.6204 271.411V276H93.9824V271.736C93.9824 271.207 93.8784 270.813 93.6704 270.553C93.4624 270.284 93.1331 270.15 92.6824 270.15C92.0237 270.15 91.5731 270.358 91.3304 270.774C91.0877 271.181 90.9664 271.775 90.9664 272.555V276H89.3284V268.954H90.5894L90.8234 269.877H90.9144C91.0704 269.634 91.2611 269.435 91.4864 269.279C91.7117 269.123 91.9631 269.01 92.2404 268.941C92.5177 268.863 92.8037 268.824 93.0984 268.824ZM99.2942 270.813C99.2942 271.038 99.2855 271.277 99.2682 271.528C99.2509 271.771 99.2335 272.009 99.2162 272.243H99.2552C99.3245 272.139 99.4069 272.026 99.5022 271.905C99.5975 271.775 99.6929 271.649 99.7882 271.528C99.8922 271.398 99.9919 271.281 100.087 271.177L102.167 268.954H104.026L101.205 271.996L104.208 276H102.297L100.113 272.984L99.2942 273.66V276H97.6692V266.12H99.2942V270.813ZM114.981 272.464C114.981 273.053 114.903 273.573 114.747 274.024C114.591 274.475 114.365 274.86 114.071 275.181C113.785 275.493 113.429 275.731 113.005 275.896C112.589 276.052 112.121 276.13 111.601 276.13C111.124 276.13 110.682 276.052 110.275 275.896C109.867 275.731 109.512 275.493 109.209 275.181C108.914 274.86 108.684 274.475 108.52 274.024C108.355 273.573 108.273 273.053 108.273 272.464C108.273 271.684 108.407 271.025 108.676 270.488C108.944 269.942 109.33 269.53 109.833 269.253C110.344 268.967 110.946 268.824 111.64 268.824C112.298 268.824 112.875 268.967 113.369 269.253C113.871 269.53 114.266 269.942 114.552 270.488C114.838 271.025 114.981 271.684 114.981 272.464ZM109.95 272.464C109.95 272.958 110.006 273.383 110.119 273.738C110.24 274.085 110.422 274.349 110.665 274.531C110.916 274.713 111.237 274.804 111.627 274.804C112.025 274.804 112.346 274.713 112.589 274.531C112.84 274.349 113.022 274.085 113.135 273.738C113.247 273.383 113.304 272.958 113.304 272.464C113.304 271.961 113.243 271.541 113.122 271.203C113.009 270.856 112.827 270.596 112.576 270.423C112.333 270.241 112.012 270.15 111.614 270.15C111.033 270.15 110.608 270.349 110.34 270.748C110.08 271.147 109.95 271.719 109.95 272.464ZM120.327 270.189H118.624V276H116.986V270.189H115.855V269.409L116.986 268.941V268.46C116.986 267.853 117.081 267.377 117.272 267.03C117.463 266.683 117.74 266.436 118.104 266.289C118.468 266.133 118.897 266.055 119.391 266.055C119.738 266.055 120.05 266.085 120.327 266.146C120.604 266.198 120.834 266.259 121.016 266.328L120.6 267.55C120.453 267.507 120.288 267.468 120.106 267.433C119.933 267.39 119.742 267.368 119.534 267.368C119.222 267.368 118.992 267.468 118.845 267.667C118.698 267.866 118.624 268.144 118.624 268.499V268.954H120.327V270.189ZM130.764 276L129.919 273.543H126.422L125.59 276H123.822L127.228 266.679H129.126L132.532 276H130.764ZM128.684 269.721C128.65 269.6 128.598 269.435 128.528 269.227C128.459 269.019 128.39 268.807 128.32 268.59C128.26 268.365 128.212 268.178 128.177 268.031C128.134 268.204 128.078 268.404 128.008 268.629C127.948 268.854 127.887 269.067 127.826 269.266C127.774 269.465 127.731 269.617 127.696 269.721L126.877 272.113H129.49L128.684 269.721ZM132.544 268.954H134.325L135.729 272.932C135.79 273.105 135.842 273.274 135.885 273.439C135.937 273.595 135.98 273.755 136.015 273.92C136.05 274.085 136.076 274.249 136.093 274.414H136.145C136.18 274.197 136.232 273.959 136.301 273.699C136.379 273.439 136.457 273.183 136.535 272.932L137.887 268.954H139.655L136.652 276.936C136.479 277.395 136.258 277.79 135.989 278.119C135.729 278.448 135.417 278.695 135.053 278.86C134.698 279.033 134.295 279.12 133.844 279.12C133.636 279.12 133.45 279.107 133.285 279.081C133.129 279.064 132.99 279.042 132.869 279.016V277.716C132.964 277.733 133.077 277.751 133.207 277.768C133.346 277.785 133.489 277.794 133.636 277.794C133.905 277.794 134.134 277.738 134.325 277.625C134.524 277.521 134.689 277.374 134.819 277.183C134.958 276.992 135.07 276.78 135.157 276.546L135.365 275.974L132.544 268.954ZM146.959 268.954V276H145.672L145.451 275.09H145.373C145.226 275.333 145.035 275.532 144.801 275.688C144.567 275.835 144.312 275.944 144.034 276.013C143.757 276.091 143.471 276.13 143.176 276.13C142.656 276.13 142.206 276.039 141.824 275.857C141.443 275.675 141.153 275.398 140.953 275.025C140.754 274.644 140.654 274.154 140.654 273.556V268.954H142.292V273.231C142.292 273.751 142.396 274.145 142.604 274.414C142.812 274.674 143.142 274.804 143.592 274.804C144.034 274.804 144.381 274.713 144.632 274.531C144.884 274.34 145.061 274.067 145.165 273.712C145.269 273.357 145.321 272.919 145.321 272.399V268.954H146.959ZM151.374 276.13C150.559 276.13 149.896 275.827 149.385 275.22C148.882 274.605 148.631 273.695 148.631 272.49C148.631 271.285 148.887 270.375 149.398 269.76C149.909 269.136 150.581 268.824 151.413 268.824C151.76 268.824 152.063 268.872 152.323 268.967C152.592 269.054 152.821 269.175 153.012 269.331C153.203 269.487 153.363 269.66 153.493 269.851H153.571C153.545 269.73 153.519 269.543 153.493 269.292C153.467 269.041 153.454 268.807 153.454 268.59V266.12H155.092V276H153.818L153.519 275.077H153.454C153.324 275.268 153.164 275.445 152.973 275.61C152.782 275.766 152.557 275.892 152.297 275.987C152.037 276.082 151.729 276.13 151.374 276.13ZM151.868 274.804C152.475 274.804 152.904 274.631 153.155 274.284C153.406 273.937 153.532 273.413 153.532 272.711V272.503C153.532 271.74 153.411 271.16 153.168 270.761C152.934 270.362 152.492 270.163 151.842 270.163C151.348 270.163 150.967 270.371 150.698 270.787C150.429 271.194 150.295 271.771 150.295 272.516C150.295 273.261 150.429 273.829 150.698 274.219C150.967 274.609 151.357 274.804 151.868 274.804ZM158.823 268.473C158.823 268.75 158.81 269.023 158.784 269.292C158.767 269.552 158.749 269.747 158.732 269.877H158.836C158.983 269.634 159.165 269.439 159.382 269.292C159.599 269.136 159.837 269.019 160.097 268.941C160.366 268.863 160.643 268.824 160.929 268.824C161.458 268.824 161.913 268.915 162.294 269.097C162.675 269.279 162.966 269.561 163.165 269.942C163.373 270.315 163.477 270.804 163.477 271.411V276H161.839V271.736C161.839 271.207 161.735 270.813 161.527 270.553C161.319 270.284 160.99 270.15 160.539 270.15C160.106 270.15 159.763 270.245 159.512 270.436C159.261 270.618 159.083 270.891 158.979 271.255C158.875 271.61 158.823 272.044 158.823 272.555V276H157.185V266.12H158.823V268.473ZM164.473 268.954H166.254L167.658 272.932C167.718 273.105 167.77 273.274 167.814 273.439C167.866 273.595 167.909 273.755 167.944 273.92C167.978 274.085 168.004 274.249 168.022 274.414H168.074C168.108 274.197 168.16 273.959 168.23 273.699C168.308 273.439 168.386 273.183 168.464 272.932L169.816 268.954H171.584L168.581 276.936C168.407 277.395 168.186 277.79 167.918 278.119C167.658 278.448 167.346 278.695 166.982 278.86C166.626 279.033 166.223 279.12 165.773 279.12C165.565 279.12 165.378 279.107 165.214 279.081C165.058 279.064 164.919 279.042 164.798 279.016V277.716C164.893 277.733 165.006 277.751 165.136 277.768C165.274 277.785 165.417 277.794 165.565 277.794C165.833 277.794 166.063 277.738 166.254 277.625C166.453 277.521 166.618 277.374 166.748 277.183C166.886 276.992 166.999 276.78 167.086 276.546L167.294 275.974L164.473 268.954ZM175.443 268.824C176.353 268.824 177.042 269.023 177.51 269.422C177.987 269.812 178.225 270.427 178.225 271.268V276H177.068L176.743 275.025H176.691C176.492 275.276 176.284 275.489 176.067 275.662C175.859 275.827 175.616 275.944 175.339 276.013C175.07 276.091 174.741 276.13 174.351 276.13C173.935 276.13 173.558 276.052 173.22 275.896C172.891 275.74 172.631 275.502 172.44 275.181C172.249 274.852 172.154 274.44 172.154 273.946C172.154 273.218 172.418 272.672 172.947 272.308C173.484 271.935 174.295 271.732 175.378 271.697L176.6 271.658V271.307C176.6 270.856 176.492 270.536 176.275 270.345C176.058 270.154 175.755 270.059 175.365 270.059C175.01 270.059 174.667 270.111 174.338 270.215C174.009 270.319 173.688 270.44 173.376 270.579L172.856 269.435C173.203 269.253 173.597 269.106 174.039 268.993C174.49 268.88 174.958 268.824 175.443 268.824ZM175.742 272.698C175.023 272.724 174.524 272.85 174.247 273.075C173.97 273.292 173.831 273.586 173.831 273.959C173.831 274.288 173.931 274.527 174.13 274.674C174.329 274.821 174.585 274.895 174.897 274.895C175.374 274.895 175.777 274.761 176.106 274.492C176.435 274.215 176.6 273.807 176.6 273.27V272.672L175.742 272.698Z" fill="white"/>
<path d="M347 316C353.627 316 359 321.373 359 328V360C359 366.627 353.627 372 347 372H28C21.3726 372 16 366.627 16 360V328C16 321.373 21.3726 316 28 316H347Z" fill="#1A1A1A"/>
<path d="M347 316C353.627 316 359 321.373 359 328V360C359 366.627 353.627 372 347 372H28C21.3726 372 16 366.627 16 360V328C16 321.373 21.3726 316 28 316H347Z" stroke="#383838"/>
<path d="M44 356C50.6274 356 56 350.627 56 344C56 337.373 50.6274 332 44 332C37.3726 332 32 337.373 32 344C32 350.627 37.3726 356 44 356Z" fill="#2FB457"/>
<path d="M50.5021 344.05C50.5009 345.327 50.1212 346.574 49.4109 347.635C48.7007 348.696 47.6918 349.523 46.5118 350.01C45.3319 350.498 44.0338 350.625 42.7818 350.375C41.5298 350.125 40.38 349.509 39.4778 348.606C38.5757 347.702 37.9616 346.552 37.7133 345.299C37.4651 344.047 37.5937 342.749 38.083 341.57C38.5722 340.391 39.4002 339.383 40.4621 338.674C41.5241 337.965 42.7723 337.587 44.0491 337.588C44.8972 337.588 45.7368 337.756 46.5202 338.081C47.3035 338.406 48.0151 338.882 48.6144 339.482C49.2136 340.082 49.6888 340.794 50.0127 341.578C50.3366 342.362 50.5029 343.202 50.5021 344.05Z" fill="white"/>
<path d="M47.3001 347.38C46.9699 347.188 46.5959 347.085 46.2141 347.08C45.8354 347.097 45.4655 347.2 45.1321 347.38C44.7741 347.574 44.3761 347.684 43.9691 347.699C43.5986 347.682 43.2371 347.58 42.9131 347.399C42.5534 347.204 42.1532 347.095 41.7441 347.08C41.3653 347.098 40.9953 347.201 40.6611 347.38C40.3009 347.573 39.9016 347.683 39.4931 347.699H39.4231C39.4711 347.758 39.5231 347.817 39.5701 347.874C39.9776 347.848 40.3749 347.736 40.7361 347.545C41.0481 347.377 41.3934 347.281 41.7471 347.263C42.1292 347.277 42.5028 347.379 42.8381 347.563C43.1854 347.755 43.5725 347.865 43.9691 347.882C44.4024 347.868 44.8264 347.752 45.2071 347.545C45.5168 347.375 45.8611 347.277 46.2141 347.258C46.5693 347.265 46.9165 347.365 47.2211 347.548C47.5858 347.762 48.0003 347.877 48.4231 347.88C48.4741 347.819 48.5231 347.759 48.5831 347.698H48.4381C48.0389 347.694 47.648 347.584 47.3051 347.379" fill="#99877D"/>
<path d="M46.2141 347.411C45.8349 347.431 45.4651 347.537 45.1321 347.719C44.7744 347.914 44.3763 348.023 43.9691 348.038C43.5986 348.021 43.2371 347.919 42.9131 347.738C42.5537 347.542 42.1533 347.433 41.7441 347.419C41.3653 347.437 40.9953 347.54 40.6611 347.719C40.361 347.872 40.0375 347.973 39.7041 348.019C39.7551 348.072 39.8041 348.126 39.8641 348.179C40.166 348.119 40.4584 348.018 40.7331 347.879C41.0447 347.71 41.3901 347.613 41.7441 347.595C42.1277 347.61 42.5024 347.715 42.8381 347.901C43.1854 348.093 43.5725 348.203 43.9691 348.22C44.4026 348.204 44.8264 348.087 45.2071 347.879C45.5164 347.707 45.8608 347.609 46.2141 347.59C46.5692 347.597 46.9164 347.697 47.2211 347.879C47.501 348.04 47.8081 348.148 48.1271 348.198C48.1811 348.145 48.2351 348.091 48.2871 348.038C47.9389 348.006 47.6021 347.897 47.3011 347.719C46.9721 347.523 46.5978 347.417 46.2151 347.41" fill="#99877D"/>
<path d="M46.2141 347.744C45.8354 347.761 45.4655 347.864 45.1321 348.044C44.7741 348.239 44.3762 348.348 43.9691 348.363C43.5986 348.346 43.2371 348.244 42.9131 348.063C42.5534 347.868 42.1532 347.759 41.7441 347.744C41.3652 347.762 40.9951 347.864 40.6611 348.044C40.4438 348.148 40.2176 348.233 39.9851 348.296L40.1451 348.438C40.3474 348.373 40.5452 348.295 40.7371 348.203C41.0491 348.036 41.3944 347.939 41.7481 347.921C42.1311 347.935 42.5056 348.038 42.8421 348.221C43.1894 348.413 43.5765 348.523 43.9731 348.54C44.4061 348.526 44.8299 348.411 45.2111 348.205C45.5204 348.034 45.8648 347.935 46.2181 347.916C46.5735 347.924 46.9207 348.025 47.2251 348.208C47.419 348.313 47.6231 348.399 47.8341 348.463C47.8881 348.417 47.9421 348.363 47.9941 348.319C47.7536 348.26 47.5219 348.169 47.3051 348.049C46.9758 347.854 46.6017 347.748 46.2191 347.74" fill="#99877D"/>
<path d="M46.2141 348.077C45.8354 348.094 45.4654 348.197 45.1321 348.377C44.7741 348.572 44.3761 348.681 43.9691 348.696C43.5985 348.68 43.2368 348.577 42.9131 348.396C42.5534 348.201 42.1532 348.092 41.7441 348.077C41.3653 348.096 40.9953 348.198 40.6611 348.377C40.5325 348.437 40.401 348.491 40.2671 348.537C40.3201 348.58 40.3721 348.623 40.4271 348.665C40.5338 348.623 40.6358 348.578 40.7331 348.531C41.0451 348.364 41.3904 348.267 41.7441 348.249C42.1277 348.264 42.5024 348.369 42.8381 348.555C43.1854 348.748 43.5725 348.857 43.9691 348.874C44.4021 348.86 44.8259 348.745 45.2071 348.539C45.5164 348.368 45.8608 348.269 46.2141 348.25C46.5693 348.257 46.9165 348.357 47.2211 348.54L47.5401 348.7C47.5941 348.659 47.6481 348.617 47.7001 348.574C47.5637 348.52 47.4302 348.459 47.3001 348.391C46.9721 348.192 46.5977 348.082 46.2141 348.072" fill="#99877D"/>
<path d="M46.2141 348.412C45.8355 348.43 45.4657 348.532 45.1321 348.712C44.7744 348.907 44.3763 349.016 43.9691 349.031C43.5986 349.014 43.2371 348.912 42.9131 348.731C42.5537 348.535 42.1533 348.426 41.7441 348.412C41.3653 348.43 40.9953 348.533 40.6611 348.712L40.5481 348.761C40.6041 348.802 40.6601 348.841 40.7171 348.881H40.7331C41.0449 348.713 41.3902 348.616 41.7441 348.597C42.1277 348.612 42.5024 348.717 42.8381 348.903C43.1854 349.095 43.5725 349.205 43.9691 349.222C44.4021 349.208 44.8259 349.093 45.2071 348.887C45.5164 348.715 45.8608 348.617 46.2141 348.598C46.5692 348.606 46.9162 348.706 47.2211 348.888L47.2591 348.909C47.3151 348.871 47.3711 348.834 47.4191 348.794L47.2951 348.732C46.9661 348.536 46.5918 348.43 46.2091 348.423" fill="#99877D"/>
<path d="M45.1349 349.05C44.777 349.245 44.379 349.354 43.9719 349.369C43.6014 349.352 43.2399 349.25 42.9159 349.069C42.5562 348.874 42.156 348.765 41.7469 348.75C41.435 348.759 41.1284 348.833 40.8469 348.967C40.9079 349.007 40.9709 349.044 41.0339 349.08C41.259 348.981 41.5011 348.927 41.7469 348.92C42.1304 348.936 42.505 349.041 42.8409 349.226C43.1882 349.418 43.5753 349.528 43.9719 349.545C44.405 349.531 44.8287 349.416 45.2099 349.21C45.5187 349.039 45.8624 348.941 46.2149 348.922C46.472 348.92 46.7263 348.975 46.9599 349.082C47.0209 349.045 47.0809 349.009 47.1399 348.97C46.8546 348.82 46.5373 348.741 46.2149 348.74C45.8362 348.757 45.4663 348.86 45.1329 349.04" fill="#99877D"/>
<path d="M44 337C42.6155 337 41.2622 337.411 40.111 338.18C38.9599 338.949 38.0627 340.042 37.5328 341.321C37.003 342.6 36.8644 344.008 37.1345 345.366C37.4046 346.723 38.0713 347.971 39.0503 348.95C40.0292 349.929 41.2765 350.595 42.6344 350.865C43.9922 351.136 45.3997 350.997 46.6788 350.467C47.9579 349.937 49.0511 349.04 49.8203 347.889C50.5895 346.738 51 345.384 51 344C51 342.143 50.2625 340.363 48.9497 339.05C47.637 337.737 45.8565 337 44 337ZM44 349.883C42.8365 349.883 41.699 349.538 40.7316 348.892C39.7641 348.245 39.0101 347.326 38.5648 346.251C38.1195 345.176 38.003 343.993 38.23 342.852C38.457 341.711 39.0173 340.663 39.8401 339.84C40.6628 339.017 41.7111 338.457 42.8523 338.23C43.9935 338.003 45.1764 338.12 46.2513 338.565C47.3263 339.01 48.2451 339.764 48.8915 340.732C49.538 341.699 49.883 342.836 49.883 344C49.883 345.56 49.2632 347.057 48.1599 348.16C47.0566 349.263 45.5603 349.883 44 349.883Z" fill="#ED1B2E"/>
<path d="M47.2741 342.264C47.2036 342.482 47.0682 342.672 46.8861 342.81C46.6121 343.03 44.8011 344.137 44.5971 344.393C44.4209 344.666 44.3374 344.989 44.3591 345.313V347.441H44.6401V346.887C44.6607 346.617 44.7778 346.363 44.9701 346.172C45.5439 345.702 46.1475 345.27 46.7771 344.878C46.9597 344.735 47.1018 344.546 47.1895 344.331C47.2771 344.116 47.3073 343.882 47.2771 343.651V342.197L47.2741 342.264Z" fill="#2FB457"/>
<path d="M44.3579 344.261C44.5579 344.011 46.4319 342.87 46.6949 342.653C46.8561 342.542 46.9914 342.398 47.0917 342.23C47.192 342.062 47.2548 341.874 47.2759 341.68V339.297C47.2396 339.64 47.0876 339.96 46.8449 340.205C46.1666 340.751 45.4472 341.245 44.6929 341.681C44.4408 341.821 44.2305 342.025 44.0836 342.274C43.9367 342.522 43.8585 342.805 43.8569 343.093V347.442H44.1359V345.166C44.1093 344.848 44.1873 344.53 44.3579 344.261Z" fill="#2FB457"/>
<path d="M42.9409 341.798C42.2915 341.312 41.6686 340.791 41.0749 340.238C40.8346 339.986 40.6818 339.662 40.6389 339.316V341.53C40.6488 341.785 40.7171 342.034 40.8385 342.257C40.9599 342.481 41.1311 342.674 41.3389 342.821C41.8909 343.221 42.6679 343.81 42.9019 344.045C43.2128 344.389 43.3749 344.842 43.3529 345.305V347.441H43.6349V343.186C43.669 342.912 43.6213 342.634 43.4978 342.387C43.3743 342.14 43.1806 341.936 42.9409 341.798Z" fill="#2FB457"/>
<path d="M80.411 348H78.5L75.744 343.892L74.873 344.581V348H73.209V338.718H74.873V343.086C75.0463 342.869 75.224 342.648 75.406 342.423C75.588 342.198 75.77 341.972 75.952 341.747L78.461 338.718H80.346L76.94 342.8L80.411 348ZM84.278 340.824C85.188 340.824 85.877 341.023 86.345 341.422C86.8217 341.812 87.06 342.427 87.06 343.268V348H85.903L85.578 347.025H85.526C85.3267 347.276 85.1187 347.489 84.902 347.662C84.694 347.827 84.4513 347.944 84.174 348.013C83.9053 348.091 83.576 348.13 83.186 348.13C82.77 348.13 82.393 348.052 82.055 347.896C81.7257 347.74 81.4657 347.502 81.275 347.181C81.0843 346.852 80.989 346.44 80.989 345.946C80.989 345.218 81.2533 344.672 81.782 344.308C82.3193 343.935 83.1297 343.732 84.213 343.697L85.435 343.658V343.307C85.435 342.856 85.3267 342.536 85.11 342.345C84.8933 342.154 84.59 342.059 84.2 342.059C83.8447 342.059 83.5023 342.111 83.173 342.215C82.8437 342.319 82.523 342.44 82.211 342.579L81.691 341.435C82.0377 341.253 82.432 341.106 82.874 340.993C83.3247 340.88 83.7927 340.824 84.278 340.824ZM84.577 344.698C83.8577 344.724 83.3593 344.85 83.082 345.075C82.8047 345.292 82.666 345.586 82.666 345.959C82.666 346.288 82.7657 346.527 82.965 346.674C83.1643 346.821 83.42 346.895 83.732 346.895C84.2087 346.895 84.6117 346.761 84.941 346.492C85.2703 346.215 85.435 345.807 85.435 345.27V344.672L84.577 344.698ZM93.9096 345.959C93.9096 346.427 93.7969 346.826 93.5716 347.155C93.3462 347.476 93.0126 347.718 92.5706 347.883C92.1372 348.048 91.6042 348.13 90.9716 348.13C90.4776 348.13 90.0529 348.095 89.6976 348.026C89.3422 347.957 89.0042 347.848 88.6836 347.701V346.31C89.0302 346.475 89.4159 346.613 89.8406 346.726C90.2652 346.839 90.6596 346.895 91.0236 346.895C91.4742 346.895 91.7992 346.826 91.9986 346.687C92.1979 346.548 92.2976 346.362 92.2976 346.128C92.2976 345.989 92.2586 345.864 92.1806 345.751C92.1026 345.638 91.9509 345.521 91.7256 345.4C91.5002 345.27 91.1579 345.11 90.6986 344.919C90.2479 344.737 89.8709 344.555 89.5676 344.373C89.2729 344.191 89.0476 343.974 88.8916 343.723C88.7442 343.463 88.6706 343.138 88.6706 342.748C88.6706 342.115 88.9219 341.639 89.4246 341.318C89.9272 340.989 90.5902 340.824 91.4136 340.824C91.8469 340.824 92.2542 340.867 92.6356 340.954C93.0256 341.032 93.4156 341.162 93.8056 341.344L93.2856 342.553C92.9649 342.414 92.6442 342.297 92.3236 342.202C92.0116 342.107 91.6909 342.059 91.3616 342.059C91.0062 342.059 90.7376 342.115 90.5556 342.228C90.3736 342.332 90.2826 342.479 90.2826 342.67C90.2826 342.817 90.3259 342.947 90.4126 343.06C90.5079 343.164 90.6682 343.272 90.8936 343.385C91.1276 343.489 91.4569 343.628 91.8816 343.801C92.3062 343.966 92.6659 344.139 92.9606 344.321C93.2639 344.494 93.4979 344.711 93.6626 344.971C93.8272 345.231 93.9096 345.56 93.9096 345.959ZM97.1236 340.954V348H95.4856V340.954H97.1236ZM96.3046 338.237C96.5473 338.237 96.7596 338.302 96.9416 338.432C97.1236 338.553 97.2146 338.774 97.2146 339.095C97.2146 339.407 97.1236 339.632 96.9416 339.771C96.7596 339.901 96.5473 339.966 96.3046 339.966C96.0533 339.966 95.8366 339.901 95.6546 339.771C95.4813 339.632 95.3946 339.407 95.3946 339.095C95.3946 338.774 95.4813 338.553 95.6546 338.432C95.8366 338.302 96.0533 338.237 96.3046 338.237ZM100.843 342.813C100.843 343.038 100.834 343.277 100.817 343.528C100.8 343.771 100.782 344.009 100.765 344.243H100.804C100.873 344.139 100.956 344.026 101.051 343.905C101.146 343.775 101.242 343.649 101.337 343.528C101.441 343.398 101.541 343.281 101.636 343.177L103.716 340.954H105.575L102.754 343.996L105.757 348H103.846L101.662 344.984L100.843 345.66V348H99.218V338.12H100.843V342.813ZM113.153 344.464C113.153 345.053 113.075 345.573 112.919 346.024C112.763 346.475 112.537 346.86 112.243 347.181C111.957 347.493 111.601 347.731 111.177 347.896C110.761 348.052 110.293 348.13 109.773 348.13C109.296 348.13 108.854 348.052 108.447 347.896C108.039 347.731 107.684 347.493 107.381 347.181C107.086 346.86 106.856 346.475 106.692 346.024C106.527 345.573 106.445 345.053 106.445 344.464C106.445 343.684 106.579 343.025 106.848 342.488C107.116 341.942 107.502 341.53 108.005 341.253C108.516 340.967 109.118 340.824 109.812 340.824C110.47 340.824 111.047 340.967 111.541 341.253C112.043 341.53 112.438 341.942 112.724 342.488C113.01 343.025 113.153 343.684 113.153 344.464ZM108.122 344.464C108.122 344.958 108.178 345.383 108.291 345.738C108.412 346.085 108.594 346.349 108.837 346.531C109.088 346.713 109.409 346.804 109.799 346.804C110.197 346.804 110.518 346.713 110.761 346.531C111.012 346.349 111.194 346.085 111.307 345.738C111.419 345.383 111.476 344.958 111.476 344.464C111.476 343.961 111.415 343.541 111.294 343.203C111.181 342.856 110.999 342.596 110.748 342.423C110.505 342.241 110.184 342.15 109.786 342.15C109.205 342.15 108.78 342.349 108.512 342.748C108.252 343.147 108.122 343.719 108.122 344.464ZM118.538 340.824C118.642 340.824 118.763 340.828 118.902 340.837C119.041 340.846 119.158 340.863 119.253 340.889L119.11 342.41C119.032 342.393 118.928 342.38 118.798 342.371C118.677 342.354 118.568 342.345 118.473 342.345C118.213 342.345 117.962 342.388 117.719 342.475C117.485 342.553 117.273 342.674 117.082 342.839C116.9 342.995 116.753 343.199 116.64 343.45C116.536 343.701 116.484 344 116.484 344.347V348H114.846V340.954H116.107L116.341 342.176H116.419C116.558 341.925 116.731 341.699 116.939 341.5C117.147 341.292 117.385 341.127 117.654 341.006C117.931 340.885 118.226 340.824 118.538 340.824ZM124.329 340.824C125.118 340.824 125.733 341.028 126.175 341.435C126.626 341.842 126.851 342.501 126.851 343.411V348H125.213V343.736C125.213 343.207 125.109 342.813 124.901 342.553C124.693 342.284 124.364 342.15 123.913 342.15C123.254 342.15 122.804 342.358 122.561 342.774C122.318 343.181 122.197 343.775 122.197 344.555V348H120.559V340.954H121.82L122.054 341.877H122.145C122.301 341.634 122.492 341.435 122.717 341.279C122.942 341.123 123.194 341.01 123.471 340.941C123.748 340.863 124.034 340.824 124.329 340.824ZM135.228 338.718C136.432 338.718 137.342 338.891 137.958 339.238C138.582 339.585 138.894 340.187 138.894 341.045C138.894 341.4 138.833 341.721 138.712 342.007C138.59 342.293 138.413 342.527 138.179 342.709C137.953 342.891 137.672 343.012 137.334 343.073V343.138C137.68 343.199 137.988 343.311 138.257 343.476C138.534 343.632 138.751 343.862 138.907 344.165C139.071 344.46 139.154 344.85 139.154 345.335C139.154 345.898 139.019 346.379 138.751 346.778C138.482 347.177 138.096 347.48 137.594 347.688C137.1 347.896 136.51 348 135.826 348H132.433V338.718H135.228ZM135.449 342.501C136.107 342.501 136.558 342.397 136.801 342.189C137.052 341.981 137.178 341.673 137.178 341.266C137.178 340.85 137.03 340.551 136.736 340.369C136.441 340.187 135.969 340.096 135.319 340.096H134.097V342.501H135.449ZM134.097 343.84V346.609H135.605C136.281 346.609 136.749 346.479 137.009 346.219C137.277 345.959 137.412 345.612 137.412 345.179C137.412 344.902 137.355 344.663 137.243 344.464C137.13 344.265 136.935 344.113 136.658 344.009C136.38 343.896 136.003 343.84 135.527 343.84H134.097ZM143.717 340.824C144.627 340.824 145.316 341.023 145.784 341.422C146.261 341.812 146.499 342.427 146.499 343.268V348H145.342L145.017 347.025H144.965C144.766 347.276 144.558 347.489 144.341 347.662C144.133 347.827 143.891 347.944 143.613 348.013C143.345 348.091 143.015 348.13 142.625 348.13C142.209 348.13 141.832 348.052 141.494 347.896C141.165 347.74 140.905 347.502 140.714 347.181C140.524 346.852 140.428 346.44 140.428 345.946C140.428 345.218 140.693 344.672 141.221 344.308C141.759 343.935 142.569 343.732 143.652 343.697L144.874 343.658V343.307C144.874 342.856 144.766 342.536 144.549 342.345C144.333 342.154 144.029 342.059 143.639 342.059C143.284 342.059 142.942 342.111 142.612 342.215C142.283 342.319 141.962 342.44 141.65 342.579L141.13 341.435C141.477 341.253 141.871 341.106 142.313 340.993C142.764 340.88 143.232 340.824 143.717 340.824ZM144.016 344.698C143.297 344.724 142.799 344.85 142.521 345.075C142.244 345.292 142.105 345.586 142.105 345.959C142.105 346.288 142.205 346.527 142.404 346.674C142.604 346.821 142.859 346.895 143.171 346.895C143.648 346.895 144.051 346.761 144.38 346.492C144.71 346.215 144.874 345.807 144.874 345.27V344.672L144.016 344.698ZM152.322 340.824C153.111 340.824 153.726 341.028 154.168 341.435C154.619 341.842 154.844 342.501 154.844 343.411V348H153.206V343.736C153.206 343.207 153.102 342.813 152.894 342.553C152.686 342.284 152.357 342.15 151.906 342.15C151.247 342.15 150.797 342.358 150.554 342.774C150.311 343.181 150.19 343.775 150.19 344.555V348H148.552V340.954H149.813L150.047 341.877H150.138C150.294 341.634 150.485 341.435 150.71 341.279C150.935 341.123 151.187 341.01 151.464 340.941C151.741 340.863 152.027 340.824 152.322 340.824ZM158.518 342.813C158.518 343.038 158.509 343.277 158.492 343.528C158.475 343.771 158.457 344.009 158.44 344.243H158.479C158.548 344.139 158.631 344.026 158.726 343.905C158.821 343.775 158.917 343.649 159.012 343.528C159.116 343.398 159.216 343.281 159.311 343.177L161.391 340.954H163.25L160.429 343.996L163.432 348H161.521L159.337 344.984L158.518 345.66V348H156.893V338.12H158.518V342.813Z" fill="white"/>
<rect x="121" y="627" width="134" height="5" rx="2.5" fill="white"/>
</svg>
