<svg width="43" height="43" viewBox="0 0 43 43" fill="none" xmlns="http://www.w3.org/2000/svg">
<path fill-rule="evenodd" clip-rule="evenodd" d="M0 21.125C0 9.45798 9.45798 0 21.125 0C32.792 0 42.25 9.45798 42.25 21.125C42.25 32.792 32.792 42.25 21.125 42.25C9.45798 42.25 0 32.792 0 21.125ZM28.9473 17.1945C29.469 16.4642 29.2998 15.4493 28.5695 14.9277C27.8392 14.406 26.8243 14.5752 26.3027 15.3055L19.2926 25.1195L15.774 21.601C15.1394 20.9663 14.1106 20.9663 13.476 21.601C12.8413 22.2356 12.8413 23.2644 13.476 23.899L18.351 28.774C18.6887 29.1118 19.158 29.2839 19.634 29.2445C20.1101 29.2051 20.5447 28.9582 20.8223 28.5695L28.9473 17.1945Z" fill="#27D008"/>
</svg>
