<svg width="343" height="651" viewBox="0 0 343 651" fill="none" xmlns="http://www.w3.org/2000/svg">
<g clip-path="url(#clip0_104_1585)">
<path d="M0 12C0 5.37257 5.37258 0 12 0H331C337.627 0 343 5.37258 343 12V639C343 645.627 337.627 651 331 651H12C5.37258 651 0 645.627 0 639V12Z" fill="white"/>
<g opacity="0.05">
<circle cx="425.306" cy="316.507" r="84.202" stroke="black" stroke-width="0.449077"/>
<circle cx="425.306" cy="316.507" r="90.4891" stroke="black" stroke-width="0.449077"/>
<circle cx="425.306" cy="316.507" r="96.7762" stroke="black" stroke-width="0.449077"/>
<circle cx="425.306" cy="316.507" r="103.063" stroke="black" stroke-width="0.449077"/>
<circle cx="425.306" cy="316.508" r="109.35" stroke="black" stroke-width="0.449077"/>
<circle cx="425.306" cy="316.507" r="115.637" stroke="black" stroke-width="0.449077"/>
<circle cx="425.306" cy="316.507" r="121.925" stroke="black" stroke-width="0.449077"/>
<circle cx="425.306" cy="316.507" r="128.212" stroke="black" stroke-width="0.449077"/>
<circle cx="425.306" cy="316.507" r="134.499" stroke="black" stroke-width="0.449077"/>
<circle cx="425.306" cy="316.506" r="140.786" stroke="black" stroke-width="0.449077"/>
<circle cx="425.306" cy="316.507" r="147.063" stroke="black" stroke-width="0.4691"/>
<circle cx="425.306" cy="316.507" r="153.34" stroke="black" stroke-width="0.489123"/>
</g>
<g opacity="0.05">
<circle cx="179.005" cy="316.507" r="6.28708" stroke="black" stroke-width="0.449077"/>
<circle cx="179.005" cy="316.507" r="2.46993" stroke="black" stroke-width="0.449077"/>
<circle cx="179.004" cy="316.507" r="0.224539" stroke="black" stroke-width="0.448008"/>
<circle cx="179.005" cy="316.507" r="12.7987" stroke="black" stroke-width="0.449077"/>
<circle cx="179.004" cy="316.507" r="19.3103" stroke="black" stroke-width="0.449077"/>
<circle cx="179.005" cy="316.507" r="25.822" stroke="black" stroke-width="0.449077"/>
<circle cx="179.004" cy="316.507" r="32.3336" stroke="black" stroke-width="0.449077"/>
<circle cx="179.004" cy="316.507" r="32.3336" stroke="black" stroke-width="0.449077"/>
<circle cx="179.005" cy="316.507" r="38.8452" stroke="black" stroke-width="0.449077"/>
<circle cx="179.005" cy="316.507" r="45.3568" stroke="black" stroke-width="0.449077"/>
<circle cx="179.005" cy="316.507" r="51.8684" stroke="black" stroke-width="0.449077"/>
<circle cx="179.004" cy="316.507" r="58.3801" stroke="black" stroke-width="0.449077"/>
<circle cx="179.005" cy="316.507" r="64.8917" stroke="black" stroke-width="0.449077"/>
<circle cx="179.004" cy="316.507" r="71.4033" stroke="black" stroke-width="0.449077"/>
<circle cx="179.005" cy="316.507" r="77.9149" stroke="black" stroke-width="0.449077"/>
<circle cx="179.005" cy="316.507" r="84.202" stroke="black" stroke-width="0.449077"/>
<circle cx="179.004" cy="316.507" r="90.4891" stroke="black" stroke-width="0.449077"/>
<circle cx="179.004" cy="316.507" r="96.7762" stroke="black" stroke-width="0.449077"/>
<circle cx="179.005" cy="316.507" r="103.063" stroke="black" stroke-width="0.449077"/>
<circle cx="179.005" cy="316.508" r="109.35" stroke="black" stroke-width="0.449077"/>
<circle cx="179.005" cy="316.507" r="115.637" stroke="black" stroke-width="0.449077"/>
<circle cx="179.005" cy="316.507" r="121.925" stroke="black" stroke-width="0.449077"/>
<circle cx="179.004" cy="316.507" r="128.212" stroke="black" stroke-width="0.449077"/>
<circle cx="179.004" cy="316.507" r="134.499" stroke="black" stroke-width="0.449077"/>
<circle cx="179.005" cy="316.506" r="140.786" stroke="black" stroke-width="0.449077"/>
<circle cx="179.005" cy="316.507" r="147.063" stroke="black" stroke-width="0.4691"/>
<circle cx="179.005" cy="316.507" r="153.34" stroke="black" stroke-width="0.489123"/>
</g>
<g opacity="0.05">
<circle cx="346.037" cy="494.863" r="6.80859" stroke="black" stroke-width="0.486328"/>
<circle cx="346.037" cy="494.862" r="13.8603" stroke="black" stroke-width="0.486328"/>
<circle cx="346.036" cy="494.863" r="20.9121" stroke="black" stroke-width="0.486328"/>
<circle cx="346.036" cy="494.863" r="27.9639" stroke="black" stroke-width="0.486328"/>
<circle cx="346.036" cy="494.863" r="35.0156" stroke="black" stroke-width="0.486328"/>
<circle cx="346.036" cy="494.863" r="35.0156" stroke="black" stroke-width="0.486328"/>
<circle cx="346.036" cy="494.863" r="42.0674" stroke="black" stroke-width="0.486328"/>
<circle cx="346.037" cy="494.863" r="49.1191" stroke="black" stroke-width="0.486328"/>
<circle cx="346.037" cy="494.863" r="56.1709" stroke="black" stroke-width="0.486328"/>
<circle cx="346.037" cy="494.863" r="63.2226" stroke="black" stroke-width="0.486328"/>
<circle cx="346.037" cy="494.863" r="70.2744" stroke="black" stroke-width="0.486328"/>
<circle cx="346.037" cy="494.863" r="77.3262" stroke="black" stroke-width="0.486328"/>
<circle cx="346.037" cy="494.863" r="84.3779" stroke="black" stroke-width="0.486328"/>
<path d="M346.037 403.676C396.398 403.676 437.224 444.502 437.224 494.863C437.224 545.224 396.398 586.049 346.037 586.049C295.676 586.049 254.851 545.224 254.851 494.863C254.851 444.502 295.676 403.676 346.037 403.676Z" stroke="black" stroke-width="0.486328"/>
<circle cx="346.036" cy="494.862" r="97.9951" stroke="black" stroke-width="0.486328"/>
<circle cx="346.037" cy="494.863" r="104.804" stroke="black" stroke-width="0.486328"/>
<circle cx="346.037" cy="494.863" r="111.612" stroke="black" stroke-width="0.486328"/>
<circle cx="346.037" cy="494.863" r="118.421" stroke="black" stroke-width="0.486328"/>
<circle cx="346.036" cy="494.863" r="125.229" stroke="black" stroke-width="0.486328"/>
<circle cx="346.036" cy="494.863" r="132.038" stroke="black" stroke-width="0.486328"/>
<circle cx="346.037" cy="494.863" r="138.847" stroke="black" stroke-width="0.486328"/>
<circle cx="346.036" cy="494.863" r="145.655" stroke="black" stroke-width="0.486328"/>
<circle cx="346.037" cy="494.863" r="152.464" stroke="black" stroke-width="0.486328"/>
<circle cx="346.037" cy="494.863" r="159.262" stroke="black" stroke-width="0.508012"/>
<circle cx="346.037" cy="494.863" r="166.059" stroke="black" stroke-width="0.529695"/>
</g>
<g opacity="0.05">
<circle cx="179.005" cy="636.416" r="6.28708" stroke="black" stroke-width="0.449077"/>
<circle cx="179.005" cy="636.416" r="2.46993" stroke="black" stroke-width="0.449077"/>
<circle cx="179.004" cy="636.415" r="0.224539" stroke="black" stroke-width="0.448008"/>
<circle cx="179.005" cy="636.415" r="12.7987" stroke="black" stroke-width="0.449077"/>
<circle cx="179.004" cy="636.416" r="19.3103" stroke="black" stroke-width="0.449077"/>
<circle cx="179.004" cy="636.416" r="25.822" stroke="black" stroke-width="0.449077"/>
<circle cx="179.004" cy="636.416" r="32.3336" stroke="black" stroke-width="0.449077"/>
<circle cx="179.004" cy="636.416" r="32.3336" stroke="black" stroke-width="0.449077"/>
<circle cx="179.005" cy="636.415" r="38.8452" stroke="black" stroke-width="0.449077"/>
<circle cx="179.005" cy="636.416" r="45.3568" stroke="black" stroke-width="0.449077"/>
<circle cx="179.005" cy="636.416" r="51.8684" stroke="black" stroke-width="0.449077"/>
<circle cx="179.004" cy="636.416" r="58.3801" stroke="black" stroke-width="0.449077"/>
<circle cx="179.004" cy="636.416" r="64.8917" stroke="black" stroke-width="0.449077"/>
<circle cx="179.005" cy="636.415" r="71.4033" stroke="black" stroke-width="0.449077"/>
<circle cx="179.005" cy="636.416" r="77.9149" stroke="black" stroke-width="0.449077"/>
<circle cx="179.004" cy="636.416" r="84.202" stroke="black" stroke-width="0.449077"/>
<circle cx="179.004" cy="636.416" r="90.4891" stroke="black" stroke-width="0.449077"/>
<circle cx="179.004" cy="636.416" r="96.7762" stroke="black" stroke-width="0.449077"/>
<circle cx="179.005" cy="636.416" r="103.063" stroke="black" stroke-width="0.449077"/>
<circle cx="179.005" cy="636.416" r="109.35" stroke="black" stroke-width="0.449077"/>
<circle cx="179.005" cy="636.415" r="115.637" stroke="black" stroke-width="0.449077"/>
<circle cx="179.004" cy="636.415" r="121.925" stroke="black" stroke-width="0.449077"/>
<circle cx="179.004" cy="636.416" r="128.212" stroke="black" stroke-width="0.449077"/>
<circle cx="179.004" cy="636.416" r="134.499" stroke="black" stroke-width="0.449077"/>
<circle cx="179.005" cy="636.416" r="140.786" stroke="black" stroke-width="0.449077"/>
<circle cx="179.005" cy="636.416" r="147.063" stroke="black" stroke-width="0.4691"/>
<circle cx="179.005" cy="636.416" r="153.34" stroke="black" stroke-width="0.489123"/>
</g>
<g opacity="0.05">
<circle cx="16.9271" cy="491.325" r="6.66373" stroke="black" stroke-width="0.475981"/>
<circle cx="16.9273" cy="491.324" r="2.61789" stroke="black" stroke-width="0.475981"/>
<circle cx="16.9268" cy="491.324" r="0.237991" stroke="black" stroke-width="0.47598"/>
<circle cx="16.9272" cy="491.324" r="13.5654" stroke="black" stroke-width="0.475981"/>
<circle cx="16.9264" cy="491.324" r="20.4672" stroke="black" stroke-width="0.475981"/>
<circle cx="16.9266" cy="491.325" r="27.3689" stroke="black" stroke-width="0.475981"/>
<circle cx="16.9267" cy="491.324" r="34.2706" stroke="black" stroke-width="0.475981"/>
<circle cx="16.9267" cy="491.324" r="34.2706" stroke="black" stroke-width="0.475981"/>
<circle cx="16.9267" cy="491.324" r="41.1723" stroke="black" stroke-width="0.475981"/>
<circle cx="16.9275" cy="491.324" r="48.074" stroke="black" stroke-width="0.475981"/>
<circle cx="16.9276" cy="491.324" r="54.9758" stroke="black" stroke-width="0.475981"/>
<path d="M16.9266 429.447C51.1005 429.447 78.8044 457.15 78.8046 491.324C78.8046 525.498 51.1006 553.202 16.9266 553.202C-17.2472 553.202 -44.9503 525.498 -44.9503 491.324C-44.9502 457.15 -17.2472 429.447 16.9266 429.447Z" stroke="black" stroke-width="0.475981"/>
<circle cx="16.927" cy="491.324" r="68.7792" stroke="black" stroke-width="0.475981"/>
<circle cx="16.9271" cy="491.324" r="75.6809" stroke="black" stroke-width="0.475981"/>
<circle cx="16.9271" cy="491.325" r="82.5826" stroke="black" stroke-width="0.475981"/>
<circle cx="16.9273" cy="491.324" r="89.2464" stroke="black" stroke-width="0.475981"/>
<circle cx="16.9268" cy="491.324" r="95.9101" stroke="black" stroke-width="0.475981"/>
<circle cx="16.9269" cy="491.324" r="102.574" stroke="black" stroke-width="0.475981"/>
<circle cx="16.9271" cy="491.324" r="109.238" stroke="black" stroke-width="0.475981"/>
<circle cx="16.9272" cy="491.324" r="115.901" stroke="black" stroke-width="0.475981"/>
<circle cx="16.9268" cy="491.325" r="122.565" stroke="black" stroke-width="0.475981"/>
<circle cx="16.9269" cy="491.324" r="129.229" stroke="black" stroke-width="0.475981"/>
<circle cx="16.927" cy="491.324" r="135.892" stroke="black" stroke-width="0.475981"/>
<circle cx="16.9265" cy="491.324" r="142.556" stroke="black" stroke-width="0.475981"/>
<circle cx="16.9274" cy="491.324" r="149.22" stroke="black" stroke-width="0.475981"/>
<circle cx="16.9268" cy="491.324" r="155.873" stroke="black" stroke-width="0.497203"/>
<circle cx="16.927" cy="491.324" r="162.526" stroke="black" stroke-width="0.518425"/>
</g>
<g opacity="0.05">
<circle cx="340.375" cy="167.877" r="6.57681" stroke="black" stroke-width="0.469772"/>
<circle cx="340.375" cy="167.877" r="2.58375" stroke="black" stroke-width="0.469772"/>
<circle cx="340.374" cy="167.877" r="0.234886" stroke="black" stroke-width="0.469772"/>
<circle cx="340.375" cy="167.877" r="13.3885" stroke="black" stroke-width="0.469772"/>
<circle cx="340.374" cy="167.877" r="20.2002" stroke="black" stroke-width="0.469772"/>
<circle cx="340.375" cy="167.877" r="27.0119" stroke="black" stroke-width="0.469772"/>
<circle cx="340.374" cy="167.877" r="33.8236" stroke="black" stroke-width="0.469772"/>
<circle cx="340.374" cy="167.877" r="33.8236" stroke="black" stroke-width="0.469772"/>
<circle cx="340.374" cy="167.877" r="40.6353" stroke="black" stroke-width="0.469772"/>
<circle cx="340.375" cy="167.877" r="47.447" stroke="black" stroke-width="0.469772"/>
<circle cx="340.374" cy="167.877" r="54.2587" stroke="black" stroke-width="0.469772"/>
<circle cx="340.374" cy="167.877" r="61.0704" stroke="black" stroke-width="0.469772"/>
<circle cx="340.375" cy="167.877" r="67.8821" stroke="black" stroke-width="0.469772"/>
<circle cx="340.375" cy="167.877" r="74.6938" stroke="black" stroke-width="0.469772"/>
<circle cx="340.375" cy="167.877" r="81.5055" stroke="black" stroke-width="0.469772"/>
<circle cx="340.375" cy="167.877" r="88.0823" stroke="black" stroke-width="0.469772"/>
<circle cx="340.374" cy="167.877" r="94.6591" stroke="black" stroke-width="0.469772"/>
<circle cx="340.374" cy="167.877" r="101.236" stroke="black" stroke-width="0.469772"/>
<circle cx="340.375" cy="167.877" r="107.813" stroke="black" stroke-width="0.469772"/>
<circle cx="340.375" cy="167.877" r="114.39" stroke="black" stroke-width="0.469772"/>
<path d="M340.374 46.9111C407.182 46.9111 461.341 101.069 461.341 167.877C461.341 234.685 407.182 288.844 340.374 288.844C273.566 288.844 219.408 234.685 219.408 167.877C219.408 101.069 273.566 46.9112 340.374 46.9111Z" stroke="black" stroke-width="0.469772"/>
<circle cx="340.374" cy="167.877" r="127.543" stroke="black" stroke-width="0.469772"/>
<circle cx="340.374" cy="167.877" r="134.12" stroke="black" stroke-width="0.469772"/>
<circle cx="340.374" cy="167.876" r="140.697" stroke="black" stroke-width="0.469772"/>
<circle cx="340.375" cy="167.877" r="147.274" stroke="black" stroke-width="0.469772"/>
<circle cx="340.374" cy="167.877" r="153.84" stroke="black" stroke-width="0.490718"/>
<circle cx="340.374" cy="167.877" r="160.406" stroke="black" stroke-width="0.511663"/>
</g>
<g opacity="0.05">
<circle cx="17.6348" cy="166.462" r="6.63476" stroke="black" stroke-width="0.473911"/>
<circle cx="17.6351" cy="166.462" r="2.60651" stroke="black" stroke-width="0.473911"/>
<circle cx="17.6346" cy="166.462" r="0.236956" stroke="black" stroke-width="0.473911"/>
<circle cx="17.6349" cy="166.462" r="13.5065" stroke="black" stroke-width="0.473911"/>
<circle cx="17.6342" cy="166.462" r="20.3782" stroke="black" stroke-width="0.473911"/>
<circle cx="17.635" cy="166.461" r="27.2499" stroke="black" stroke-width="0.473911"/>
<circle cx="17.6344" cy="166.462" r="34.1216" stroke="black" stroke-width="0.473911"/>
<circle cx="17.6344" cy="166.462" r="34.1216" stroke="black" stroke-width="0.473911"/>
<circle cx="17.6344" cy="166.461" r="40.9933" stroke="black" stroke-width="0.473911"/>
<circle cx="17.6353" cy="166.461" r="47.865" stroke="black" stroke-width="0.473911"/>
<circle cx="17.6346" cy="166.461" r="54.7367" stroke="black" stroke-width="0.473911"/>
<circle cx="17.6347" cy="166.461" r="61.6085" stroke="black" stroke-width="0.473911"/>
<circle cx="17.6347" cy="166.461" r="68.4802" stroke="black" stroke-width="0.473911"/>
<circle cx="17.6348" cy="166.462" r="75.3519" stroke="black" stroke-width="0.473911"/>
<circle cx="17.6349" cy="166.462" r="82.2236" stroke="black" stroke-width="0.473911"/>
<circle cx="17.6351" cy="166.462" r="88.8583" stroke="black" stroke-width="0.473911"/>
<circle cx="17.6345" cy="166.462" r="95.4931" stroke="black" stroke-width="0.473911"/>
<circle cx="17.6347" cy="166.461" r="102.128" stroke="black" stroke-width="0.473911"/>
<circle cx="17.6356" cy="166.461" r="108.763" stroke="black" stroke-width="0.473911"/>
<circle cx="17.635" cy="166.462" r="115.397" stroke="black" stroke-width="0.473911"/>
<circle cx="17.6344" cy="166.461" r="122.032" stroke="black" stroke-width="0.473911"/>
<circle cx="17.6346" cy="166.461" r="128.667" stroke="black" stroke-width="0.473911"/>
<circle cx="17.6341" cy="166.462" r="135.302" stroke="black" stroke-width="0.473911"/>
<circle cx="17.6342" cy="166.461" r="141.936" stroke="black" stroke-width="0.473911"/>
<circle cx="17.6352" cy="166.461" r="148.571" stroke="black" stroke-width="0.473911"/>
<circle cx="17.6346" cy="166.461" r="155.195" stroke="black" stroke-width="0.495041"/>
<circle cx="17.6348" cy="166.461" r="161.82" stroke="black" stroke-width="0.516171"/>
</g>
<g opacity="0.05">
<circle cx="179.005" cy="13.5844" r="6.28708" stroke="black" stroke-width="0.449077"/>
<circle cx="179.005" cy="13.5851" r="2.46993" stroke="black" stroke-width="0.449077"/>
<circle cx="179.004" cy="13.5838" r="0.224539" stroke="black" stroke-width="0.448008"/>
<circle cx="179.005" cy="13.5843" r="12.7987" stroke="black" stroke-width="0.449077"/>
<circle cx="179.004" cy="13.5847" r="19.3103" stroke="black" stroke-width="0.449077"/>
<circle cx="179.005" cy="13.5846" r="25.822" stroke="black" stroke-width="0.449077"/>
<circle cx="179.004" cy="13.5845" r="32.3336" stroke="black" stroke-width="0.449077"/>
<circle cx="179.004" cy="13.5845" r="32.3336" stroke="black" stroke-width="0.449077"/>
<circle cx="179.005" cy="13.5844" r="38.8452" stroke="black" stroke-width="0.449077"/>
<circle cx="179.005" cy="13.5848" r="45.3568" stroke="black" stroke-width="0.449077"/>
<circle cx="179.005" cy="13.5847" r="51.8684" stroke="black" stroke-width="0.449077"/>
<circle cx="179.004" cy="13.5846" r="58.3801" stroke="black" stroke-width="0.449077"/>
<circle cx="179.005" cy="13.5845" r="64.8917" stroke="black" stroke-width="0.449077"/>
<circle cx="179.004" cy="13.5844" r="71.4033" stroke="black" stroke-width="0.449077"/>
<circle cx="179.005" cy="13.5848" r="77.9149" stroke="black" stroke-width="0.449077"/>
<circle cx="179.005" cy="13.5848" r="84.202" stroke="black" stroke-width="0.449077"/>
<circle cx="179.004" cy="13.5847" r="90.4891" stroke="black" stroke-width="0.449077"/>
<circle cx="179.004" cy="13.5847" r="96.7762" stroke="black" stroke-width="0.449077"/>
<circle cx="179.005" cy="13.5842" r="103.063" stroke="black" stroke-width="0.449077"/>
<circle cx="179.005" cy="13.5846" r="109.35" stroke="black" stroke-width="0.449077"/>
<circle cx="179.005" cy="13.5842" r="115.637" stroke="black" stroke-width="0.449077"/>
<circle cx="179.005" cy="13.5841" r="121.925" stroke="black" stroke-width="0.449077"/>
<circle cx="179.004" cy="13.5846" r="128.212" stroke="black" stroke-width="0.449077"/>
<circle cx="179.004" cy="13.5845" r="134.499" stroke="black" stroke-width="0.449077"/>
<circle cx="179.005" cy="13.5841" r="140.786" stroke="black" stroke-width="0.449077"/>
<circle cx="179.005" cy="13.5845" r="147.063" stroke="black" stroke-width="0.4691"/>
<circle cx="179.005" cy="13.5845" r="153.34" stroke="black" stroke-width="0.489123"/>
</g>
<g opacity="0.05">
<circle cx="-82.8673" cy="316.507" r="84.202" stroke="black" stroke-width="0.449077"/>
<circle cx="-82.8679" cy="316.507" r="90.4891" stroke="black" stroke-width="0.449077"/>
<circle cx="-82.8678" cy="316.507" r="96.7762" stroke="black" stroke-width="0.449077"/>
<circle cx="-82.867" cy="316.507" r="103.063" stroke="black" stroke-width="0.449077"/>
<circle cx="-82.8676" cy="316.508" r="109.35" stroke="black" stroke-width="0.449077"/>
<circle cx="-82.8674" cy="316.507" r="115.637" stroke="black" stroke-width="0.449077"/>
<circle cx="-82.8674" cy="316.507" r="121.925" stroke="black" stroke-width="0.449077"/>
<circle cx="-82.8681" cy="316.507" r="128.212" stroke="black" stroke-width="0.449077"/>
<circle cx="-82.8678" cy="316.507" r="134.499" stroke="black" stroke-width="0.449077"/>
<circle cx="-82.867" cy="316.506" r="140.786" stroke="black" stroke-width="0.449077"/>
<circle cx="-82.8676" cy="316.507" r="147.063" stroke="black" stroke-width="0.4691"/>
<circle cx="-82.8676" cy="316.507" r="153.34" stroke="black" stroke-width="0.489123"/>
</g>
<path opacity="0.1" d="M77.4313 256.986L97.862 390.124L136.769 312.644C136.801 312.814 149.074 378.302 135.342 404.183C130.368 414.351 124.869 424.255 118.869 433.855H66.989L24.8337 256.986H77.4313ZM192.03 256.986L214.016 390.124L268.884 256.986H317.394L233.666 433.855H183.797L139.433 256.986H192.03ZM173.352 166.682C177.147 166.625 180.912 167.372 184.397 168.874C187.882 170.377 191.008 172.601 193.57 175.399C196.132 178.196 198.071 181.505 199.258 185.106C200.446 188.707 200.856 192.519 200.462 196.29C199.701 204.188 196.065 211.533 190.244 216.931C184.422 222.329 176.819 225.404 168.878 225.574C165.11 225.637 161.371 224.904 157.906 223.424C154.441 221.944 151.327 219.751 148.768 216.987C146.21 214.224 144.263 210.951 143.057 207.385C141.851 203.818 141.412 200.038 141.768 196.29C142.514 188.38 146.144 181.02 151.967 175.609C157.791 170.198 165.401 167.113 173.352 166.942V166.682Z" fill="#C7C6C6"/>
</g>
<defs>
<clipPath id="clip0_104_1585">
<path d="M0 12C0 5.37257 5.37258 0 12 0H331C337.627 0 343 5.37258 343 12V639C343 645.627 337.627 651 331 651H12C5.37258 651 0 645.627 0 639V12Z" fill="white"/>
</clipPath>
</defs>
</svg>
