<svg preserveAspectRatio="none" width="100%" height="100%" overflow="visible" style="display: block;" viewBox="0 0 62 11.0415" fill="none" xmlns="http://www.w3.org/2000/svg">
<path id="Path 401" d="M6.50089 10.8546L4.77129 3.45104H6.90478L7.75596 8.69397L7.79852 9.12356L7.95726 8.69397L10.0907 3.45104L12.1229 3.55125L8.64927 10.8546H6.50089ZM3.81967 10.8546H1.71513L0 3.45104H2.11944L2.97062 8.69397L3.01318 9.12356L3.17193 8.69397L4.58361 5.88562C4.68136 6.1326 4.75851 6.38715 4.81428 6.64669C4.88363 6.95964 4.92226 7.27852 4.92961 7.59888C4.93878 7.94441 4.91225 8.28997 4.85045 8.63013C4.7894 8.9746 4.66996 9.30629 4.49721 9.61107L3.81967 10.8546ZM12.3817 10.8546L13.2899 3.45104H15.3081L14.3998 10.8546H12.3817ZM13.3763 1.30312C13.4214 0.974676 13.5823 0.672764 13.8304 0.451141C14.0685 0.22373 14.3866 0.0977953 14.7169 0.100208C14.8709 0.0982172 15.0235 0.129978 15.1638 0.193228C15.2963 0.253775 15.4142 0.341699 15.5098 0.451141C15.6058 0.560774 15.6748 0.691039 15.7115 0.83168C15.7507 0.986081 15.7606 1.14641 15.7405 1.3044C15.7069 1.62911 15.5496 1.92878 15.3008 2.14199C15.0591 2.36216 14.7423 2.48304 14.4143 2.48025C14.264 2.48681 14.1141 2.45984 13.9756 2.4013C13.8372 2.34277 13.7137 2.25416 13.6142 2.14199C13.5157 2.02769 13.4433 1.89345 13.4023 1.74859C13.3612 1.60373 13.3523 1.45173 13.3763 1.30312V1.30312ZM25.1439 10.8546L23.4143 3.45104H25.5478L26.3989 8.69397L26.4415 9.12356L26.6002 8.69397L28.7337 3.45104L30.7659 3.55125L27.2923 10.8546H25.1439ZM22.4627 10.8546H20.3577L18.6426 3.45104H20.7603L21.6115 8.69397L21.654 9.12356L21.8128 8.69397L23.2253 5.88731C23.3231 6.13429 23.4002 6.38884 23.456 6.64838C23.5253 6.96133 23.564 7.28021 23.5713 7.60057C23.5805 7.9461 23.554 8.29167 23.4922 8.63183C23.4311 8.9763 23.3117 9.30798 23.1389 9.61276L22.4627 10.8546ZM37.9435 9.05041C37.904 9.33277 37.8824 9.61733 37.8788 9.90239C37.8752 10.221 37.8968 10.5394 37.9435 10.8546H36.4007C36.3258 10.8087 36.2639 10.7447 36.2207 10.6685C36.1515 10.5586 36.0959 10.4408 36.0552 10.3176C36.0049 10.1689 35.971 10.0152 35.9543 9.85927C35.9352 9.69067 35.9352 9.52047 35.9543 9.35188L36.502 4.87002C36.3293 4.82569 36.1535 4.79459 35.976 4.777C35.8174 4.76262 35.6853 4.75543 35.5798 4.75543C35.271 4.75147 34.9653 4.81755 34.686 4.94866C34.4163 5.07805 34.1778 5.26365 33.9868 5.49282C33.7789 5.74561 33.6156 6.03152 33.5038 6.33846C33.3741 6.68725 33.2869 7.05022 33.2441 7.41961C33.215 7.65711 33.2008 7.89618 33.2016 8.13543C33.1989 8.36607 33.2329 8.59568 33.3024 8.81575C33.359 9.00344 33.4632 9.17351 33.605 9.3096C33.6845 9.37488 33.777 9.42269 33.8764 9.44987C33.9758 9.47706 34.0798 9.483 34.1817 9.46731C34.3023 9.45156 34.425 9.46628 34.5384 9.51011C34.6517 9.55393 34.7521 9.62545 34.8303 9.71804C35.0028 9.9317 35.1571 10.1593 35.2917 10.3984C35.0129 10.5562 34.7212 10.6903 34.4196 10.7992C34.1577 10.8972 33.8837 10.9597 33.605 10.9852C33.1873 11.024 32.768 10.9287 32.4087 10.7134C32.0732 10.5042 31.7917 10.2198 31.5869 9.88294C31.3694 9.5234 31.218 9.12823 31.14 8.71596C31.054 8.28927 31.0396 7.85138 31.0975 7.42003C31.1607 6.86062 31.319 6.31592 31.5656 5.80909C31.8029 5.3183 32.1276 4.87423 32.524 4.49836C32.9283 4.1194 33.3999 3.81832 33.9149 3.61044C34.4757 3.38562 35.0759 3.27366 35.6806 3.28106C35.8824 3.28106 36.0818 3.28586 36.279 3.29544C36.4762 3.30503 36.69 3.32645 36.9204 3.35971C37.1511 3.39325 37.4033 3.43864 37.6771 3.49586C37.9509 3.55308 38.2609 3.62468 38.607 3.71065L37.9435 9.05041ZM41.9364 10.8546H39.9327L41.2733 0L43.2625 0.100208L41.9364 10.8546ZM46.0012 10.8546H43.9975L45.3381 0L47.3273 0.100208L46.0012 10.8546ZM53.1218 6.31521C53.1781 6.1102 53.1975 5.89693 53.1792 5.68521C53.1644 5.49857 53.1079 5.31757 53.0137 5.15542C52.923 5.00319 52.7937 4.87723 52.6387 4.7901C52.4644 4.69546 52.2679 4.64848 52.0693 4.65396C51.8564 4.65564 51.6459 4.69873 51.4496 4.7808C51.2263 4.87478 51.025 5.01371 50.8585 5.18882C50.6591 5.39952 50.4959 5.64135 50.3754 5.90465C50.2247 6.23789 50.1298 6.59338 50.0945 6.95704C49.9568 7.61673 50.0725 8.30373 50.4188 8.88298C50.5735 9.10434 50.7823 9.28294 51.0256 9.40196C51.269 9.52098 51.5388 9.5765 51.8097 9.56329C52.1473 9.56314 52.4838 9.52225 52.8115 9.44152C53.2089 9.33749 53.5969 9.20102 53.9717 9.0335L54.3177 10.3654C53.8288 10.5936 53.3165 10.7688 52.7898 10.888C52.3352 10.9865 51.8715 11.037 51.4062 11.0385C50.83 11.0579 50.2579 10.9348 49.7413 10.6804C49.3169 10.4612 48.9513 10.1446 48.6748 9.75694C48.4074 9.37226 48.2256 8.93536 48.1415 8.47538C48.0502 7.99865 48.0331 7.51081 48.0909 7.02892C48.1563 6.47318 48.3249 5.93429 48.5879 5.43955C48.8288 4.98873 49.1541 4.58776 49.5464 4.2582C49.9314 3.93803 50.3706 3.68836 50.8436 3.5208C51.3243 3.34886 51.8316 3.26158 52.3425 3.26288C52.8319 3.25404 53.3164 3.36207 53.755 3.57789C54.1504 3.77157 54.4808 4.075 54.7062 4.45142C54.9365 4.85982 55.0511 5.32257 55.0378 5.79049C55.0205 6.38072 54.8729 6.95998 54.6054 7.48726H50.5695C50.6984 7.1755 50.8862 6.89117 51.1228 6.64966C51.2125 6.54834 51.322 6.46613 51.4446 6.40799C51.5672 6.34986 51.7003 6.317 51.8361 6.3114L53.1218 6.31521ZM57.3453 4.86874H56.1481L56.2924 3.73729L57.5177 3.45104L57.7339 1.68958L59.7086 1.07396L58.8574 8.01916C58.7737 8.40616 58.8325 8.81016 59.023 9.15781C59.1034 9.28777 59.2173 9.39409 59.3528 9.4658C59.4884 9.53752 59.6407 9.57205 59.7942 9.56583C59.9536 9.56389 60.1127 9.54975 60.27 9.52355C60.4908 9.48499 60.7078 9.42756 60.9186 9.35188L61.1782 10.655C60.8034 10.779 60.4743 10.8744 60.1908 10.9413C59.9337 11.0048 59.6701 11.0384 59.4052 11.0415C58.4828 11.0415 57.8125 10.7837 57.3943 10.2681C56.9761 9.75257 56.8295 9.0032 56.9546 8.02001L57.3453 4.86874ZM61.1795 4.86874C60.9923 4.87499 60.8072 4.82774 60.6462 4.7326C60.5038 4.6432 60.3791 4.52854 60.2785 4.39435C60.1758 4.25733 60.0955 4.10508 60.0406 3.9432C59.9852 3.78198 59.9425 3.61672 59.9129 3.44892H62L61.8272 4.86663L61.1795 4.86874Z" fill="var(--fill-0, #DDAD51)"/>
</svg>
