<svg preserveAspectRatio="none" width="100%" height="100%" overflow="visible" style="display: block;" viewBox="0 0 20 20" fill="none" xmlns="http://www.w3.org/2000/svg">
<path id="Path 400" d="M10 20C9.65867 20.0006 9.31741 19.9834 8.97787 19.9486C8.64484 19.9158 8.31104 19.8625 7.98277 19.7996C7.66358 19.7315 7.33927 19.6486 7.02483 19.5503C6.71347 19.4545 6.40724 19.3425 6.10745 19.2152C5.5117 18.9639 4.9427 18.6546 4.40868 18.2907C3.87668 17.9326 3.38081 17.5239 2.92786 17.0705C2.01444 16.1591 1.28666 15.0799 0.784757 13.8927C0.658898 13.5909 0.546277 13.2849 0.449396 12.9741C0.35089 12.6591 0.269581 12.3385 0.204422 12.015C0.136385 11.6874 0.0854452 11.3569 0.0532138 11.0239C-0.0177379 10.3443 -0.0177379 9.65907 0.0532138 8.97945C0.0848335 8.64539 0.135778 8.3135 0.204422 7.985C0.269476 7.66092 0.350786 7.34064 0.449396 7.02509C0.54671 6.71597 0.658898 6.40692 0.784757 6.10643C1.79814 3.71042 3.70697 1.80081 6.10745 0.783091C6.40631 0.656773 6.71559 0.547099 7.02483 0.448804C7.33408 0.350508 7.66358 0.266776 7.98277 0.201246C8.31061 0.134853 8.64441 0.0841899 8.97787 0.0488379C9.31133 0.013486 9.65875 0 10 0C10.3412 0 10.6835 0.0152105 11.023 0.0488379C11.3551 0.0841899 11.6912 0.135716 12.0147 0.201246C12.3383 0.267456 12.6583 0.350145 12.9735 0.448804C13.2836 0.547531 13.5928 0.656773 13.8917 0.783091C15.0802 1.2869 16.1596 2.01591 17.0705 2.92859C17.9824 3.84158 18.7105 4.92033 19.2152 6.10643C19.3385 6.40821 19.4537 6.71597 19.5506 7.02509C19.6475 7.3342 19.7298 7.66252 19.7956 7.985C19.8629 8.31377 19.9132 8.64558 19.9468 8.97945C20.0177 9.65907 20.0177 10.3443 19.9468 11.0239C19.9131 11.355 19.8605 11.6878 19.7956 12.015C19.7298 12.3349 19.6475 12.6589 19.5506 12.9741C19.4537 13.2892 19.3385 13.5931 19.2152 13.8927C18.7127 15.08 17.9844 16.1592 17.0705 17.0705C16.1575 17.981 15.0787 18.7091 13.8917 19.216C13.5917 19.3435 13.2852 19.4555 12.9735 19.5512C12.6599 19.6499 12.3382 19.7323 12.0147 19.8004C11.6912 19.8685 11.3551 19.9167 11.023 19.9495C10.6831 19.9841 10.3416 20.0007 10 20V20ZM8.85876 7.4141L10.718 14.8552H12.8341L16.3524 7.4141H14.3327L11.986 13.0018L11.0661 7.4141H8.85876ZM3.9804 7.4141L5.76617 14.8518H7.97178L8.52509 13.8666L8.73036 13.4464L8.82835 13.1214L8.87481 12.8713L8.92296 12.4486V11.7194L8.89508 11.0189L8.72698 9.76338L7.07721 13.0338L6.21473 7.41495L3.9804 7.4141ZM10.4013 3.92219C10.2517 3.92286 10.1035 3.94897 9.96283 3.99966C9.81514 4.05286 9.67775 4.13154 9.55736 4.23206C9.42742 4.34181 9.31881 4.4746 9.2372 4.62361C9.16021 4.76457 9.11117 4.91886 9.09275 5.0783C9.08231 5.15618 9.08042 5.23492 9.08684 5.31323C9.09273 5.39174 9.10706 5.46943 9.12992 5.54479C9.17348 5.69852 9.2488 5.84212 9.35124 5.96497C9.40702 6.03118 9.47064 6.09106 9.53962 6.14348C9.60927 6.19284 9.68297 6.23561 9.76009 6.27231C9.83796 6.30494 9.91842 6.33051 10.0008 6.34893C10.084 6.36562 10.1686 6.37369 10.2534 6.37335C10.4029 6.3737 10.5512 6.34812 10.6918 6.29757C11.0016 6.18386 11.2596 5.96217 11.4183 5.67362C11.495 5.53277 11.5443 5.37886 11.5636 5.21977C11.5726 5.14121 11.5756 5.0621 11.5712 4.98315C11.5638 4.90569 11.5487 4.82896 11.5273 4.75412C11.4829 4.59924 11.4065 4.45564 11.3026 4.33226C11.2472 4.26591 11.1844 4.20624 11.1151 4.15459C11.0466 4.10478 10.973 4.06244 10.8954 4.02829C10.8193 3.99089 10.7383 3.96489 10.6547 3.95082C10.5717 3.93153 10.4864 3.92154 10.4013 3.92135V3.92219Z" fill="var(--fill-0, #DDAD51)"/>
</svg>
