<svg preserveAspectRatio="none" width="100%" height="100%" overflow="visible" style="display: block;" viewBox="0 0 736.438 840" fill="none" xmlns="http://www.w3.org/2000/svg">
<g id="bg">
<g id="Graphic Background" opacity="0.05">
<circle id="Ellipse 193" cx="597.717" cy="412.329" r="5.67866" stroke="var(--stroke-0, black)" stroke-width="0.405618"/>
<circle id="Ellipse 216" cx="597.717" cy="412.329" r="2.2309" stroke="var(--stroke-0, black)" stroke-width="0.405618"/>
<circle id="Ellipse 217" cx="597.716" cy="412.328" r="0.202809" stroke="var(--stroke-0, black)" stroke-width="0.404653"/>
<circle id="Ellipse 194" cx="597.717" cy="412.329" r="11.5601" stroke="var(--stroke-0, black)" stroke-width="0.405618"/>
<circle id="Ellipse 195" cx="597.717" cy="412.329" r="17.4416" stroke="var(--stroke-0, black)" stroke-width="0.405618"/>
<circle id="Ellipse 196" cx="597.717" cy="412.329" r="23.3231" stroke="var(--stroke-0, black)" stroke-width="0.405618"/>
<circle id="Ellipse 197" cx="597.717" cy="412.329" r="29.2045" stroke="var(--stroke-0, black)" stroke-width="0.405618"/>
<circle id="Ellipse 198" cx="597.717" cy="412.329" r="29.2045" stroke="var(--stroke-0, black)" stroke-width="0.405618"/>
<circle id="Ellipse 199" cx="597.717" cy="412.329" r="35.086" stroke="var(--stroke-0, black)" stroke-width="0.405618"/>
<circle id="Ellipse 200" cx="597.717" cy="412.329" r="40.9675" stroke="var(--stroke-0, black)" stroke-width="0.405618"/>
<circle id="Ellipse 201" cx="597.717" cy="412.329" r="46.8489" stroke="var(--stroke-0, black)" stroke-width="0.405618"/>
<circle id="Ellipse 202" cx="597.717" cy="412.329" r="52.7304" stroke="var(--stroke-0, black)" stroke-width="0.405618"/>
<circle id="Ellipse 203" cx="597.717" cy="412.329" r="58.6118" stroke="var(--stroke-0, black)" stroke-width="0.405618"/>
<circle id="Ellipse 204" cx="597.717" cy="412.329" r="64.4933" stroke="var(--stroke-0, black)" stroke-width="0.405618"/>
<circle id="Ellipse 205" cx="597.717" cy="412.329" r="70.3748" stroke="var(--stroke-0, black)" stroke-width="0.405618"/>
<circle id="Ellipse 206" cx="597.717" cy="412.329" r="76.0534" stroke="var(--stroke-0, black)" stroke-width="0.405618"/>
<circle id="Ellipse 207" cx="597.716" cy="412.329" r="81.7321" stroke="var(--stroke-0, black)" stroke-width="0.405618"/>
<circle id="Ellipse 208" cx="597.717" cy="412.329" r="87.4107" stroke="var(--stroke-0, black)" stroke-width="0.405618"/>
<circle id="Ellipse 209" cx="597.717" cy="412.329" r="93.0894" stroke="var(--stroke-0, black)" stroke-width="0.405618"/>
<circle id="Ellipse 210" cx="597.717" cy="412.329" r="98.768" stroke="var(--stroke-0, black)" stroke-width="0.405618"/>
<circle id="Ellipse 211" cx="597.717" cy="412.329" r="104.447" stroke="var(--stroke-0, black)" stroke-width="0.405618"/>
<circle id="Ellipse 212" cx="597.717" cy="412.329" r="110.125" stroke="var(--stroke-0, black)" stroke-width="0.405618"/>
<circle id="Ellipse 213" cx="597.717" cy="412.329" r="115.804" stroke="var(--stroke-0, black)" stroke-width="0.405618"/>
<circle id="Ellipse 214" cx="597.717" cy="412.329" r="121.483" stroke="var(--stroke-0, black)" stroke-width="0.405618"/>
<circle id="Ellipse 215" cx="597.717" cy="412.329" r="127.161" stroke="var(--stroke-0, black)" stroke-width="0.405618"/>
<circle id="Ellipse 218" cx="597.717" cy="412.329" r="132.831" stroke="var(--stroke-0, black)" stroke-width="0.423703"/>
<circle id="Ellipse 219" cx="597.717" cy="412.329" r="138.501" stroke="var(--stroke-0, black)" stroke-width="0.441788"/>
</g>
<g id="Graphic Background_2" opacity="0.05">
<circle id="Ellipse 193_2" cx="375.251" cy="412.329" r="5.67866" stroke="var(--stroke-0, black)" stroke-width="0.405618"/>
<circle id="Ellipse 216_2" cx="375.251" cy="412.329" r="2.2309" stroke="var(--stroke-0, black)" stroke-width="0.405618"/>
<circle id="Ellipse 217_2" cx="375.25" cy="412.328" r="0.202809" stroke="var(--stroke-0, black)" stroke-width="0.404653"/>
<circle id="Ellipse 194_2" cx="375.251" cy="412.329" r="11.5601" stroke="var(--stroke-0, black)" stroke-width="0.405618"/>
<circle id="Ellipse 195_2" cx="375.251" cy="412.329" r="17.4416" stroke="var(--stroke-0, black)" stroke-width="0.405618"/>
<circle id="Ellipse 196_2" cx="375.251" cy="412.329" r="23.3231" stroke="var(--stroke-0, black)" stroke-width="0.405618"/>
<circle id="Ellipse 197_2" cx="375.251" cy="412.329" r="29.2045" stroke="var(--stroke-0, black)" stroke-width="0.405618"/>
<circle id="Ellipse 198_2" cx="375.251" cy="412.329" r="29.2045" stroke="var(--stroke-0, black)" stroke-width="0.405618"/>
<circle id="Ellipse 199_2" cx="375.251" cy="412.329" r="35.086" stroke="var(--stroke-0, black)" stroke-width="0.405618"/>
<circle id="Ellipse 200_2" cx="375.251" cy="412.329" r="40.9675" stroke="var(--stroke-0, black)" stroke-width="0.405618"/>
<circle id="Ellipse 201_2" cx="375.251" cy="412.329" r="46.8489" stroke="var(--stroke-0, black)" stroke-width="0.405618"/>
<circle id="Ellipse 202_2" cx="375.251" cy="412.329" r="52.7304" stroke="var(--stroke-0, black)" stroke-width="0.405618"/>
<circle id="Ellipse 203_2" cx="375.251" cy="412.329" r="58.6118" stroke="var(--stroke-0, black)" stroke-width="0.405618"/>
<circle id="Ellipse 204_2" cx="375.251" cy="412.329" r="64.4933" stroke="var(--stroke-0, black)" stroke-width="0.405618"/>
<circle id="Ellipse 205_2" cx="375.251" cy="412.329" r="70.3748" stroke="var(--stroke-0, black)" stroke-width="0.405618"/>
<circle id="Ellipse 206_2" cx="375.251" cy="412.329" r="76.0534" stroke="var(--stroke-0, black)" stroke-width="0.405618"/>
<circle id="Ellipse 207_2" cx="375.251" cy="412.329" r="81.7321" stroke="var(--stroke-0, black)" stroke-width="0.405618"/>
<circle id="Ellipse 208_2" cx="375.251" cy="412.329" r="87.4107" stroke="var(--stroke-0, black)" stroke-width="0.405618"/>
<circle id="Ellipse 209_2" cx="375.252" cy="412.329" r="93.0894" stroke="var(--stroke-0, black)" stroke-width="0.405618"/>
<circle id="Ellipse 210_2" cx="375.251" cy="412.329" r="98.768" stroke="var(--stroke-0, black)" stroke-width="0.405618"/>
<circle id="Ellipse 211_2" cx="375.251" cy="412.329" r="104.447" stroke="var(--stroke-0, black)" stroke-width="0.405618"/>
<circle id="Ellipse 212_2" cx="375.251" cy="412.329" r="110.125" stroke="var(--stroke-0, black)" stroke-width="0.405618"/>
<circle id="Ellipse 213_2" cx="375.251" cy="412.329" r="115.804" stroke="var(--stroke-0, black)" stroke-width="0.405618"/>
<circle id="Ellipse 214_2" cx="375.251" cy="412.329" r="121.483" stroke="var(--stroke-0, black)" stroke-width="0.405618"/>
<circle id="Ellipse 215_2" cx="375.252" cy="412.329" r="127.161" stroke="var(--stroke-0, black)" stroke-width="0.405618"/>
<circle id="Ellipse 218_2" cx="375.251" cy="412.329" r="132.831" stroke="var(--stroke-0, black)" stroke-width="0.423703"/>
<circle id="Ellipse 219_2" cx="375.251" cy="412.329" r="138.501" stroke="var(--stroke-0, black)" stroke-width="0.441788"/>
</g>
<g id="Graphic Background_3" opacity="0.05">
<circle id="Ellipse 193_3" cx="526.119" cy="573.425" r="6.1497" stroke="var(--stroke-0, black)" stroke-width="0.439264"/>
<circle id="Ellipse 216_3" cx="526.119" cy="573.425" r="2.41595" stroke="var(--stroke-0, black)" stroke-width="0.439264"/>
<circle id="Ellipse 217_3" cx="526.119" cy="573.425" r="0.219632" stroke="var(--stroke-0, black)" stroke-width="0.439264"/>
<circle id="Ellipse 194_3" cx="526.119" cy="573.424" r="12.519" stroke="var(--stroke-0, black)" stroke-width="0.439264"/>
<circle id="Ellipse 195_3" cx="526.118" cy="573.424" r="18.8884" stroke="var(--stroke-0, black)" stroke-width="0.439264"/>
<circle id="Ellipse 196_3" cx="526.118" cy="573.425" r="25.2577" stroke="var(--stroke-0, black)" stroke-width="0.439264"/>
<circle id="Ellipse 197_3" cx="526.118" cy="573.425" r="31.627" stroke="var(--stroke-0, black)" stroke-width="0.439264"/>
<circle id="Ellipse 198_3" cx="526.118" cy="573.425" r="31.627" stroke="var(--stroke-0, black)" stroke-width="0.439264"/>
<circle id="Ellipse 199_3" cx="526.118" cy="573.425" r="37.9963" stroke="var(--stroke-0, black)" stroke-width="0.439264"/>
<circle id="Ellipse 200_3" cx="526.119" cy="573.425" r="44.3657" stroke="var(--stroke-0, black)" stroke-width="0.439264"/>
<circle id="Ellipse 201_3" cx="526.119" cy="573.425" r="50.735" stroke="var(--stroke-0, black)" stroke-width="0.439264"/>
<circle id="Ellipse 202_3" cx="526.119" cy="573.425" r="57.1043" stroke="var(--stroke-0, black)" stroke-width="0.439264"/>
<circle id="Ellipse 203_3" cx="526.119" cy="573.425" r="63.4737" stroke="var(--stroke-0, black)" stroke-width="0.439264"/>
<circle id="Ellipse 204_3" cx="526.119" cy="573.425" r="69.843" stroke="var(--stroke-0, black)" stroke-width="0.439264"/>
<circle id="Ellipse 205_3" cx="526.119" cy="573.425" r="76.2123" stroke="var(--stroke-0, black)" stroke-width="0.439264"/>
<circle id="Ellipse 206_3" cx="526.119" cy="573.425" r="82.362" stroke="var(--stroke-0, black)" stroke-width="0.439264"/>
<circle id="Ellipse 207_3" cx="526.119" cy="573.424" r="88.5117" stroke="var(--stroke-0, black)" stroke-width="0.439264"/>
<circle id="Ellipse 208_3" cx="526.119" cy="573.425" r="94.6614" stroke="var(--stroke-0, black)" stroke-width="0.439264"/>
<circle id="Ellipse 209_3" cx="526.119" cy="573.425" r="100.811" stroke="var(--stroke-0, black)" stroke-width="0.439264"/>
<circle id="Ellipse 210_3" cx="526.119" cy="573.425" r="106.961" stroke="var(--stroke-0, black)" stroke-width="0.439264"/>
<circle id="Ellipse 211_3" cx="526.119" cy="573.425" r="113.111" stroke="var(--stroke-0, black)" stroke-width="0.439264"/>
<circle id="Ellipse 212_3" cx="526.119" cy="573.425" r="119.26" stroke="var(--stroke-0, black)" stroke-width="0.439264"/>
<circle id="Ellipse 213_3" cx="526.119" cy="573.425" r="125.41" stroke="var(--stroke-0, black)" stroke-width="0.439264"/>
<circle id="Ellipse 214_3" cx="526.118" cy="573.424" r="131.56" stroke="var(--stroke-0, black)" stroke-width="0.439264"/>
<circle id="Ellipse 215_3" cx="526.119" cy="573.425" r="137.709" stroke="var(--stroke-0, black)" stroke-width="0.439264"/>
<circle id="Ellipse 218_3" cx="526.119" cy="573.425" r="143.849" stroke="var(--stroke-0, black)" stroke-width="0.458849"/>
<circle id="Ellipse 219_3" cx="526.119" cy="573.425" r="149.989" stroke="var(--stroke-0, black)" stroke-width="0.478434"/>
</g>
<g id="Graphic Background_4" opacity="0.05">
<circle id="Ellipse 193_4" cx="375.251" cy="701.279" r="5.67866" stroke="var(--stroke-0, black)" stroke-width="0.405618"/>
<circle id="Ellipse 216_4" cx="375.251" cy="701.279" r="2.2309" stroke="var(--stroke-0, black)" stroke-width="0.405618"/>
<circle id="Ellipse 217_4" cx="375.25" cy="701.278" r="0.202809" stroke="var(--stroke-0, black)" stroke-width="0.404653"/>
<circle id="Ellipse 194_4" cx="375.251" cy="701.278" r="11.5601" stroke="var(--stroke-0, black)" stroke-width="0.405618"/>
<circle id="Ellipse 195_4" cx="375.251" cy="701.279" r="17.4416" stroke="var(--stroke-0, black)" stroke-width="0.405618"/>
<circle id="Ellipse 196_4" cx="375.251" cy="701.279" r="23.3231" stroke="var(--stroke-0, black)" stroke-width="0.405618"/>
<circle id="Ellipse 197_4" cx="375.251" cy="701.278" r="29.2045" stroke="var(--stroke-0, black)" stroke-width="0.405618"/>
<circle id="Ellipse 198_4" cx="375.251" cy="701.278" r="29.2045" stroke="var(--stroke-0, black)" stroke-width="0.405618"/>
<circle id="Ellipse 199_4" cx="375.251" cy="701.279" r="35.086" stroke="var(--stroke-0, black)" stroke-width="0.405618"/>
<circle id="Ellipse 200_4" cx="375.251" cy="701.279" r="40.9675" stroke="var(--stroke-0, black)" stroke-width="0.405618"/>
<circle id="Ellipse 201_4" cx="375.251" cy="701.279" r="46.8489" stroke="var(--stroke-0, black)" stroke-width="0.405618"/>
<circle id="Ellipse 202_4" cx="375.251" cy="701.279" r="52.7304" stroke="var(--stroke-0, black)" stroke-width="0.405618"/>
<circle id="Ellipse 203_4" cx="375.251" cy="701.278" r="58.6118" stroke="var(--stroke-0, black)" stroke-width="0.405618"/>
<circle id="Ellipse 204_4" cx="375.251" cy="701.279" r="64.4933" stroke="var(--stroke-0, black)" stroke-width="0.405618"/>
<circle id="Ellipse 205_4" cx="375.251" cy="701.279" r="70.3748" stroke="var(--stroke-0, black)" stroke-width="0.405618"/>
<circle id="Ellipse 206_4" cx="375.251" cy="701.279" r="76.0534" stroke="var(--stroke-0, black)" stroke-width="0.405618"/>
<circle id="Ellipse 207_4" cx="375.251" cy="701.278" r="81.7321" stroke="var(--stroke-0, black)" stroke-width="0.405618"/>
<circle id="Ellipse 208_4" cx="375.251" cy="701.279" r="87.4107" stroke="var(--stroke-0, black)" stroke-width="0.405618"/>
<circle id="Ellipse 209_4" cx="375.251" cy="701.278" r="93.0894" stroke="var(--stroke-0, black)" stroke-width="0.405618"/>
<circle id="Ellipse 210_4" cx="375.251" cy="701.279" r="98.7681" stroke="var(--stroke-0, black)" stroke-width="0.405618"/>
<circle id="Ellipse 211_4" cx="375.251" cy="701.279" r="104.447" stroke="var(--stroke-0, black)" stroke-width="0.405618"/>
<circle id="Ellipse 212_4" cx="375.251" cy="701.279" r="110.125" stroke="var(--stroke-0, black)" stroke-width="0.405618"/>
<circle id="Ellipse 213_4" cx="375.251" cy="701.279" r="115.804" stroke="var(--stroke-0, black)" stroke-width="0.405618"/>
<circle id="Ellipse 214_4" cx="375.251" cy="701.279" r="121.483" stroke="var(--stroke-0, black)" stroke-width="0.405618"/>
<circle id="Ellipse 215_4" cx="375.251" cy="701.278" r="127.161" stroke="var(--stroke-0, black)" stroke-width="0.405618"/>
<circle id="Ellipse 218_4" cx="375.251" cy="701.279" r="132.831" stroke="var(--stroke-0, black)" stroke-width="0.423703"/>
<circle id="Ellipse 219_4" cx="375.251" cy="701.279" r="138.501" stroke="var(--stroke-0, black)" stroke-width="0.441788"/>
</g>
<g id="Graphic Background_5" opacity="0.05">
<circle id="Ellipse 193_5" cx="228.859" cy="570.228" r="6.01885" stroke="var(--stroke-0, black)" stroke-width="0.429918"/>
<circle id="Ellipse 216_5" cx="228.859" cy="570.229" r="2.36455" stroke="var(--stroke-0, black)" stroke-width="0.429918"/>
<circle id="Ellipse 217_5" cx="228.858" cy="570.229" r="0.214959" stroke="var(--stroke-0, black)" stroke-width="0.429918"/>
<circle id="Ellipse 194_5" cx="228.859" cy="570.228" r="12.2527" stroke="var(--stroke-0, black)" stroke-width="0.429918"/>
<circle id="Ellipse 195_5" cx="228.858" cy="570.228" r="18.4865" stroke="var(--stroke-0, black)" stroke-width="0.429918"/>
<circle id="Ellipse 196_5" cx="228.858" cy="570.229" r="24.7203" stroke="var(--stroke-0, black)" stroke-width="0.429918"/>
<circle id="Ellipse 197_5" cx="228.858" cy="570.228" r="30.9541" stroke="var(--stroke-0, black)" stroke-width="0.429918"/>
<circle id="Ellipse 198_5" cx="228.858" cy="570.228" r="30.9541" stroke="var(--stroke-0, black)" stroke-width="0.429918"/>
<circle id="Ellipse 199_5" cx="228.858" cy="570.228" r="37.1879" stroke="var(--stroke-0, black)" stroke-width="0.429918"/>
<circle id="Ellipse 200_5" cx="228.859" cy="570.228" r="43.4217" stroke="var(--stroke-0, black)" stroke-width="0.429918"/>
<circle id="Ellipse 201_5" cx="228.859" cy="570.228" r="49.6555" stroke="var(--stroke-0, black)" stroke-width="0.429918"/>
<circle id="Ellipse 202_5" cx="228.858" cy="570.228" r="55.8893" stroke="var(--stroke-0, black)" stroke-width="0.429918"/>
<circle id="Ellipse 203_5" cx="228.858" cy="570.228" r="62.1231" stroke="var(--stroke-0, black)" stroke-width="0.429918"/>
<circle id="Ellipse 204_5" cx="228.859" cy="570.228" r="68.357" stroke="var(--stroke-0, black)" stroke-width="0.429918"/>
<circle id="Ellipse 205_5" cx="228.859" cy="570.228" r="74.5908" stroke="var(--stroke-0, black)" stroke-width="0.429918"/>
<circle id="Ellipse 206_5" cx="228.859" cy="570.228" r="80.6096" stroke="var(--stroke-0, black)" stroke-width="0.429918"/>
<circle id="Ellipse 207_5" cx="228.858" cy="570.228" r="86.6285" stroke="var(--stroke-0, black)" stroke-width="0.429918"/>
<circle id="Ellipse 208_5" cx="228.858" cy="570.228" r="92.6473" stroke="var(--stroke-0, black)" stroke-width="0.429918"/>
<circle id="Ellipse 209_5" cx="228.859" cy="570.228" r="98.6662" stroke="var(--stroke-0, black)" stroke-width="0.429918"/>
<circle id="Ellipse 210_5" cx="228.859" cy="570.229" r="104.685" stroke="var(--stroke-0, black)" stroke-width="0.429918"/>
<circle id="Ellipse 211_5" cx="228.858" cy="570.228" r="110.704" stroke="var(--stroke-0, black)" stroke-width="0.429918"/>
<circle id="Ellipse 212_5" cx="228.858" cy="570.228" r="116.723" stroke="var(--stroke-0, black)" stroke-width="0.429918"/>
<circle id="Ellipse 213_5" cx="228.858" cy="570.228" r="122.742" stroke="var(--stroke-0, black)" stroke-width="0.429918"/>
<circle id="Ellipse 214_5" cx="228.858" cy="570.228" r="128.76" stroke="var(--stroke-0, black)" stroke-width="0.429918"/>
<circle id="Ellipse 215_5" cx="228.859" cy="570.228" r="134.779" stroke="var(--stroke-0, black)" stroke-width="0.429918"/>
<circle id="Ellipse 218_5" cx="228.858" cy="570.229" r="140.789" stroke="var(--stroke-0, black)" stroke-width="0.449087"/>
<circle id="Ellipse 219_5" cx="228.858" cy="570.228" r="146.798" stroke="var(--stroke-0, black)" stroke-width="0.468255"/>
</g>
<g id="Graphic Background_6" opacity="0.05">
<circle id="Ellipse 193_6" cx="521.005" cy="278.082" r="5.94035" stroke="var(--stroke-0, black)" stroke-width="0.42431"/>
<circle id="Ellipse 216_6" cx="521.005" cy="278.082" r="2.33371" stroke="var(--stroke-0, black)" stroke-width="0.42431"/>
<circle id="Ellipse 217_6" cx="521.004" cy="278.082" r="0.212155" stroke="var(--stroke-0, black)" stroke-width="0.42431"/>
<circle id="Ellipse 194_6" cx="521.005" cy="278.082" r="12.0928" stroke="var(--stroke-0, black)" stroke-width="0.42431"/>
<circle id="Ellipse 195_6" cx="521.004" cy="278.082" r="18.2453" stroke="var(--stroke-0, black)" stroke-width="0.42431"/>
<circle id="Ellipse 196_6" cx="521.005" cy="278.082" r="24.3979" stroke="var(--stroke-0, black)" stroke-width="0.42431"/>
<circle id="Ellipse 197_6" cx="521.004" cy="278.082" r="30.5504" stroke="var(--stroke-0, black)" stroke-width="0.42431"/>
<circle id="Ellipse 198_6" cx="521.004" cy="278.082" r="30.5504" stroke="var(--stroke-0, black)" stroke-width="0.42431"/>
<circle id="Ellipse 199_6" cx="521.004" cy="278.082" r="36.7028" stroke="var(--stroke-0, black)" stroke-width="0.42431"/>
<circle id="Ellipse 200_6" cx="521.005" cy="278.082" r="42.8554" stroke="var(--stroke-0, black)" stroke-width="0.42431"/>
<circle id="Ellipse 201_6" cx="521.004" cy="278.082" r="49.0079" stroke="var(--stroke-0, black)" stroke-width="0.42431"/>
<circle id="Ellipse 202_6" cx="521.005" cy="278.082" r="55.1604" stroke="var(--stroke-0, black)" stroke-width="0.42431"/>
<circle id="Ellipse 203_6" cx="521.005" cy="278.082" r="61.3129" stroke="var(--stroke-0, black)" stroke-width="0.42431"/>
<circle id="Ellipse 204_6" cx="521.005" cy="278.082" r="67.4653" stroke="var(--stroke-0, black)" stroke-width="0.42431"/>
<circle id="Ellipse 205_6" cx="521.005" cy="278.082" r="73.6178" stroke="var(--stroke-0, black)" stroke-width="0.42431"/>
<circle id="Ellipse 206_6" cx="521.005" cy="278.082" r="79.5582" stroke="var(--stroke-0, black)" stroke-width="0.42431"/>
<circle id="Ellipse 207_6" cx="521.004" cy="278.082" r="85.4985" stroke="var(--stroke-0, black)" stroke-width="0.42431"/>
<circle id="Ellipse 208_6" cx="521.004" cy="278.082" r="91.4389" stroke="var(--stroke-0, black)" stroke-width="0.42431"/>
<circle id="Ellipse 209_6" cx="521.005" cy="278.082" r="97.3792" stroke="var(--stroke-0, black)" stroke-width="0.42431"/>
<circle id="Ellipse 210_6" cx="521.005" cy="278.082" r="103.32" stroke="var(--stroke-0, black)" stroke-width="0.42431"/>
<circle id="Ellipse 211_6" cx="521.004" cy="278.082" r="109.26" stroke="var(--stroke-0, black)" stroke-width="0.42431"/>
<circle id="Ellipse 212_6" cx="521.004" cy="278.082" r="115.2" stroke="var(--stroke-0, black)" stroke-width="0.42431"/>
<circle id="Ellipse 213_6" cx="521.004" cy="278.083" r="121.141" stroke="var(--stroke-0, black)" stroke-width="0.42431"/>
<circle id="Ellipse 214_6" cx="521.004" cy="278.082" r="127.081" stroke="var(--stroke-0, black)" stroke-width="0.42431"/>
<circle id="Ellipse 215_6" cx="521.005" cy="278.082" r="133.021" stroke="var(--stroke-0, black)" stroke-width="0.42431"/>
<circle id="Ellipse 218_6" cx="521.004" cy="278.082" r="138.952" stroke="var(--stroke-0, black)" stroke-width="0.443229"/>
<circle id="Ellipse 219_6" cx="521.005" cy="278.082" r="144.883" stroke="var(--stroke-0, black)" stroke-width="0.462147"/>
</g>
<g id="Graphic Background_7" opacity="0.05">
<circle id="Ellipse 193_7" cx="229.498" cy="276.804" r="5.99268" stroke="var(--stroke-0, black)" stroke-width="0.428049"/>
<circle id="Ellipse 216_7" cx="229.498" cy="276.804" r="2.35427" stroke="var(--stroke-0, black)" stroke-width="0.428049"/>
<circle id="Ellipse 217_7" cx="229.498" cy="276.804" r="0.214024" stroke="var(--stroke-0, black)" stroke-width="0.428049"/>
<circle id="Ellipse 194_7" cx="229.498" cy="276.804" r="12.1994" stroke="var(--stroke-0, black)" stroke-width="0.428049"/>
<circle id="Ellipse 195_7" cx="229.497" cy="276.804" r="18.4061" stroke="var(--stroke-0, black)" stroke-width="0.428049"/>
<circle id="Ellipse 196_7" cx="229.498" cy="276.804" r="24.6128" stroke="var(--stroke-0, black)" stroke-width="0.428049"/>
<circle id="Ellipse 197_7" cx="229.497" cy="276.804" r="30.8195" stroke="var(--stroke-0, black)" stroke-width="0.428049"/>
<circle id="Ellipse 198_7" cx="229.497" cy="276.804" r="30.8195" stroke="var(--stroke-0, black)" stroke-width="0.428049"/>
<circle id="Ellipse 199_7" cx="229.497" cy="276.804" r="37.0262" stroke="var(--stroke-0, black)" stroke-width="0.428049"/>
<circle id="Ellipse 200_7" cx="229.498" cy="276.804" r="43.2329" stroke="var(--stroke-0, black)" stroke-width="0.428049"/>
<circle id="Ellipse 201_7" cx="229.498" cy="276.804" r="49.4396" stroke="var(--stroke-0, black)" stroke-width="0.428049"/>
<circle id="Ellipse 202_7" cx="229.498" cy="276.804" r="55.6464" stroke="var(--stroke-0, black)" stroke-width="0.428049"/>
<circle id="Ellipse 203_7" cx="229.498" cy="276.803" r="61.8531" stroke="var(--stroke-0, black)" stroke-width="0.428049"/>
<circle id="Ellipse 204_7" cx="229.498" cy="276.804" r="68.0598" stroke="var(--stroke-0, black)" stroke-width="0.428049"/>
<circle id="Ellipse 205_7" cx="229.498" cy="276.804" r="74.2665" stroke="var(--stroke-0, black)" stroke-width="0.428049"/>
<circle id="Ellipse 206_7" cx="229.498" cy="276.804" r="80.2591" stroke="var(--stroke-0, black)" stroke-width="0.428049"/>
<circle id="Ellipse 207_7" cx="229.497" cy="276.804" r="86.2518" stroke="var(--stroke-0, black)" stroke-width="0.428049"/>
<circle id="Ellipse 208_7" cx="229.498" cy="276.804" r="92.2445" stroke="var(--stroke-0, black)" stroke-width="0.428049"/>
<circle id="Ellipse 209_7" cx="229.498" cy="276.803" r="98.2372" stroke="var(--stroke-0, black)" stroke-width="0.428049"/>
<circle id="Ellipse 210_7" cx="229.498" cy="276.804" r="104.23" stroke="var(--stroke-0, black)" stroke-width="0.428049"/>
<circle id="Ellipse 211_7" cx="229.497" cy="276.804" r="110.223" stroke="var(--stroke-0, black)" stroke-width="0.428049"/>
<circle id="Ellipse 212_7" cx="229.498" cy="276.804" r="116.215" stroke="var(--stroke-0, black)" stroke-width="0.428049"/>
<circle id="Ellipse 213_7" cx="229.497" cy="276.804" r="122.208" stroke="var(--stroke-0, black)" stroke-width="0.428049"/>
<circle id="Ellipse 214_7" cx="229.497" cy="276.804" r="128.201" stroke="var(--stroke-0, black)" stroke-width="0.428049"/>
<circle id="Ellipse 215_7" cx="229.498" cy="276.803" r="134.193" stroke="var(--stroke-0, black)" stroke-width="0.428049"/>
<circle id="Ellipse 218_7" cx="229.498" cy="276.804" r="140.176" stroke="var(--stroke-0, black)" stroke-width="0.447134"/>
<circle id="Ellipse 219_7" cx="229.498" cy="276.804" r="146.16" stroke="var(--stroke-0, black)" stroke-width="0.466219"/>
</g>
<g id="Graphic Background_8" opacity="0.05">
<circle id="Ellipse 193_8" cx="375.251" cy="138.721" r="5.67866" stroke="var(--stroke-0, black)" stroke-width="0.405618"/>
<circle id="Ellipse 216_8" cx="375.251" cy="138.722" r="2.2309" stroke="var(--stroke-0, black)" stroke-width="0.405618"/>
<circle id="Ellipse 217_8" cx="375.25" cy="138.721" r="0.202809" stroke="var(--stroke-0, black)" stroke-width="0.404653"/>
<circle id="Ellipse 194_8" cx="375.251" cy="138.721" r="11.5601" stroke="var(--stroke-0, black)" stroke-width="0.405618"/>
<circle id="Ellipse 195_8" cx="375.251" cy="138.721" r="17.4416" stroke="var(--stroke-0, black)" stroke-width="0.405618"/>
<circle id="Ellipse 196_8" cx="375.251" cy="138.721" r="23.3231" stroke="var(--stroke-0, black)" stroke-width="0.405618"/>
<circle id="Ellipse 197_8" cx="375.251" cy="138.722" r="29.2045" stroke="var(--stroke-0, black)" stroke-width="0.405618"/>
<circle id="Ellipse 198_8" cx="375.251" cy="138.722" r="29.2045" stroke="var(--stroke-0, black)" stroke-width="0.405618"/>
<circle id="Ellipse 199_8" cx="375.251" cy="138.722" r="35.086" stroke="var(--stroke-0, black)" stroke-width="0.405618"/>
<circle id="Ellipse 200_8" cx="375.251" cy="138.722" r="40.9675" stroke="var(--stroke-0, black)" stroke-width="0.405618"/>
<circle id="Ellipse 201_8" cx="375.251" cy="138.722" r="46.8489" stroke="var(--stroke-0, black)" stroke-width="0.405618"/>
<circle id="Ellipse 202_8" cx="375.251" cy="138.722" r="52.7304" stroke="var(--stroke-0, black)" stroke-width="0.405618"/>
<circle id="Ellipse 203_8" cx="375.251" cy="138.721" r="58.6118" stroke="var(--stroke-0, black)" stroke-width="0.405618"/>
<circle id="Ellipse 204_8" cx="375.251" cy="138.722" r="64.4933" stroke="var(--stroke-0, black)" stroke-width="0.405618"/>
<circle id="Ellipse 205_8" cx="375.251" cy="138.722" r="70.3748" stroke="var(--stroke-0, black)" stroke-width="0.405618"/>
<circle id="Ellipse 206_8" cx="375.251" cy="138.721" r="76.0534" stroke="var(--stroke-0, black)" stroke-width="0.405618"/>
<circle id="Ellipse 207_8" cx="375.251" cy="138.721" r="81.7321" stroke="var(--stroke-0, black)" stroke-width="0.405618"/>
<circle id="Ellipse 208_8" cx="375.251" cy="138.722" r="87.4107" stroke="var(--stroke-0, black)" stroke-width="0.405618"/>
<circle id="Ellipse 209_8" cx="375.252" cy="138.721" r="93.0894" stroke="var(--stroke-0, black)" stroke-width="0.405618"/>
<circle id="Ellipse 210_8" cx="375.251" cy="138.722" r="98.768" stroke="var(--stroke-0, black)" stroke-width="0.405618"/>
<circle id="Ellipse 211_8" cx="375.251" cy="138.722" r="104.447" stroke="var(--stroke-0, black)" stroke-width="0.405618"/>
<circle id="Ellipse 212_8" cx="375.251" cy="138.721" r="110.125" stroke="var(--stroke-0, black)" stroke-width="0.405618"/>
<circle id="Ellipse 213_8" cx="375.251" cy="138.722" r="115.804" stroke="var(--stroke-0, black)" stroke-width="0.405618"/>
<circle id="Ellipse 214_8" cx="375.251" cy="138.721" r="121.483" stroke="var(--stroke-0, black)" stroke-width="0.405618"/>
<circle id="Ellipse 215_8" cx="375.252" cy="138.721" r="127.161" stroke="var(--stroke-0, black)" stroke-width="0.405618"/>
<circle id="Ellipse 218_8" cx="375.251" cy="138.722" r="132.831" stroke="var(--stroke-0, black)" stroke-width="0.423703"/>
<circle id="Ellipse 219_8" cx="375.251" cy="138.721" r="138.501" stroke="var(--stroke-0, black)" stroke-width="0.441788"/>
</g>
<g id="Graphic Background_9" opacity="0.05">
<circle id="Ellipse 193_9" cx="138.722" cy="412.329" r="5.67866" stroke="var(--stroke-0, black)" stroke-width="0.405618"/>
<circle id="Ellipse 216_9" cx="138.722" cy="412.329" r="2.2309" stroke="var(--stroke-0, black)" stroke-width="0.405618"/>
<circle id="Ellipse 217_9" cx="138.721" cy="412.328" r="0.202809" stroke="var(--stroke-0, black)" stroke-width="0.404653"/>
<circle id="Ellipse 194_9" cx="138.721" cy="412.329" r="11.5601" stroke="var(--stroke-0, black)" stroke-width="0.405618"/>
<circle id="Ellipse 195_9" cx="138.721" cy="412.329" r="17.4416" stroke="var(--stroke-0, black)" stroke-width="0.405618"/>
<circle id="Ellipse 196_9" cx="138.721" cy="412.329" r="23.3231" stroke="var(--stroke-0, black)" stroke-width="0.405618"/>
<circle id="Ellipse 197_9" cx="138.721" cy="412.329" r="29.2045" stroke="var(--stroke-0, black)" stroke-width="0.405618"/>
<circle id="Ellipse 198_9" cx="138.721" cy="412.329" r="29.2045" stroke="var(--stroke-0, black)" stroke-width="0.405618"/>
<circle id="Ellipse 199_9" cx="138.722" cy="412.329" r="35.086" stroke="var(--stroke-0, black)" stroke-width="0.405618"/>
<circle id="Ellipse 200_9" cx="138.722" cy="412.329" r="40.9675" stroke="var(--stroke-0, black)" stroke-width="0.405618"/>
<circle id="Ellipse 201_9" cx="138.722" cy="412.329" r="46.8489" stroke="var(--stroke-0, black)" stroke-width="0.405618"/>
<circle id="Ellipse 202_9" cx="138.721" cy="412.329" r="52.7304" stroke="var(--stroke-0, black)" stroke-width="0.405618"/>
<circle id="Ellipse 203_9" cx="138.722" cy="412.329" r="58.6118" stroke="var(--stroke-0, black)" stroke-width="0.405618"/>
<circle id="Ellipse 204_9" cx="138.721" cy="412.329" r="64.4933" stroke="var(--stroke-0, black)" stroke-width="0.405618"/>
<circle id="Ellipse 205_9" cx="138.722" cy="412.329" r="70.3748" stroke="var(--stroke-0, black)" stroke-width="0.405618"/>
<circle id="Ellipse 206_9" cx="138.722" cy="412.329" r="76.0534" stroke="var(--stroke-0, black)" stroke-width="0.405618"/>
<circle id="Ellipse 207_9" cx="138.721" cy="412.329" r="81.7321" stroke="var(--stroke-0, black)" stroke-width="0.405618"/>
<circle id="Ellipse 208_9" cx="138.721" cy="412.329" r="87.4107" stroke="var(--stroke-0, black)" stroke-width="0.405618"/>
<circle id="Ellipse 209_9" cx="138.722" cy="412.329" r="93.0894" stroke="var(--stroke-0, black)" stroke-width="0.405618"/>
<circle id="Ellipse 210_9" cx="138.721" cy="412.329" r="98.768" stroke="var(--stroke-0, black)" stroke-width="0.405618"/>
<circle id="Ellipse 211_9" cx="138.722" cy="412.329" r="104.447" stroke="var(--stroke-0, black)" stroke-width="0.405618"/>
<circle id="Ellipse 212_9" cx="138.722" cy="412.329" r="110.125" stroke="var(--stroke-0, black)" stroke-width="0.405618"/>
<circle id="Ellipse 213_9" cx="138.721" cy="412.329" r="115.804" stroke="var(--stroke-0, black)" stroke-width="0.405618"/>
<circle id="Ellipse 214_9" cx="138.721" cy="412.329" r="121.483" stroke="var(--stroke-0, black)" stroke-width="0.405618"/>
<circle id="Ellipse 215_9" cx="138.722" cy="412.329" r="127.161" stroke="var(--stroke-0, black)" stroke-width="0.405618"/>
<circle id="Ellipse 218_9" cx="138.721" cy="412.329" r="132.831" stroke="var(--stroke-0, black)" stroke-width="0.423703"/>
<circle id="Ellipse 219_9" cx="138.721" cy="412.329" r="138.501" stroke="var(--stroke-0, black)" stroke-width="0.441788"/>
</g>
<path id="Union" opacity="0.1" d="M283.508 358.568L301.961 478.821L337.104 408.839C337.104 408.839 348.233 468.113 335.814 491.52C331.321 500.704 326.355 509.649 320.936 518.32H274.076L236 358.568H283.508ZM387.016 358.568L406.874 478.821L456.433 358.568H500.249L424.622 518.32H379.579L339.509 358.568H387.016ZM370.146 277.003C373.574 276.951 376.974 277.626 380.121 278.983C383.269 280.34 386.093 282.349 388.407 284.876C390.721 287.403 392.472 290.391 393.545 293.644C394.618 296.896 394.988 300.34 394.632 303.746C393.945 310.88 390.661 317.513 385.402 322.389C380.144 327.264 373.277 330.043 366.104 330.196C362.701 330.253 359.324 329.59 356.194 328.254C353.064 326.917 350.251 324.937 347.94 322.44C345.629 319.944 343.873 316.988 342.783 313.767C341.694 310.545 341.296 307.131 341.618 303.746C342.292 296.602 345.571 289.954 350.83 285.066C356.09 280.179 362.965 277.392 370.146 277.237V277.003Z" fill="var(--fill-0, #C7C6C6)"/>
</g>
</svg>
