<svg width="86" height="20" viewBox="0 0 86 20" fill="none" xmlns="http://www.w3.org/2000/svg">
<rect width="20" height="20" rx="10" fill="white"/>
<path d="M10 20C9.65867 20.0006 9.31741 19.9834 8.97787 19.9486C8.64484 19.9158 8.31104 19.8625 7.98277 19.7996C7.66358 19.7315 7.33927 19.6486 7.02483 19.5503C6.71347 19.4545 6.40724 19.3425 6.10745 19.2152C5.5117 18.9639 4.9427 18.6546 4.40868 18.2907C3.87668 17.9326 3.38081 17.5239 2.92786 17.0705C2.01444 16.1591 1.28666 15.0799 0.784757 13.8927C0.658898 13.5909 0.546277 13.2849 0.449396 12.9741C0.35089 12.6591 0.269581 12.3385 0.204422 12.015C0.136385 11.6874 0.0854452 11.3569 0.0532138 11.0239C-0.0177379 10.3443 -0.0177379 9.65907 0.0532138 8.97945C0.0848335 8.64539 0.135778 8.3135 0.204422 7.985C0.269476 7.66092 0.350786 7.34064 0.449396 7.02509C0.54671 6.71597 0.658898 6.40692 0.784757 6.10643C1.79814 3.71042 3.70697 1.80081 6.10745 0.783091C6.40631 0.656773 6.71559 0.547099 7.02483 0.448804C7.33408 0.350508 7.66358 0.266776 7.98277 0.201246C8.31061 0.134853 8.64441 0.0841899 8.97787 0.0488379C9.31133 0.013486 9.65875 0 10 0C10.3412 0 10.6835 0.0152105 11.023 0.0488379C11.3551 0.0841899 11.6912 0.135716 12.0147 0.201246C12.3383 0.267456 12.6583 0.350145 12.9735 0.448804C13.2836 0.547531 13.5928 0.656773 13.8917 0.783091C15.0802 1.2869 16.1596 2.01591 17.0705 2.92859C17.9824 3.84158 18.7105 4.92033 19.2152 6.10643C19.3385 6.40821 19.4537 6.71597 19.5506 7.02509C19.6475 7.3342 19.7298 7.66252 19.7956 7.985C19.8629 8.31377 19.9132 8.64558 19.9468 8.97945C20.0177 9.65907 20.0177 10.3443 19.9468 11.0239C19.9131 11.355 19.8605 11.6878 19.7956 12.015C19.7298 12.3349 19.6475 12.6589 19.5506 12.9741C19.4537 13.2892 19.3385 13.5931 19.2152 13.8927C18.7127 15.08 17.9844 16.1592 17.0705 17.0705C16.1575 17.981 15.0787 18.7091 13.8917 19.216C13.5917 19.3435 13.2852 19.4555 12.9735 19.5512C12.6599 19.6499 12.3382 19.7323 12.0147 19.8004C11.6912 19.8685 11.3551 19.9167 11.023 19.9495C10.6831 19.9841 10.3416 20.0007 10 20V20ZM8.85876 7.4141L10.718 14.8552H12.8341L16.3524 7.4141H14.3327L11.986 13.0018L11.0661 7.4141H8.85876ZM3.9804 7.4141L5.76617 14.8518H7.97178L8.52509 13.8666L8.73036 13.4464L8.82835 13.1214L8.87481 12.8713L8.92296 12.4486V11.7194L8.89508 11.0189L8.72698 9.76338L7.07721 13.0338L6.21473 7.41495L3.9804 7.4141ZM10.4013 3.92219C10.2517 3.92286 10.1035 3.94897 9.96283 3.99966C9.81514 4.05286 9.67775 4.13154 9.55736 4.23206C9.42742 4.34181 9.31881 4.4746 9.2372 4.62361C9.16021 4.76457 9.11117 4.91886 9.09275 5.0783C9.08231 5.15618 9.08042 5.23492 9.08684 5.31323C9.09273 5.39174 9.10706 5.46943 9.12992 5.54479C9.17348 5.69852 9.2488 5.84212 9.35124 5.96497C9.40702 6.03118 9.47064 6.09106 9.53962 6.14348C9.60927 6.19284 9.68297 6.23561 9.76009 6.27231C9.83796 6.30494 9.91842 6.33051 10.0008 6.34893C10.084 6.36562 10.1686 6.37369 10.2534 6.37335C10.4029 6.3737 10.5512 6.34812 10.6918 6.29757C11.0016 6.18386 11.2596 5.96217 11.4183 5.67362C11.495 5.53277 11.5443 5.37886 11.5636 5.21977C11.5726 5.14121 11.5756 5.0621 11.5712 4.98315C11.5638 4.90569 11.5487 4.82896 11.5273 4.75412C11.4829 4.59924 11.4065 4.45564 11.3026 4.33226C11.2472 4.26591 11.1844 4.20624 11.1151 4.15459C11.0466 4.10478 10.973 4.06244 10.8954 4.02829C10.8193 3.99089 10.7383 3.96489 10.6547 3.95082C10.5717 3.93153 10.4864 3.92154 10.4013 3.92135V3.92219Z" fill="#DDAD51"/>
<path d="M30.5009 15.3341L28.7713 7.93053H30.9048L31.756 13.1735L31.7985 13.6031L31.9573 13.1735L34.0907 7.93053L36.1229 8.03074L32.6493 15.3341H30.5009ZM27.8197 15.3341H25.7151L24 7.93053H26.1194L26.9706 13.1735L27.0132 13.6031L27.1719 13.1735L28.5836 10.3651C28.6814 10.6121 28.7585 10.8666 28.8143 11.1262C28.8836 11.4391 28.9223 11.758 28.9296 12.0784C28.9388 12.4239 28.9122 12.7695 28.8505 13.1096C28.7894 13.4541 28.67 13.7858 28.4972 14.0906L27.8197 15.3341ZM36.3817 15.3341L37.2899 7.93053H39.3081L38.3998 15.3341H36.3817ZM37.3763 5.78262C37.4214 5.45417 37.5823 5.15226 37.8304 4.93063C38.0685 4.70322 38.3866 4.57729 38.7169 4.5797C38.8709 4.57771 39.0235 4.60947 39.1638 4.67272C39.2963 4.73327 39.4142 4.82119 39.5098 4.93063C39.6058 5.04027 39.6748 5.17053 39.7115 5.31117C39.7507 5.46557 39.7606 5.6259 39.7405 5.78389C39.7069 6.10861 39.5496 6.40827 39.3008 6.62148C39.0591 6.84165 38.7423 6.96253 38.4143 6.95974C38.264 6.9663 38.1141 6.93933 37.9756 6.8808C37.8372 6.82226 37.7137 6.73365 37.6142 6.62148C37.5157 6.50718 37.4433 6.37294 37.4023 6.22808C37.3612 6.08322 37.3523 5.93122 37.3763 5.78262V5.78262ZM49.1439 15.3341L47.4143 7.93053H49.5478L50.3989 13.1735L50.4415 13.6031L50.6002 13.1735L52.7337 7.93053L54.7659 8.03074L51.2923 15.3341H49.1439ZM46.4627 15.3341H44.3577L42.6426 7.93053H44.7603L45.6115 13.1735L45.654 13.6031L45.8128 13.1735L47.2253 10.3668C47.3231 10.6138 47.4002 10.8683 47.456 11.1279C47.5253 11.4408 47.564 11.7597 47.5713 12.0801C47.5805 12.4256 47.554 12.7712 47.4922 13.1113C47.4311 13.4558 47.3117 13.7875 47.1389 14.0923L46.4627 15.3341ZM61.9435 13.5299C61.904 13.8123 61.8824 14.0968 61.8788 14.3819C61.8752 14.7005 61.8968 15.0189 61.9435 15.3341H60.4007C60.3258 15.2882 60.2639 15.2242 60.2207 15.148C60.1515 15.0381 60.0959 14.9203 60.0552 14.7971C60.0049 14.6484 59.971 14.4947 59.9543 14.3388C59.9352 14.1702 59.9352 14 59.9543 13.8314L60.502 9.34951C60.3293 9.30518 60.1535 9.27408 59.976 9.25649C59.8174 9.24211 59.6853 9.23492 59.5798 9.23492C59.271 9.23096 58.9653 9.29705 58.686 9.42815C58.4163 9.55754 58.1778 9.74314 57.9868 9.97232C57.7789 10.2251 57.6156 10.511 57.5038 10.818C57.3741 11.1667 57.2869 11.5297 57.2441 11.8991C57.215 12.1366 57.2008 12.3757 57.2016 12.6149C57.1989 12.8456 57.2329 13.0752 57.3024 13.2952C57.359 13.4829 57.4632 13.653 57.605 13.7891C57.6845 13.8544 57.777 13.9022 57.8764 13.9294C57.9758 13.9566 58.0798 13.9625 58.1817 13.9468C58.3023 13.9311 58.425 13.9458 58.5384 13.9896C58.6517 14.0334 58.7521 14.1049 58.8303 14.1975C59.0028 14.4112 59.1571 14.6388 59.2917 14.8778C59.0129 15.0357 58.7212 15.1698 58.4196 15.2787C58.1577 15.3767 57.8837 15.4392 57.605 15.4647C57.1873 15.5035 56.768 15.4082 56.4087 15.1928C56.0732 14.9837 55.7917 14.6993 55.5869 14.3624C55.3694 14.0029 55.218 13.6077 55.14 13.1955C55.054 12.7688 55.0396 12.3309 55.0975 11.8995C55.1607 11.3401 55.319 10.7954 55.5656 10.2886C55.8029 9.79779 56.1276 9.35372 56.524 8.97785C56.9283 8.59889 57.3999 8.29781 57.9149 8.08993C58.4757 7.86511 59.0759 7.75315 59.6806 7.76055C59.8824 7.76055 60.0818 7.76535 60.279 7.77494C60.4762 7.78452 60.69 7.80594 60.9204 7.8392C61.1511 7.87274 61.4033 7.91813 61.6771 7.97535C61.9509 8.03257 62.2609 8.10417 62.607 8.19014L61.9435 13.5299ZM65.9364 15.3341H63.9327L65.2733 4.47949L67.2625 4.5797L65.9364 15.3341ZM70.0012 15.3341H67.9975L69.3381 4.47949L71.3273 4.5797L70.0012 15.3341ZM77.1218 10.7947C77.1781 10.5897 77.1975 10.3764 77.1792 10.1647C77.1644 9.97806 77.1079 9.79706 77.0137 9.63491C76.923 9.48268 76.7937 9.35672 76.6387 9.26959C76.4644 9.17495 76.2679 9.12798 76.0693 9.13345C75.8564 9.13513 75.6459 9.17822 75.4496 9.26029C75.2263 9.35428 75.025 9.4932 74.8585 9.66831C74.6591 9.87902 74.4959 10.1208 74.3754 10.3841C74.2247 10.7174 74.1298 11.0729 74.0945 11.4365C73.9568 12.0962 74.0725 12.7832 74.4188 13.3625C74.5735 13.5838 74.7823 13.7624 75.0256 13.8814C75.269 14.0005 75.5388 14.056 75.8097 14.0428C76.1473 14.0426 76.4838 14.0017 76.8115 13.921C77.2089 13.817 77.5969 13.6805 77.9717 13.513L78.3177 14.8449C77.8288 15.0731 77.3165 15.2483 76.7898 15.3675C76.3352 15.466 75.8715 15.5165 75.4062 15.518C74.83 15.5373 74.2579 15.4143 73.7413 15.1599C73.3169 14.9407 72.9513 14.6241 72.6748 14.2364C72.4074 13.8518 72.2256 13.4149 72.1415 12.9549C72.0502 12.4781 72.0331 11.9903 72.0909 11.5084C72.1563 10.9527 72.3249 10.4138 72.5879 9.91904C72.8288 9.46822 73.1541 9.06725 73.5464 8.73769C73.9314 8.41752 74.3706 8.16785 74.8436 8.00029C75.3243 7.82836 75.8316 7.74107 76.3425 7.74237C76.8319 7.73353 77.3164 7.84157 77.755 8.05738C78.1504 8.25107 78.4808 8.55449 78.7062 8.93092C78.9365 9.33931 79.0511 9.80207 79.0378 10.27C79.0205 10.8602 78.8729 11.4395 78.6054 11.9668H74.5695C74.6984 11.655 74.8862 11.3707 75.1228 11.1291C75.2125 11.0278 75.322 10.9456 75.4446 10.8875C75.5672 10.8294 75.7003 10.7965 75.8361 10.7909L77.1218 10.7947ZM81.3453 9.34824H80.1481L80.2924 8.21678L81.5177 7.93053L81.7339 6.16907L83.7086 5.55345L82.8574 12.4987C82.7737 12.8857 82.8325 13.2897 83.023 13.6373C83.1034 13.7673 83.2173 13.8736 83.3528 13.9453C83.4884 14.017 83.6407 14.0515 83.7942 14.0453C83.9536 14.0434 84.1127 14.0292 84.27 14.003C84.4908 13.9645 84.7078 13.907 84.9186 13.8314L85.1782 15.1345C84.8034 15.2585 84.4743 15.3539 84.1908 15.4207C83.9337 15.4843 83.6701 15.5179 83.4052 15.521C82.4828 15.521 81.8125 15.2632 81.3943 14.7476C80.9761 14.2321 80.8295 13.4827 80.9546 12.4995L81.3453 9.34824ZM85.1795 9.34824C84.9923 9.35448 84.8072 9.30723 84.6462 9.21209C84.5038 9.12269 84.3791 9.00803 84.2785 8.87384C84.1758 8.73683 84.0955 8.58457 84.0406 8.42269C83.9852 8.26148 83.9425 8.09622 83.9129 7.92841H86L85.8272 9.34612L85.1795 9.34824Z" fill="#DDAD51"/>
</svg>
